<svg width="55" height="52" viewBox="0 0 55 52" fill="none" xmlns="http://www.w3.org/2000/svg">
<path d="M19.25 31.5719C18.2875 31.5719 17.474 31.2623 16.8094 30.643C16.1448 30.0238 15.8125 29.2657 15.8125 28.3689C15.8125 27.472 16.1448 26.714 16.8094 26.0947C17.474 25.4755 18.2875 25.1658 19.25 25.1658C20.2125 25.1658 21.026 25.4755 21.6906 26.0947C22.3552 26.714 22.6875 27.472 22.6875 28.3689C22.6875 29.2657 22.3552 30.0238 21.6906 30.643C21.026 31.2623 20.2125 31.5719 19.25 31.5719ZM35.75 31.5719C34.7875 31.5719 33.974 31.2623 33.3094 30.643C32.6448 30.0238 32.3125 29.2657 32.3125 28.3689C32.3125 27.472 32.6448 26.714 33.3094 26.0947C33.974 25.4755 34.7875 25.1658 35.75 25.1658C36.7125 25.1658 37.526 25.4755 38.1906 26.0947C38.8552 26.714 39.1875 27.472 39.1875 28.3689C39.1875 29.2657 38.8552 30.0238 38.1906 30.643C37.526 31.2623 36.7125 31.5719 35.75 31.5719ZM27.5 46.3058C33.6417 46.3058 38.8438 44.3199 43.1063 40.3482C47.3688 36.3764 49.5 31.5292 49.5 25.8064C49.5 24.7815 49.4313 23.7885 49.2938 22.8276C49.1562 21.8667 48.9042 20.9378 48.5375 20.041C47.575 20.2545 46.6125 20.4147 45.65 20.5215C44.6875 20.6282 43.6792 20.6816 42.625 20.6816C38.4542 20.6816 34.5125 19.8488 30.8 18.1832C27.0875 16.5177 23.925 14.1901 21.3125 11.2007C19.8458 14.5318 17.749 17.4252 15.0219 19.8808C12.2948 22.3365 9.12083 24.1836 5.5 25.4221V25.8064C5.5 31.5292 7.63125 36.3764 11.8938 40.3482C16.1562 44.3199 21.3583 46.3058 27.5 46.3058ZM27.5 51.4306C23.6958 51.4306 20.1208 50.758 16.775 49.4127C13.4292 48.0675 10.5188 46.2417 8.04375 43.9356C5.56875 41.6294 3.60938 38.9175 2.16563 35.7999C0.721875 32.6823 0 29.3511 0 25.8064C0 22.2618 0.721875 18.9306 2.16563 15.813C3.60938 12.6954 5.56875 9.9835 8.04375 7.67733C10.5188 5.37115 13.4292 3.54543 16.775 2.20016C20.1208 0.854886 23.6958 0.182251 27.5 0.182251C31.3042 0.182251 34.8792 0.854886 38.225 2.20016C41.5708 3.54543 44.4813 5.37115 46.9562 7.67733C49.4313 9.9835 51.3906 12.6954 52.8344 15.813C54.2781 18.9306 55 22.2618 55 25.8064C55 29.3511 54.2781 32.6823 52.8344 35.7999C51.3906 38.9175 49.4313 41.6294 46.9562 43.9356C44.4813 46.2417 41.5708 48.0675 38.225 49.4127C34.8792 50.758 31.3042 51.4306 27.5 51.4306ZM23.7875 5.62739C25.7125 8.61688 28.325 11.0191 31.625 12.8342C34.925 14.6492 38.5917 15.5568 42.625 15.5568C43.2667 15.5568 43.8854 15.5247 44.4813 15.4607C45.0771 15.3966 45.6958 15.3219 46.3375 15.2365C44.4125 12.247 41.8 9.84471 38.5 8.02966C35.2 6.21461 31.5333 5.30709 27.5 5.30709C26.8583 5.30709 26.2396 5.33912 25.6438 5.40318C25.0479 5.46724 24.4292 5.54198 23.7875 5.62739ZM6.66875 19.3363C9.00625 18.0978 11.0458 16.4963 12.7875 14.5318C14.5292 12.5673 15.8354 10.3679 16.7063 7.93357C14.3688 9.17207 12.3292 10.7736 10.5875 12.7381C8.84583 14.7026 7.53958 16.902 6.66875 19.3363Z" fill="white"/>
</svg>
