<svg width="55" height="55" viewBox="0 0 55 55" fill="none" xmlns="http://www.w3.org/2000/svg">
<path d="M10.5875 41.525C12.925 39.7375 15.5375 38.3281 18.425 37.2969C21.3125 36.2656 24.3375 35.75 27.5 35.75C30.6625 35.75 33.6875 36.2656 36.575 37.2969C39.4625 38.3281 42.075 39.7375 44.4125 41.525C46.0167 39.6458 47.2656 37.5146 48.1594 35.1313C49.0531 32.7479 49.5 30.2042 49.5 27.5C49.5 21.4042 47.3573 16.2135 43.0719 11.9281C38.7865 7.64271 33.5958 5.5 27.5 5.5C21.4042 5.5 16.2135 7.64271 11.9281 11.9281C7.64271 16.2135 5.5 21.4042 5.5 27.5C5.5 30.2042 5.94688 32.7479 6.84063 35.1313C7.73438 37.5146 8.98333 39.6458 10.5875 41.525ZM27.5 30.25C24.7958 30.25 22.5156 29.3219 20.6594 27.4656C18.8031 25.6094 17.875 23.3292 17.875 20.625C17.875 17.9208 18.8031 15.6406 20.6594 13.7844C22.5156 11.9281 24.7958 11 27.5 11C30.2042 11 32.4844 11.9281 34.3406 13.7844C36.1969 15.6406 37.125 17.9208 37.125 20.625C37.125 23.3292 36.1969 25.6094 34.3406 27.4656C32.4844 29.3219 30.2042 30.25 27.5 30.25ZM27.5 55C23.6958 55 20.1208 54.2781 16.775 52.8344C13.4292 51.3906 10.5188 49.4313 8.04375 46.9562C5.56875 44.4813 3.60938 41.5708 2.16563 38.225C0.721875 34.8792 0 31.3042 0 27.5C0 23.6958 0.721875 20.1208 2.16563 16.775C3.60938 13.4292 5.56875 10.5188 8.04375 8.04375C10.5188 5.56875 13.4292 3.60938 16.775 2.16563C20.1208 0.721875 23.6958 0 27.5 0C31.3042 0 34.8792 0.721875 38.225 2.16563C41.5708 3.60938 44.4813 5.56875 46.9562 8.04375C49.4313 10.5188 51.3906 13.4292 52.8344 16.775C54.2781 20.1208 55 23.6958 55 27.5C55 31.3042 54.2781 34.8792 52.8344 38.225C51.3906 41.5708 49.4313 44.4813 46.9562 46.9562C44.4813 49.4313 41.5708 51.3906 38.225 52.8344C34.8792 54.2781 31.3042 55 27.5 55ZM27.5 49.5C29.9292 49.5 32.2208 49.1448 34.375 48.4344C36.5292 47.724 38.5 46.7042 40.2875 45.375C38.5 44.0458 36.5292 43.026 34.375 42.3156C32.2208 41.6052 29.9292 41.25 27.5 41.25C25.0708 41.25 22.7792 41.6052 20.625 42.3156C18.4708 43.026 16.5 44.0458 14.7125 45.375C16.5 46.7042 18.4708 47.724 20.625 48.4344C22.7792 49.1448 25.0708 49.5 27.5 49.5ZM27.5 24.75C28.6917 24.75 29.6771 24.3604 30.4563 23.5813C31.2354 22.8021 31.625 21.8167 31.625 20.625C31.625 19.4333 31.2354 18.4479 30.4563 17.6688C29.6771 16.8896 28.6917 16.5 27.5 16.5C26.3083 16.5 25.3229 16.8896 24.5438 17.6688C23.7646 18.4479 23.375 19.4333 23.375 20.625C23.375 21.8167 23.7646 22.8021 24.5438 23.5813C25.3229 24.3604 26.3083 24.75 27.5 24.75Z" fill="white"/>
</svg>
