<svg width="34" height="30" viewBox="0 0 34 30" fill="none" xmlns="http://www.w3.org/2000/svg">
<path d="M3.4 30C2.465 30 1.66458 29.6328 0.99875 28.8984C0.332917 28.1641 0 27.2812 0 26.25V3.75C0 2.71875 0.332917 1.83594 0.99875 1.10156C1.66458 0.367188 2.465 0 3.4 0H30.6C31.535 0 32.3354 0.367188 33.0013 1.10156C33.6671 1.83594 34 2.71875 34 3.75V26.25C34 27.2812 33.6671 28.1641 33.0013 28.8984C32.3354 29.6328 31.535 30 30.6 30H3.4ZM17 16.875L3.4 7.5V26.25H30.6V7.5L17 16.875ZM17 13.125L30.6 3.75H3.4L17 13.125ZM3.4 7.5V3.75V26.25V7.5Z" fill="#EEEEEE"/>
</svg>
