<svg width="44" height="40" viewBox="0 0 44 40" fill="none" xmlns="http://www.w3.org/2000/svg">
<path d="M4.4 40C3.19 40 2.15417 39.5104 1.2925 38.5312C0.430833 37.5521 0 36.375 0 35V5C0 3.625 0.430833 2.44792 1.2925 1.46875C2.15417 0.489583 3.19 0 4.4 0H39.6C40.81 0 41.8458 0.489583 42.7075 1.46875C43.5692 2.44792 44 3.625 44 5V35C44 36.375 43.5692 37.5521 42.7075 38.5312C41.8458 39.5104 40.81 40 39.6 40H4.4ZM22 22.5L4.4 10V35H39.6V10L22 22.5ZM22 17.5L39.6 5H4.4L22 17.5ZM4.4 10V5V35V10Z" fill="black"/>
</svg>
