<svg width="193" height="70" viewBox="0 0 193 70" fill="none" xmlns="http://www.w3.org/2000/svg">
<mask id="mask0_144_2" style="mask-type:luminance" maskUnits="userSpaceOnUse" x="18" y="38" width="20" height="17">
<path d="M18.3655 38.0518H37.3828V54.9349H18.3655V38.0518Z" fill="white"/>
</mask>
<g mask="url(#mask0_144_2)">
<mask id="mask1_144_2" style="mask-type:luminance" maskUnits="userSpaceOnUse" x="18" y="38" width="20" height="17">
<path d="M27.8741 38.0518C22.6229 38.0518 18.3655 41.8311 18.3655 46.494C18.3655 51.1556 22.6229 54.9349 27.8741 54.9349C33.1254 54.9349 37.3828 51.1556 37.3828 46.494C37.3828 41.8311 33.1254 38.0518 27.8741 38.0518Z" fill="white"/>
</mask>
<g mask="url(#mask1_144_2)">
<path d="M18.3655 38.0518H37.3828V54.9349H18.3655V38.0518Z" fill="#EEEEEE"/>
</g>
</g>
<mask id="mask2_144_2" style="mask-type:luminance" maskUnits="userSpaceOnUse" x="3" y="24" width="50" height="31">
<path d="M3.82629 24.5781H52.1778V54.1383H3.82629V24.5781Z" fill="white"/>
</mask>
<g mask="url(#mask2_144_2)">
<mask id="mask3_144_2" style="mask-type:luminance" maskUnits="userSpaceOnUse" x="3" y="24" width="50" height="31">
<path d="M36.6798 34.3892C35.6831 34.646 35.5223 33.6756 35.3937 33.7041C35.2651 33.7327 35.3937 34.9029 35.2008 34.96C35.04 34.9886 34.4306 34.4462 34.4949 34.275C34.5592 34.1037 35.3937 33.8754 35.7152 33.961C36.0689 34.0466 36.4869 34.5319 36.5191 34.8458C36.5512 35.1884 36.1011 35.7294 35.7795 35.9577C35.4902 36.1575 35.0722 36.3002 34.7506 36.2146C34.3984 36.129 33.9483 35.7008 33.8518 35.3583C33.7553 34.9886 34.0126 34.1323 34.2698 34.0466C34.527 33.9896 35.2008 34.5033 35.3937 34.8744C35.6188 35.2441 35.6188 35.9006 35.4902 36.2717C35.3615 36.5857 35.1043 36.9567 34.7828 37.0424C34.4306 37.1565 33.7232 36.9853 33.466 36.7855C33.2409 36.6142 33.1444 36.3573 33.1444 36.1004C33.1444 35.7579 33.4338 35.0456 33.7553 34.9029C34.0769 34.7602 34.8471 34.96 35.0722 35.2441C35.3615 35.6437 34.6863 36.8426 34.7828 37.3563C34.8471 37.6975 35.2972 38.0972 35.2329 38.1257C35.1686 38.1828 34.3341 37.5847 34.3662 37.5276C34.3984 37.4705 35.3937 37.8688 35.3937 37.8403C35.3937 37.8117 34.5913 37.7261 34.4306 37.442C34.109 36.8996 34.7828 34.2179 35.2329 34.0752C35.4902 33.9896 36.1654 34.5033 36.1332 34.6746C36.1011 34.8744 35.2651 35.1598 34.8471 35.1313C34.4306 35.1027 33.8196 34.7888 33.6589 34.4748C33.4981 34.1894 33.5624 33.7041 33.7553 33.4472C33.9483 33.1903 34.6542 32.8478 34.7506 32.9335C34.8471 33.0191 33.8839 34.5604 33.7232 34.5319C33.5946 34.5033 33.5946 33.5614 33.7232 33.1333C33.8518 32.735 34.0769 32.4781 34.4627 32.0785C35.1686 31.3363 37.0978 30.1959 37.9324 29.2825C38.5754 28.5975 38.704 27.8282 39.2828 27.2858C39.8294 26.7721 40.5996 26.2583 41.1784 26.1156C41.6286 26.0299 42.1109 26.0585 42.4324 26.2583C42.7218 26.4581 43.0097 26.8291 43.0097 27.2288C43.0097 27.9423 41.7572 29.5965 41.1784 30.0818C40.889 30.3101 40.6318 30.423 40.3424 30.4515C40.053 30.4801 39.6687 30.3672 39.4114 30.2245C39.1863 30.0818 38.9613 29.7963 38.897 29.5394C38.8327 29.2825 38.897 28.9971 39.0256 28.6831C39.2507 28.1694 39.7651 27.4286 40.3424 26.8577C40.9855 26.2012 42.1109 25.4604 42.7846 25.0893C43.2026 24.861 43.5241 24.6612 43.91 24.6897C44.328 24.7183 45.0354 25.0608 45.2283 25.4033C45.389 25.6874 45.2604 26.2583 45.1318 26.5152C45.0354 26.715 44.9067 26.8291 44.6817 26.9148C44.3601 27.0289 43.2669 26.9433 43.2669 26.9148C43.2669 26.8862 44.2315 26.6864 44.328 26.8006C44.4244 26.9148 44.1994 27.2573 43.91 27.6569C43.1062 28.7973 37.6751 32.9049 37.8681 33.6756C37.9324 33.9325 38.4468 34.0466 38.7362 34.0181C39.0577 33.9896 39.315 33.7041 39.733 33.3901C40.6318 32.7064 42.5932 30.5942 43.7492 29.7678C44.4888 29.254 45.0675 28.9686 45.7091 28.6831C46.2879 28.4263 47.0596 27.9709 47.4776 28.1408C47.8956 28.3121 48.3442 29.1398 48.2478 29.7107C48.0885 30.5657 46.513 31.6218 45.4519 32.5922C44.2315 33.7041 41.9179 35.1598 41.2427 35.9292C40.9533 36.2432 40.8247 36.4144 40.7604 36.6998C40.6961 36.9853 40.6961 37.5847 40.7926 37.6119C40.889 37.6405 41.4035 36.6998 41.4035 36.6998C41.4035 36.6998 40.8569 37.3278 40.9533 37.5276C41.0498 37.7546 41.7893 37.983 42.2716 37.8403C43.2991 37.5561 44.746 35.0456 46.0307 33.961C47.1882 32.9905 48.6336 31.9358 49.5661 31.5362C50.0805 31.3078 50.4664 31.2222 50.8508 31.2507C51.1723 31.2793 51.526 31.4505 51.7189 31.6503C51.9118 31.8501 52.0404 32.1926 52.0404 32.4495C52.0404 32.7064 51.944 32.9335 51.6867 33.2474C51.108 33.961 49.2124 35.0456 47.8956 36.1575C46.3522 37.499 44.7138 39.8383 43.074 40.7789C41.8858 41.4639 40.5032 41.6637 39.4436 41.835C38.6397 41.9777 38.1574 41.6637 37.3229 41.9492C35.6188 42.5187 31.7633 46.3993 30.4128 46.6276C29.9305 46.7132 29.6733 46.5991 29.3518 46.3707C28.7745 45.9711 27.7777 44.5167 27.7777 43.8602C27.7777 43.4321 28.0992 43.2323 28.4851 42.8327C29.1603 42.1204 30.8951 40.4078 31.8597 40.208C32.437 40.0653 33.1444 40.2651 33.466 40.5506C33.7553 40.8074 33.8839 41.3498 33.8518 41.7208C33.8196 42.0633 33.6267 42.3488 33.3373 42.7185C32.8872 43.3465 31.8597 44.4311 31.0881 45.0007C30.445 45.4574 29.7055 45.8284 29.1282 45.9997C28.7102 46.1138 28.3243 46.1709 27.9706 46.1138C27.6491 46.0568 27.3276 45.8855 27.1668 45.6572C26.9739 45.4003 26.8774 44.8865 26.9739 44.5738C27.0703 44.3169 27.3597 44.06 27.5848 43.9173C27.7777 43.8032 28.1957 43.7175 28.2279 43.7746C28.2922 43.8602 27.0703 44.8865 26.9739 44.8294C26.9096 44.7736 27.1989 44.2028 27.4883 43.8317C27.9706 43.2038 28.9674 42.2631 29.8984 41.5496C30.9273 40.7218 32.8229 39.0962 33.466 39.2389C33.8518 39.3245 33.8518 40.4364 34.0769 40.4649C34.3019 40.4935 34.8792 39.667 34.8471 39.3816C34.8149 39.1247 34.1733 39.0391 34.109 38.7822C34.0447 38.5253 34.2376 38.0972 34.4949 37.8688C34.7506 37.6119 35.3615 37.2992 35.7474 37.3563C36.1975 37.4134 36.8406 37.9544 36.9692 38.3826C37.0978 38.8964 36.6155 40.2366 36.1975 40.3508C35.8117 40.4649 34.7506 39.7526 34.6863 39.353C34.6235 38.8964 35.5866 37.8974 36.1332 37.7546C36.5512 37.6405 37.4179 37.8403 37.5465 38.0972C37.6751 38.354 37.2586 38.9249 37.0335 39.2389C36.8406 39.5243 36.5512 39.8097 36.2618 39.8954C35.9403 39.981 35.4259 39.9239 35.2008 39.7241C34.9435 39.5243 34.6542 38.8678 34.8149 38.5824C34.9757 38.2399 36.1011 37.8117 36.4226 37.9259C36.6798 38.0115 36.8085 38.6966 36.8406 38.6966C36.8728 38.6966 36.4869 38.1828 36.5834 38.0115C36.6798 37.8117 37.2908 37.5847 37.643 37.6119C37.9645 37.6405 38.4468 37.8688 38.6076 38.1542C38.7684 38.4682 38.4468 39.4101 38.479 39.4101C38.5111 39.4101 38.8327 38.7536 38.7362 38.4968C38.6397 38.2399 37.8681 38.0401 37.9002 37.9259C37.9324 37.7832 39.0256 37.7546 39.4436 37.8688C39.7651 37.9544 40.053 38.1257 40.2138 38.3255C40.3746 38.5253 40.471 38.8393 40.4389 39.0962C40.4067 39.353 40.3103 39.6385 40.053 39.8097C39.5722 40.1224 38.1253 39.9239 37.2586 40.1795C36.4548 40.4078 35.876 40.6362 35.04 41.1785C33.5946 42.0919 31.4096 44.5167 29.8341 45.6286C28.7102 46.4278 27.5526 46.7703 26.7166 47.4255C26.0107 47.9678 25.4963 48.5102 25.014 49.1381C24.4995 49.7933 24.3387 51.0492 23.7614 51.3061C23.3434 51.5059 22.6039 51.3917 22.2824 51.1634C21.9608 50.935 21.8322 50.1929 21.8965 49.8789C21.9287 49.6791 22.0573 49.5377 22.2502 49.4235C22.5396 49.2523 23.5042 49.4806 23.7293 49.2523C23.9207 49.0525 23.6007 48.6814 23.7614 48.3104C24.1137 47.5682 26.0107 45.9426 26.7166 45.4003C27.0382 45.1434 27.1989 45.0007 27.5205 44.915C27.9706 44.8022 28.8066 44.7451 29.1603 44.915C29.4482 45.0578 29.6411 45.3717 29.6733 45.6857C29.7055 46.1138 29.3196 46.7703 28.9674 47.3399C28.4851 48.082 27.6169 49.0525 26.9417 49.7077C26.3966 50.2214 25.9464 50.621 25.3355 50.9921C24.6924 51.3917 23.8243 51.8199 23.1827 51.9626C22.7004 52.0754 22.1859 52.1325 21.8001 51.9626C21.3821 51.7913 20.8369 51.3061 20.7726 50.935C20.7405 50.564 21.0942 50.0502 21.4785 49.7648C21.9608 49.4235 22.9898 49.0525 23.5685 49.1666C24.0494 49.2523 24.5638 49.7362 24.6924 50.0502C24.821 50.3071 24.7246 50.6496 24.596 50.8779C24.4674 51.1063 24.1137 51.5059 23.8886 51.4488C23.5364 51.3632 22.7004 49.5092 22.9255 49.2523C23.0862 49.081 24.1137 49.3094 24.4031 49.5377C24.6281 49.7077 24.7246 50.0787 24.7246 50.3356C24.7246 50.5925 24.5638 50.9065 24.4031 51.1063C24.2744 51.2775 23.9207 51.4773 23.8886 51.4488C23.8564 51.4202 24.596 50.7067 24.596 50.7067C24.596 50.7067 24.3387 51.2204 24.0494 51.4202C23.6328 51.7057 22.7325 51.9626 22.1216 51.934C21.6072 51.9055 20.9012 51.7342 20.644 51.4202C20.3868 51.1063 20.3868 50.4498 20.644 50.0502C20.9334 49.5663 22.3467 49.4235 22.7004 48.9098C23.0219 48.4245 23.1184 47.6824 22.829 47.0843C22.4431 46.2566 20.6119 45.6286 19.808 44.7736C19.0685 43.9744 18.3304 42.8042 18.1054 42.0919C17.9767 41.6637 17.9446 41.3498 18.1054 41.0358C18.2983 40.6933 18.9077 40.3222 19.3257 40.208C19.6473 40.1224 19.9045 40.151 20.3225 40.2651C21.1249 40.4935 22.6361 41.3783 23.6328 42.1204C24.6603 42.8612 25.9464 44.06 26.3966 44.7165C26.6202 45.0292 26.6845 45.2576 26.6845 45.5144C26.6845 45.7713 26.5559 46.1138 26.3001 46.2851C25.9786 46.5134 25.432 46.6847 24.821 46.542C23.3434 46.228 19.3579 41.9492 18.1054 41.8064C17.6874 41.7494 17.3658 42.2631 17.1729 42.149C16.9478 42.0348 16.8835 41.207 17.0443 40.8645C17.2051 40.5791 17.6874 40.1795 17.9767 40.208C18.3304 40.2366 18.9077 40.9787 18.972 41.3498C19.0363 41.6923 18.7791 42.1204 18.5219 42.3488C18.2983 42.5758 17.9446 42.6614 17.5266 42.7471C16.9157 42.8898 16.0475 42.9754 15.2452 42.8612C14.3127 42.7185 13.3481 42.4331 12.2563 41.8064C10.4557 40.7789 7.43624 38.1257 6.05364 36.6142C5.18549 35.6437 4.60819 34.9029 4.2545 33.961C3.90082 33.0191 3.90082 31.8216 3.99728 30.9367C4.09374 30.2245 4.28666 29.5109 4.64035 28.9971C4.92827 28.569 5.28195 28.3121 5.7321 28.0267C6.27871 27.6854 6.98609 27.3715 7.75631 27.2002C8.65661 27.0004 9.94275 27.0004 10.9059 27.086C11.774 27.1717 12.4493 27.2573 13.3481 27.6569C14.7307 28.255 16.9157 29.6251 18.1054 30.8511C19.165 31.9358 19.808 33.276 20.3225 34.4462C20.8048 35.501 21.062 36.5 21.2213 37.5561C21.3821 38.6109 21.6072 40.0653 21.2535 40.7504C21.0299 41.1785 20.7083 41.4068 20.1296 41.6066C18.9077 42.0348 15.2773 42.0348 13.7661 41.9206C12.8994 41.8635 12.4171 41.7779 11.7419 41.5496C11.0024 41.2927 10.295 40.9787 9.58906 40.4364C8.65661 39.6956 7.56485 38.4682 6.95394 37.2992C6.34302 36.129 6.08579 34.6746 5.89287 33.4472C5.69995 32.3354 5.57134 30.9938 5.7321 30.2816C5.82856 29.9105 5.92502 29.6822 6.1501 29.4538C6.40733 29.1684 6.82532 28.8259 7.24332 28.7688C7.72416 28.7117 8.56015 29.0542 8.91384 29.3396C9.20322 29.5394 9.26753 29.7678 9.42829 30.1103C9.65337 30.6513 9.65337 31.5076 9.94275 32.2783C10.3271 33.2474 11.549 34.7317 11.6454 35.4439C11.7097 35.7865 11.6454 36.0434 11.4847 36.2432C11.2917 36.4715 10.8094 36.7284 10.4879 36.7569C10.2 36.7855 9.87844 36.6428 9.68552 36.5C9.46045 36.3573 9.39614 36.1575 9.23537 35.8436C8.91384 35.1598 8.36723 33.3616 8.20646 32.3639C8.07785 31.5932 8.04569 30.9653 8.17431 30.3386C8.30292 29.7107 8.528 28.8259 8.94599 28.5975C9.29968 28.3977 9.81414 28.5404 10.3914 28.7688C11.5168 29.1969 14.2162 31.1365 14.7307 31.9358C14.9558 32.2783 14.9558 32.5922 14.8593 32.8478C14.7628 33.1047 14.377 33.3901 14.0876 33.4472C13.7339 33.5043 13.1873 33.3616 12.8994 33.0476C12.4171 32.4495 12.4493 30.1959 12.5779 29.4253C12.6422 29.0542 12.7065 28.7688 12.9316 28.6261C13.1873 28.4548 13.6696 28.3406 14.0876 28.5119C14.9558 28.8829 16.0475 31.4791 16.9157 32.5637C17.5587 33.3331 18.6183 33.9325 18.7148 34.4748C18.7791 34.8173 18.5862 35.2727 18.3304 35.3869C18.0732 35.501 17.4623 35.3869 17.2372 35.1313C16.8835 34.7602 16.8192 33.3901 17.0121 32.9335C17.1407 32.6779 17.398 32.5066 17.623 32.4495C17.8803 32.3924 18.1697 32.421 18.4576 32.6208C19.2293 33.1618 20.8691 36.4144 21.1249 37.4134C21.2213 37.8403 21.2213 38.1542 21.0942 38.3826C20.9977 38.5538 20.8048 38.668 20.6119 38.7251C20.3868 38.7822 20.1617 38.7536 19.8402 38.6109C19.0363 38.2684 16.6263 36.5286 16.144 35.8436C15.9511 35.5581 15.8868 35.3298 15.9511 35.1313C16.0475 34.9029 16.4334 34.6175 16.6906 34.5604C16.8835 34.5033 17.1407 34.5604 17.3015 34.6746C17.5266 34.8173 17.623 35.1027 17.816 35.4439C18.1697 36.1004 19.0685 37.6119 19.1006 38.354C19.1328 38.7822 19.0042 39.2389 18.747 39.4101C18.5219 39.5528 18.041 39.5814 17.6874 39.3816C16.9157 38.982 15.2773 36.5857 15.213 35.7294C15.1808 35.3012 15.4059 34.8458 15.6953 34.7317C15.9511 34.6175 16.562 34.7317 16.8514 35.0171C17.4301 35.5867 17.6552 38.0686 17.5909 38.8678C17.5587 39.2389 17.5266 39.4672 17.3337 39.6385C17.1086 39.8097 16.6263 39.9524 16.2404 39.8097C15.3416 39.4387 13.3159 36.3002 13.1873 35.3298C13.123 34.9029 13.2838 34.4748 13.541 34.3606C13.7982 34.2464 14.377 34.3035 14.6664 34.5604C15.1487 34.9886 14.9558 36.443 15.2452 37.3849C15.5667 38.3826 16.4977 39.7812 16.562 40.4364C16.5941 40.7504 16.5941 40.9787 16.4334 41.1214C16.2726 41.2927 15.8546 41.4639 15.5345 41.3498C14.5699 41.0072 12.6422 36.5571 11.7097 35.3583C11.2596 34.8173 10.713 34.589 10.6165 34.2179C10.5522 33.9325 10.6808 33.5329 10.8737 33.4187C11.0667 33.3045 11.4203 33.276 11.6776 33.4472C12.3206 33.9039 13.3481 37.2422 13.3159 38.1257C13.3159 38.4682 13.1873 38.7251 12.9944 38.8678C12.8351 38.982 12.4493 38.982 12.2563 38.9249C12.0956 38.8678 11.967 38.7536 11.8383 38.5824C11.549 38.2113 11.3882 37.2992 11.0345 36.6713C10.6487 36.0148 9.62121 35.2441 9.4926 34.7317C9.42829 34.4462 9.4926 34.1037 9.65337 33.961C9.81414 33.8183 10.2321 33.7327 10.5201 33.8468C11.0667 34.1037 11.8705 35.8721 12.0634 36.4715C12.1599 36.7855 12.192 36.9853 12.0956 37.1851C11.9991 37.3849 11.6776 37.5561 11.4525 37.6119C11.2596 37.6405 11.0667 37.6119 10.8416 37.499C10.4557 37.2707 9.68552 36.5 9.65337 36.0434C9.62121 35.7008 9.94275 35.1884 10.2321 35.0742C10.4879 34.96 10.9702 35.0742 11.2596 35.3298C11.7419 35.7865 12.1277 37.5847 12.1277 38.2399C12.1277 38.5824 12.0313 38.8678 11.8705 39.0391C11.7097 39.1818 11.4525 39.296 11.2274 39.296C11.0024 39.296 10.7773 39.2674 10.5522 39.1247C10.1035 38.8393 9.65337 37.7832 9.13891 37.2992C8.72092 36.8996 7.94923 36.6713 7.82062 36.3002C7.72416 35.9577 7.94923 35.3583 8.20646 35.1884C8.46369 35.0456 8.91384 35.1027 9.33183 35.2727C10.0392 35.5581 11.4203 36.6713 11.7097 37.2992C11.8705 37.669 11.8383 38.1257 11.6776 38.354C11.5168 38.5538 11.0988 38.7251 10.8416 38.7251C10.6165 38.7251 10.3914 38.6966 10.1678 38.4968C9.65337 38.0686 8.84953 36.1004 8.75307 35.3583C8.72092 34.96 8.72092 34.6175 8.94599 34.4177C9.17107 34.2179 9.58906 34.0752 10.0392 34.2179C11.2596 34.589 14.6342 39.9524 15.5345 40.0368C15.7903 40.0653 16.0154 39.667 16.0475 39.6956C16.0797 39.7241 15.6953 40.3508 15.4381 40.4364C15.1808 40.522 14.795 40.3793 14.4735 40.208C14.0233 39.9524 13.1873 39.1532 13.1552 38.7251C13.123 38.4397 13.3481 38.1257 13.6375 37.983C14.0876 37.7832 15.1808 38.0401 15.9832 38.2399C16.9157 38.4682 18.4576 38.9249 18.9077 39.3816C19.165 39.6385 19.2293 40.0095 19.165 40.2651C19.1328 40.4935 18.972 40.6933 18.7148 40.836C18.1697 41.1214 16.6263 41.1785 15.6953 41.207C14.9236 41.207 14.1519 41.2356 13.5089 41.0072C12.8673 40.7789 12.2563 40.2937 11.774 39.8668C11.356 39.4958 11.0345 39.296 10.8094 38.6966C10.3271 37.4705 11.1953 33.1618 10.5201 32.4781C10.2643 32.2212 9.81414 32.4495 9.52475 32.3068C9.26753 32.1641 8.97814 31.9358 8.88168 31.6789C8.78522 31.3934 8.78522 30.9653 8.94599 30.7084C9.0746 30.4801 9.36399 30.3101 9.62121 30.253C9.9106 30.1959 10.295 30.1959 10.6808 30.423C11.5168 30.9082 12.6743 33.5329 13.4446 34.3035C13.8626 34.7031 14.377 34.7602 14.5699 35.0742C14.7307 35.3869 14.795 35.9292 14.6021 36.1861C14.4092 36.443 13.7339 36.7284 13.4124 36.5857C12.7708 36.3002 12.5779 33.6185 12.192 32.735C11.967 32.2212 11.8705 31.9358 11.5811 31.5932C11.2596 31.1936 10.4557 30.9082 10.2321 30.5371C10.1035 30.2816 10.0714 30.0247 10.1357 29.7963C10.2 29.568 10.3593 29.3111 10.5844 29.1969C10.8416 29.0542 11.2274 28.94 11.6776 29.0542C12.5457 29.254 14.1198 30.6228 15.1165 31.5076C16.0475 32.3354 16.9478 33.3331 17.5909 34.1894C18.1054 34.8744 18.7148 35.6152 18.747 36.2146C18.7791 36.6713 18.5219 37.2422 18.1697 37.4705C17.8481 37.669 17.2051 37.5847 16.7228 37.5276C16.2404 37.4705 15.6953 37.2992 15.3095 37.0424C14.9236 36.7855 14.6985 36.4144 14.4735 35.9577C14.1519 35.3583 13.6375 34.2179 13.7018 33.647C13.7339 33.3045 13.959 32.9905 14.2162 32.8193C14.4413 32.6779 14.7628 32.6208 15.0201 32.6779C15.3416 32.7635 15.8225 33.0762 15.9832 33.4472C16.2083 33.9325 16.144 34.9886 15.8868 35.4154C15.6953 35.7294 15.3095 35.9577 14.9879 35.9863C14.6342 36.0148 14.0876 35.7008 13.7982 35.4154C13.4767 35.1027 13.2195 34.4748 13.1873 34.1037C13.1552 33.8183 13.1873 33.5614 13.3481 33.3616C13.541 33.1333 13.9912 32.8478 14.3127 32.8478C14.6342 32.8478 15.0201 32.962 15.3095 33.276C15.8546 33.8754 15.631 35.7008 16.4012 36.8426C17.3658 38.3255 19.5186 39.353 21.2856 41.0929C23.7614 43.5177 27.9063 48.1106 29.4804 50.3356C30.2842 51.4773 30.9916 52.475 31.0237 53.103C31.0237 53.417 30.8951 53.6168 30.7022 53.788C30.4771 53.9593 29.9627 54.102 29.6411 54.0735C29.3839 54.0449 29.1925 53.9307 28.9352 53.7024C28.2279 53.0744 26.7166 50.4783 26.1072 49.3379C25.7535 48.6529 25.432 48.082 25.3677 47.6539C25.3355 47.397 25.3677 47.1985 25.4641 46.9987C25.5606 46.7989 25.8178 46.5705 26.0429 46.4849C26.268 46.3993 26.6202 46.3422 26.8774 46.4564C27.1989 46.5991 27.2954 47.2257 27.6491 47.397C27.9706 47.5682 28.4208 47.3399 28.8709 47.4826C29.6411 47.7395 31.7311 48.8812 31.699 49.2523C31.6668 49.4806 31.0237 49.7077 30.5093 49.6791C29.5125 49.5948 26.9096 48.0249 26.3323 47.3114C26.075 46.9701 26.0107 46.6276 26.075 46.3707C26.1393 46.1424 26.3001 45.8855 26.5559 45.7713C26.8774 45.6286 27.3597 45.5715 27.8742 45.7713C28.9995 46.1709 31.9226 48.7956 32.3406 49.622C32.5013 49.936 32.4692 50.1358 32.3727 50.3642C32.2441 50.621 31.8597 50.935 31.5704 51.0206C31.3131 51.1063 31.0237 51.0492 30.7344 50.935C30.3164 50.7923 29.4804 50.4212 29.4161 50.0787C29.3196 49.7077 29.9948 48.7385 30.3485 48.7385C30.8308 48.7385 32.2763 50.8779 32.0512 51.1919C31.8919 51.4202 30.4128 51.2775 30.3807 51.1348C30.3485 51.0206 30.9273 50.5925 31.2488 50.621C31.7311 50.6781 32.63 51.7342 32.8229 52.1896C32.9515 52.4465 32.9193 52.7034 32.8229 52.9032C32.7264 53.103 32.5335 53.3599 32.2763 53.4455C31.9547 53.5597 31.4096 53.5311 30.9916 53.3028C30.1878 52.8746 28.8388 50.7923 28.5815 50.0787C28.4851 49.7933 28.4851 49.5948 28.5494 49.395C28.6137 49.1952 28.8388 48.9668 29.0638 48.8812C29.3196 48.767 29.6733 48.7385 30.0591 48.8527C30.7987 49.081 32.5978 50.3071 32.9193 50.9636C33.1123 51.3346 33.048 51.8484 32.8229 52.0754C32.5978 52.3038 31.8919 52.418 31.6025 52.3609C31.4096 52.3323 31.281 52.2467 31.1845 52.104C31.0237 51.8769 31.2167 51.2204 31.0881 50.9065C30.9916 50.6781 30.6701 50.5925 30.6701 50.3927C30.6379 50.1073 30.9916 49.5377 31.3131 49.395C31.6347 49.2523 32.1477 49.3665 32.5657 49.5663C33.1444 49.8504 33.9804 50.8494 34.2055 51.3346C34.3341 51.5915 34.3341 51.8199 34.2698 52.0197C34.2055 52.2467 34.0126 52.5036 33.7875 52.6178C33.5946 52.7319 33.273 52.8176 33.0158 52.7605C32.7264 52.7034 32.1798 52.418 32.1798 52.1896C32.1798 51.934 33.0801 51.249 33.4016 51.249C33.6267 51.249 33.9161 51.4773 33.9804 51.6771C34.0769 51.9055 33.8839 52.3894 33.691 52.5892C33.5303 52.7605 33.1766 52.8746 32.9193 52.9032C32.6621 52.9317 32.437 52.8746 32.1477 52.7034C31.4096 52.2752 29.5125 50.1073 29.2232 49.395C29.096 49.1096 29.1282 48.9098 29.2232 48.71C29.3518 48.4816 29.6733 48.1962 29.9627 48.1391C30.2521 48.082 30.7344 48.1391 30.9594 48.3389C31.2167 48.5672 30.9916 49.1381 31.1845 49.5948C31.4417 50.2785 32.6943 51.3632 32.6621 51.934C32.6621 52.2752 32.3727 52.5607 32.1155 52.7034C31.8597 52.8461 31.4739 52.8461 31.1202 52.7605C30.6058 52.6178 29.4482 51.9055 29.4161 51.5344C29.3839 51.2775 29.8019 50.9065 30.1234 50.8494C30.4771 50.7638 31.281 51.0206 31.506 51.2775C31.699 51.5059 31.7311 51.9626 31.6347 52.2182C31.5382 52.475 31.1845 52.7605 30.863 52.8461C30.5093 52.9317 29.8662 52.8461 29.5768 52.6463C29.3196 52.475 29.1282 52.0754 29.1603 51.7913C29.2232 51.4773 29.609 51.0777 29.9948 50.9065C30.4771 50.7067 31.4417 50.7067 31.8919 50.935C32.2763 51.1063 32.6621 51.6201 32.6621 51.934C32.6621 52.2467 32.1477 52.789 31.7954 52.8746C31.506 52.9603 30.9916 52.8176 30.7665 52.6178C30.5414 52.418 30.3485 51.9911 30.4128 51.7057C30.4771 51.4202 30.7665 51.0492 31.0559 50.9636C31.4096 50.8494 32.1477 50.9921 32.4049 51.2204C32.63 51.4202 32.7264 51.8769 32.63 52.1611C32.5335 52.418 32.2441 52.7034 31.8919 52.8461C31.4417 53.0174 30.5414 53.0459 30.0591 52.8746C29.6733 52.7319 29.2232 52.3323 29.1603 52.0197C29.096 51.7342 29.2553 51.3346 29.5125 51.1348C29.8019 50.935 30.4771 50.8494 30.8308 50.9065C31.1202 50.9636 31.3774 51.0777 31.506 51.2775C31.6668 51.5059 31.7633 51.9626 31.6347 52.2182C31.506 52.5036 30.9916 52.8461 30.6058 52.8746C30.1556 52.9032 29.4482 52.475 29.0638 52.1896C28.7745 51.9626 28.5172 51.7057 28.4208 51.3917C28.2922 51.0206 28.26 50.2785 28.5494 50.0216C28.8709 49.7362 29.8019 49.6791 30.4128 49.8218C31.1202 49.9931 32.1155 50.7638 32.4049 51.2775C32.63 51.6486 32.63 52.1325 32.5013 52.3894C32.4049 52.5892 32.1155 52.7605 31.8919 52.8176C31.6668 52.8746 31.3774 52.8746 31.1202 52.7605C30.6701 52.5607 30.0591 51.8199 29.7376 51.2204C29.3839 50.564 28.9995 49.4806 29.1603 48.9383C29.2553 48.5672 29.6411 48.2247 29.9627 48.1391C30.2842 48.0535 30.7344 48.1962 31.1524 48.4531C31.9547 48.9383 33.5946 50.7352 33.9161 51.4202C34.0447 51.7342 34.0447 51.934 33.9804 52.1611C33.9161 52.3894 33.691 52.6463 33.466 52.7605C33.2409 52.8746 32.9193 52.9317 32.6621 52.9032C32.4049 52.8746 32.1155 52.7319 31.9226 52.5321C31.6668 52.2467 31.3774 51.5344 31.4739 51.1348C31.5704 50.7638 32.0834 50.3356 32.437 50.25C32.7586 50.1644 33.2409 50.3642 33.5303 50.564C33.8518 50.7923 34.2698 51.2204 34.3019 51.563C34.3341 51.9055 34.0447 52.418 33.7875 52.6178C33.5946 52.7605 33.273 52.789 33.0158 52.7605C32.7586 52.7319 32.5657 52.5892 32.3084 52.3894C31.8276 52.0197 30.7665 50.9065 30.6701 50.3927C30.6058 50.1073 30.7344 49.8789 30.8951 49.7077C31.0559 49.5377 31.3131 49.3379 31.5704 49.3094C31.8919 49.2808 32.4692 49.4521 32.7264 49.7362C33.048 50.0787 33.1766 50.9636 33.0801 51.4202C32.9836 51.7913 32.6943 52.1896 32.4049 52.3323C32.1155 52.4465 31.7633 52.3894 31.3774 52.2467C30.6701 51.9911 29.096 50.8779 28.7102 50.2785C28.5172 49.9646 28.4851 49.622 28.5494 49.395C28.6137 49.1952 28.8388 48.9668 29.0638 48.8812C29.3518 48.767 29.8662 48.767 30.2842 48.9954C31.0881 49.4235 32.5657 51.4773 32.8229 52.1896C32.9193 52.5036 32.9193 52.7034 32.8229 52.9032C32.7264 53.103 32.5013 53.3313 32.2763 53.4455C32.0512 53.5597 31.7311 53.5882 31.4739 53.5311C31.2488 53.474 31.0559 53.3599 30.8308 53.1886C30.445 52.8746 29.7376 52.1896 29.5447 51.6201C29.3518 51.0492 29.3518 49.9931 29.7055 49.7362C30.027 49.5092 31.0881 49.7648 31.506 50.0216C31.8597 50.25 32.0512 50.6496 32.1477 51.0492C32.2441 51.4773 32.3084 52.3038 32.019 52.5036C31.699 52.7319 30.6379 52.475 30.0591 52.104C29.2553 51.563 28.0028 49.7933 28.1314 49.0525C28.2279 48.5387 28.9352 47.9108 29.5125 47.8822C30.2842 47.8251 32.0834 49.0239 32.3406 49.622C32.5013 49.9931 32.2763 50.5354 32.0512 50.7638C31.8597 50.9636 31.5382 51.0492 31.281 51.0492C31.0237 51.0492 30.8308 50.9921 30.5093 50.8208C29.609 50.3356 26.6202 47.9393 26.1715 47.1128C26.0107 46.7989 25.9786 46.5991 26.075 46.3707C26.1715 46.1138 26.493 45.7428 26.8131 45.6572C27.1989 45.543 27.7134 45.7142 28.26 45.9711C29.2875 46.4564 31.506 48.0535 32.019 49.0525C32.3406 49.6791 32.4049 50.6781 32.0512 50.935C31.699 51.1919 30.7344 50.9065 29.9627 50.6496C28.8388 50.2785 26.8453 49.081 26.1072 48.4245C25.7213 48.082 25.432 47.768 25.3677 47.4826C25.3355 47.3114 25.3677 47.1414 25.4641 46.9987C25.6249 46.7989 26.0107 46.4849 26.3323 46.4278C26.6523 46.3707 27.0703 46.4849 27.3276 46.7132C27.6812 47.0272 27.6812 47.6824 28.0349 48.3389C28.6459 49.4521 30.6058 51.7342 30.9273 52.5892C31.0559 52.9317 31.0559 53.103 30.9916 53.3313C30.9273 53.5597 30.7022 53.8166 30.4771 53.9307C30.2521 54.0449 29.8984 54.102 29.6411 54.0735C29.3518 54.0164 29.1282 53.9022 28.8388 53.6453C28.2922 53.1601 27.9385 52.0754 27.1025 50.9636C25.5927 48.9668 22.411 45.2005 20.1617 42.8327C18.2661 40.8645 15.726 39.3816 14.6021 37.6405C13.7339 36.3002 12.9637 34.3606 13.2516 33.5899C13.4124 33.1903 13.959 32.8764 14.3127 32.8478C14.6342 32.8193 15.0522 33.0191 15.3095 33.276C15.6631 33.6185 16.0154 34.5319 16.0154 34.96C16.0154 35.2441 15.8868 35.4725 15.726 35.6437C15.5667 35.815 15.2773 35.9863 14.9879 35.9863C14.6342 35.9863 14.0233 35.7579 13.7982 35.4154C13.5089 34.9886 13.541 33.9039 13.7661 33.4187C13.959 33.0476 14.377 32.6779 14.7307 32.6493C15.0844 32.6208 15.5667 32.8764 15.8868 33.2189C16.4012 33.7327 17.0443 35.0742 17.0443 35.7294C17.0443 36.1575 16.8514 36.7284 16.5941 36.7569C16.0797 36.814 14.795 34.0466 13.8304 33.1618C13.0587 32.4781 12.0956 32.1356 11.4525 31.6218C10.9059 31.1936 10.2643 30.7369 10.1357 30.3101C10.0392 29.9961 10.1678 29.5965 10.3914 29.3682C10.6165 29.1398 11.0024 28.9686 11.3882 28.9971C11.9348 29.0542 12.7386 29.568 13.2516 30.1674C14.0233 31.0509 14.6985 33.276 14.8915 34.2464C14.9879 34.7602 15.0522 35.4154 14.8915 35.4725C14.7307 35.5296 13.8947 34.7031 13.9269 34.6746C13.9269 34.646 14.4413 34.9029 14.5699 35.0742C14.7307 35.2441 14.8593 35.5296 14.795 35.7579C14.7307 36.0434 14.3449 36.5286 13.959 36.5857C13.4767 36.6713 12.7386 36.3002 12.0956 35.8436C11.0345 35.0742 9.17107 32.6208 8.88168 31.6789C8.75307 31.2793 8.78522 30.9653 8.94599 30.7084C9.10676 30.4801 9.4926 30.2245 9.87844 30.2245C10.4879 30.2245 11.774 30.9082 12.2242 31.3649C12.5136 31.6503 12.5779 31.9072 12.6743 32.3354C12.8673 33.1618 12.6743 34.9029 12.8029 35.9577C12.8994 36.7569 12.8994 37.5561 13.2838 38.0972C13.6375 38.5824 14.2484 38.9249 14.9558 39.1247C15.8868 39.3816 17.7517 38.8393 18.4576 39.0962C18.8434 39.2389 19.1006 39.5243 19.165 39.7812C19.2293 40.0368 19.1006 40.4935 18.9077 40.6933C18.747 40.8645 18.4897 40.9502 18.234 41.0072C17.9446 41.0643 17.7195 41.0358 17.3015 40.9216C16.3048 40.6933 13.3481 39.6099 12.5136 39.0105C12.1277 38.7536 11.9348 38.5538 11.8705 38.2399C11.774 37.8688 11.9348 37.1565 12.2242 36.9567C12.5136 36.7569 13.0909 36.814 13.5089 36.9853C14.0876 37.1851 14.7628 37.9544 15.213 38.4397C15.5667 38.8393 16.0797 39.3245 16.0475 39.6956C16.0475 39.981 15.6953 40.3508 15.4381 40.4364C15.1808 40.522 14.6664 40.3793 14.4735 40.208C14.3127 40.0368 14.2484 39.7241 14.2805 39.4958C14.3127 39.2103 14.5699 38.6966 14.8272 38.668C15.1487 38.6395 15.9832 39.3245 16.0475 39.667C16.0797 39.9524 15.726 40.4935 15.4059 40.5791C14.9879 40.6933 14.2162 40.208 13.5089 39.7526C12.2242 38.8964 9.0746 36.3288 8.75307 35.3583C8.62446 34.96 8.72092 34.6175 8.94599 34.4177C9.17107 34.2179 9.68552 34.0752 10.0392 34.2179C10.713 34.5033 11.6776 36.7569 11.8062 37.499C11.8705 37.8688 11.8383 38.1542 11.6776 38.354C11.5168 38.5538 11.0988 38.7251 10.8416 38.7251C10.6165 38.7251 10.4236 38.668 10.1678 38.4968C9.58906 38.1542 7.98139 36.9567 7.82062 36.3002C7.72416 35.9006 7.91708 35.3583 8.20646 35.1884C8.49584 35.0171 9.13891 35.1313 9.58906 35.3583C10.2643 35.6723 11.1953 36.814 11.6133 37.3563C11.8705 37.6975 12.0956 37.9544 12.1277 38.2399C12.1599 38.4968 12.0313 38.8678 11.8705 39.0391C11.7097 39.1818 11.4525 39.296 11.2274 39.296C11.0024 39.296 10.7451 39.2674 10.5522 39.1247C10.2643 38.8678 10.1035 38.1542 9.94275 37.6405C9.78198 37.0709 9.4926 36.3002 9.62121 35.8436C9.71767 35.501 9.9749 35.1598 10.2321 35.0742C10.5201 34.9886 10.9702 35.1027 11.2596 35.3298C11.6776 35.6437 12.2563 36.6142 12.1599 37.0138C12.0956 37.2992 11.7097 37.5847 11.4525 37.6119C11.1953 37.6405 10.8094 37.499 10.5522 37.2422C10.0714 36.7855 9.42829 35.1313 9.42829 34.5604C9.42829 34.3035 9.4926 34.0752 9.65337 33.961C9.84629 33.8183 10.2321 33.7612 10.5201 33.8468C10.9059 33.9896 11.2274 34.5033 11.5811 35.0171C12.1277 35.7579 13.1552 37.2422 13.2516 37.9544C13.2838 38.3255 13.1873 38.7251 12.9944 38.8678C12.8351 38.982 12.4493 38.982 12.2563 38.9249C12.0956 38.8678 11.967 38.7822 11.8383 38.5824C11.4847 38.0686 11.0024 36.3288 10.8094 35.4439C10.6487 34.8173 10.4557 34.1323 10.5844 33.7898C10.6487 33.5899 10.8416 33.4187 11.0345 33.3616C11.2274 33.3045 11.4203 33.3045 11.6776 33.4472C12.6743 34.0181 16.4655 39.2103 16.562 40.4364C16.5941 40.8645 16.3369 41.207 16.1118 41.3212C15.9189 41.4354 15.5667 41.3783 15.3738 41.2927C15.213 41.207 15.1165 41.0929 14.9879 40.8931C14.6342 40.3508 14.0555 38.8107 13.7339 37.7546C13.4446 36.7569 12.9637 35.3298 13.1552 34.7888C13.2516 34.5319 13.5089 34.3606 13.7339 34.3035C13.9912 34.2464 14.3127 34.3321 14.6664 34.5604C15.4702 35.1313 17.4623 38.0115 17.5909 38.8678C17.6552 39.2103 17.5266 39.4672 17.3337 39.6385C17.1086 39.8097 16.5298 39.8954 16.2404 39.8097C16.0154 39.7526 15.8868 39.6099 15.7581 39.3816C15.5024 38.9534 15.3738 37.8403 15.2773 37.128C15.1808 36.5 14.9879 35.7579 15.1808 35.3298C15.3095 35.0171 15.631 34.7317 15.9189 34.6746C16.2083 34.6175 16.5298 34.7602 16.8514 35.0171C17.5587 35.5581 19.0685 37.7261 19.1328 38.5253C19.165 38.8964 19.0042 39.2674 18.747 39.4101C18.5219 39.5528 18.0089 39.5814 17.6874 39.3816C17.0121 38.9534 16.0154 36.2717 15.9511 35.501C15.9189 35.1884 16.0154 34.9886 16.144 34.8173C16.2726 34.6746 16.4655 34.5604 16.6906 34.5604C17.0443 34.5604 17.4944 34.8744 18.0089 35.1884C18.8756 35.7294 21.0299 37.1565 21.157 37.8403C21.2213 38.1828 20.8691 38.6395 20.6119 38.7251C20.3546 38.8107 19.8402 38.6109 19.583 38.354C19.2614 38.0401 19.4222 37.3563 19.1328 36.7284C18.7148 35.7865 16.98 34.0752 16.9478 33.3331C16.9478 32.962 17.1729 32.6208 17.4301 32.5066C17.6874 32.3924 18.234 32.421 18.4576 32.6208C18.8113 32.9335 18.9077 34.3321 18.7791 34.8173C18.7148 35.0742 18.5219 35.3012 18.3304 35.3869C18.1054 35.4725 17.8481 35.5296 17.5266 35.3869C16.4655 34.9315 12.6743 30.5657 12.5779 29.4253C12.5457 28.9971 12.8351 28.6546 13.123 28.5119C13.4124 28.3692 14.0233 28.5119 14.2805 28.6546C14.4735 28.7688 14.5378 28.94 14.6342 29.2255C14.8593 29.882 15.213 31.9072 14.9236 32.6208C14.7628 33.0191 14.4092 33.3616 14.0876 33.4472C13.7982 33.5329 13.4767 33.4187 13.0909 33.2189C12.2563 32.8193 9.84629 31.3363 9.68552 30.5942C9.58906 30.1674 10.2643 29.3682 10.4236 29.3967C10.6487 29.4538 10.295 31.2793 10.4879 32.1356C10.6487 32.9049 11.2596 33.647 11.4525 34.3035C11.6133 34.8173 11.774 35.3583 11.6776 35.7579C11.5811 36.1004 11.3239 36.4715 11.0667 36.6142C10.8416 36.7569 10.4557 36.7855 10.2 36.7284C9.94275 36.6713 9.71767 36.5857 9.46045 36.3288C8.84953 35.7294 7.65985 33.6756 7.30762 32.5637C7.0504 31.793 6.79317 30.6799 7.08255 30.4515C7.30762 30.2816 8.11 30.423 8.33507 30.6799C8.65661 31.0224 8.23861 31.9643 8.33507 32.735C8.46369 33.7041 8.88168 35.3012 9.23537 36.0434C9.42829 36.4715 9.58906 36.6142 9.84629 36.9567C10.2 37.4134 10.6808 38.1257 11.2596 38.5538C11.8383 38.982 12.4493 39.2674 13.3159 39.4672C14.6664 39.7812 17.9767 40.4935 18.7148 39.8097C19.3579 39.1818 18.4254 37.0994 18.041 35.9292C17.7195 34.8744 17.4623 33.9896 16.6906 33.0762C15.6631 31.8787 13.5732 30.2245 11.9348 29.6822C10.5844 29.254 8.68876 29.254 7.82062 29.568C7.30762 29.7678 7.01824 30.1388 6.79317 30.5657C6.53594 31.0509 6.40733 31.7645 6.53594 32.421C6.72886 33.276 7.40408 34.3606 8.20646 35.2441C9.13891 36.3002 11.131 37.3849 11.9991 38.2399C12.5136 38.7536 12.61 39.2674 13.123 39.6385C13.6696 40.0653 14.6664 40.4649 15.2452 40.5791C15.631 40.6647 15.9189 40.4364 16.2404 40.5791C16.7228 40.836 17.7195 42.206 17.5587 42.4902C17.4301 42.7185 16.4334 42.6614 16.0475 42.5187C15.6953 42.4058 15.3738 42.1204 15.2452 41.835C15.0844 41.4925 15.0201 40.8645 15.3095 40.522C15.6631 40.0939 17.0443 39.8668 17.6874 39.7812C18.1054 39.7241 18.234 39.6956 18.7148 39.8383C20.1296 40.2937 25.5606 43.689 26.3966 44.7165C26.6523 45.0292 26.6845 45.2576 26.6845 45.5144C26.6845 45.7713 26.493 46.1138 26.3001 46.2851C26.1072 46.4849 25.7213 46.6276 25.432 46.6276C25.1426 46.6276 24.8532 46.5705 24.5317 46.3707C23.9529 46.0282 23.4078 44.9721 22.6682 44.3455C21.8644 43.6604 20.0653 43.0325 19.9045 42.4058C19.808 42.0062 20.2903 41.207 20.5797 41.207C20.9977 41.207 21.4785 42.9183 22.1859 43.6604C22.9576 44.4882 24.5638 45.1148 25.0783 45.857C25.432 46.3707 25.432 46.8274 25.4963 47.3684C25.5606 47.9393 25.4963 48.6529 25.3677 49.1666C25.2712 49.5948 25.1426 49.9075 24.8532 50.25C24.4352 50.7352 23.4721 51.4202 22.8611 51.6771C22.4431 51.8484 22.0895 51.9626 21.7358 51.934C21.4142 51.9055 21.062 51.7913 20.8369 51.6201C20.6119 51.4488 20.4511 51.1348 20.4189 50.8779C20.3868 50.621 20.4511 50.2785 20.644 50.0502C20.8691 49.7933 21.4464 49.4806 21.7358 49.5377C21.9608 49.5663 22.0573 50.0502 22.2181 50.0502C22.4431 50.0502 22.6361 49.395 22.9255 49.2523C23.1827 49.1381 23.6007 49.1666 23.8564 49.2237C24.0815 49.2808 24.2744 49.395 24.4031 49.5377C24.5638 49.7362 24.7567 50.0502 24.7246 50.3356C24.6603 50.6781 24.1458 51.4773 23.8886 51.4488C23.5364 51.4202 22.7004 49.5377 22.9255 49.2523C23.0541 49.081 23.6007 49.1381 23.8886 49.2237C24.178 49.3094 24.4674 49.5663 24.596 49.7933C24.7246 50.0216 24.7889 50.3642 24.7246 50.621C24.6603 50.8779 24.4674 51.1063 24.178 51.3061C23.6971 51.6201 22.3788 52.0754 21.8001 51.9626C21.3821 51.8769 20.9977 51.5344 20.8691 51.2204C20.7405 50.9065 20.7405 50.4498 20.9977 50.1358C21.4464 49.622 23.1505 49.622 24.1137 48.9954C25.2712 48.2247 26.5559 45.4574 27.1989 45.4859C27.5205 45.5144 27.5848 46.2566 27.8742 46.4849C28.1314 46.6847 28.7102 46.6562 28.7423 46.8845C28.8066 47.3114 26.8453 48.396 26.2358 49.1096C25.7535 49.6506 25.5606 50.2785 25.1747 50.6781C24.8532 50.9921 24.5638 51.249 24.178 51.3632C23.7614 51.5059 22.6682 51.3917 22.6682 51.3632C22.6682 51.3346 24.0172 51.1063 24.0172 51.1348C24.0172 51.1348 23.1827 51.5059 22.829 51.4202C22.4753 51.3346 22.0252 50.9921 21.8965 50.7067C21.7679 50.4498 21.8322 50.1929 21.8965 49.8789C21.993 49.4521 22.1859 48.9098 22.5075 48.396C22.9255 47.6824 23.5685 46.856 24.4031 46.1424C25.4963 45.2005 27.3597 44.4882 28.7745 43.4321C30.3485 42.2917 32.0834 40.3508 33.3695 39.4958C34.1733 38.9534 34.6542 38.6395 35.5223 38.3826C36.6155 38.0401 38.6076 37.6119 39.4436 37.8688C39.958 38.0115 40.3424 38.4682 40.4389 38.8107C40.5032 39.1247 40.2781 39.5814 40.053 39.8097C39.8294 40.0095 39.4757 40.0939 39.0899 40.151C38.5111 40.208 37.3536 40.151 36.9049 39.8954C36.5834 39.6956 36.4226 39.3816 36.3583 39.0676C36.294 38.7536 36.3583 38.2684 36.5834 38.0115C36.8085 37.7832 37.2908 37.5847 37.643 37.6119C37.9645 37.6405 38.4468 37.8688 38.6076 38.1542C38.7684 38.4682 38.704 39.0962 38.479 39.4101C38.2539 39.7241 37.643 40.0368 37.1621 40.0653C36.6798 40.1224 35.9403 39.9239 35.5866 39.6099C35.2651 39.3245 35.1043 38.6966 35.1043 38.297C35.1043 37.983 35.2651 37.669 35.458 37.4134C35.6188 37.1565 35.876 36.9282 36.1654 36.7855C36.4869 36.6428 36.9692 36.5571 37.3229 36.6142C37.6751 36.6713 38.1253 36.9567 38.3182 37.2136C38.5111 37.442 38.6076 37.8117 38.5754 38.0972C38.5433 38.4111 38.3182 38.7536 38.1253 39.0391C37.9324 39.296 37.7394 39.5528 37.4501 39.6956C37.13 39.8668 36.2618 40.0653 36.1975 39.981C36.1332 39.8954 37.0335 39.2389 37.0335 39.2389C37.0335 39.2389 36.5512 39.8097 36.2618 39.8954C35.9403 39.981 35.4259 39.9239 35.2008 39.7241C34.9114 39.4958 34.7506 38.8678 34.8471 38.4111C34.9757 37.8403 35.7795 37.0424 36.2618 36.6998C36.5834 36.4715 36.9049 36.3002 37.2586 36.2717C37.6108 36.2432 38.1253 36.3002 38.3504 36.5286C38.6397 36.7855 38.7362 37.3849 38.6397 37.8688C38.5111 38.4968 37.6751 39.3816 37.2264 39.9239C36.9049 40.3222 36.6155 40.6647 36.2618 40.8645C35.9725 41.0358 35.6831 41.207 35.3294 41.1785C34.8792 41.15 34.109 40.8074 33.8839 40.4649C33.691 40.1795 33.7553 39.7526 33.8839 39.4101C34.0126 39.0391 34.4306 38.354 34.7828 38.3255C35.2008 38.297 36.2297 39.1818 36.2297 39.5243C36.2297 39.8097 35.7152 40.0653 35.3294 40.2651C34.8471 40.4935 34.0126 40.836 33.5624 40.7504C33.2087 40.6933 32.855 40.3793 32.7586 40.0939C32.63 39.7526 32.8229 38.982 33.0801 38.6966C33.3052 38.4682 33.7232 38.354 34.0447 38.354C34.3984 38.354 34.8792 38.4111 35.1365 38.668C35.4902 39.0391 35.7474 40.0653 35.4259 40.6933C35.0079 41.5781 32.6621 42.2917 31.7311 43.0896C31.0559 43.6604 30.7022 44.3455 30.1878 44.8294C29.7698 45.2005 28.9995 45.7999 28.9674 45.7713C28.9352 45.7428 29.5768 45.0292 29.5447 45.0007C29.5125 44.9721 28.7423 46.0853 28.2922 46.1424C27.9385 46.1995 27.3919 45.914 27.1668 45.6572C26.9417 45.4003 26.8131 44.9436 26.9739 44.5738C27.3276 43.8602 29.7698 42.5758 30.6379 42.206C31.0559 42.0348 31.281 41.9492 31.6347 41.9492C32.0834 41.9492 33.048 41.9777 33.1123 42.2346C33.2409 42.6329 30.7344 44.7451 30.2842 44.6309C30.027 44.5453 29.9305 43.4321 30.027 43.4036C30.1234 43.375 30.9916 44.2313 30.8951 44.4026C30.7987 44.5453 29.7376 44.6024 29.6733 44.4311C29.5125 44.06 33.466 41.2927 34.8149 40.522C35.5866 40.0653 36.0689 39.8668 36.7763 39.6956C37.5465 39.5243 38.479 39.667 39.2828 39.5528C40.0223 39.4387 40.5996 39.4387 41.3713 39.0105C42.7525 38.2684 44.5852 35.7579 46.1914 34.4177C47.6383 33.2189 49.5661 31.4505 50.5307 31.2507C50.9151 31.1651 51.2366 31.3363 51.4617 31.4505C51.6546 31.5647 51.8475 31.7074 51.9118 31.9072C52.0083 32.2212 51.9761 32.8764 51.6867 33.2474C51.3009 33.7327 50.177 33.7327 49.4375 34.275C48.4086 34.9886 47.4133 36.6142 46.3522 37.499C45.4519 38.2684 44.5531 39.1247 43.6206 39.3816C42.8489 39.6099 41.8536 39.4672 41.307 39.296C40.9533 39.1818 40.6961 39.0391 40.5032 38.7822C40.246 38.4397 40.0852 37.7546 40.0852 37.3278C40.0852 37.0138 40.1495 36.7284 40.2781 36.4715C40.4389 36.1861 40.6961 35.8721 40.9855 35.7294C41.2749 35.5867 41.725 35.5296 42.0787 35.5867C42.4645 35.6723 42.9775 35.9292 43.2026 36.2146C43.4277 36.443 43.492 36.7569 43.5241 37.0709C43.5563 37.3849 43.4598 37.8117 43.2991 38.0972C43.1383 38.3826 42.8811 38.6395 42.4967 38.8393C41.9822 39.1247 40.9533 39.4101 40.2781 39.353C39.6365 39.296 38.8005 38.9534 38.4468 38.4968C38.061 38.0401 38.061 37.1851 38.1253 36.5571C38.1896 35.9292 38.3825 35.4154 38.9291 34.6746C40.0852 33.1333 45.0032 28.3692 46.095 28.569C46.5773 28.6546 46.4165 29.882 46.8023 30.0818C47.0917 30.253 47.8956 29.882 47.9277 29.9961C47.992 30.1674 45.6448 31.1365 45.0675 31.7074C44.7138 32.0499 44.8103 32.3354 44.4566 32.735C43.8135 33.4758 41.7893 35.0171 40.9855 35.5867C40.5996 35.8721 40.471 36.0148 40.0852 36.1575C39.54 36.3288 38.704 36.443 37.9967 36.3573C37.1621 36.2432 35.876 35.8721 35.3937 35.4439C35.0722 35.1598 35.0079 34.7317 34.9435 34.3892C34.9114 34.0466 34.9435 33.7327 35.0722 33.3901C35.2008 33.0191 35.3937 32.7635 35.7795 32.2497C36.7763 30.9938 40.4067 27.3715 41.7893 26.1441C42.4324 25.546 42.7846 25.1179 43.3312 24.9181C43.7492 24.7468 44.6174 24.8324 44.6174 24.8324C44.6174 24.8324 43.2669 24.9181 43.2669 24.861C43.2669 24.8324 43.6528 24.6612 43.91 24.6897C44.2958 24.7183 45.0354 25.0608 45.2283 25.4033C45.389 25.6874 45.3569 26.1441 45.1318 26.5152C44.7138 27.1717 42.7846 27.8567 42.1109 28.5404C41.6286 29.0542 41.6286 29.7963 41.1784 30.0818C40.7926 30.3386 40.0852 30.5086 39.7008 30.3672C39.315 30.2245 38.897 29.6822 38.8648 29.254C38.8327 28.6546 39.7651 27.6569 40.1816 27.1431C40.4389 26.8291 40.8569 26.3725 40.9212 26.401C40.9855 26.4295 40.5353 27.4856 40.5032 27.4856C40.471 27.4856 40.5032 26.6864 40.6639 26.4581C40.7926 26.2868 40.9533 26.1441 41.1784 26.1156C41.5321 26.0585 42.3681 26.1727 42.6575 26.4295C42.9132 26.6579 43.0097 27.2288 42.9775 27.5142C42.9454 27.714 42.8489 27.8567 42.6896 27.9994C42.4324 28.2265 41.725 28.255 41.3713 28.569C40.9533 28.94 40.9533 29.6822 40.4389 30.2816C39.7008 31.1365 37.9002 32.5066 37.0335 33.0191C36.5512 33.276 36.1654 33.1903 35.8438 33.4758C35.4259 33.8183 35.2651 35.0456 34.8471 35.1313C34.4949 35.2169 33.8196 34.7888 33.6589 34.4748C33.4981 34.1894 33.5303 33.7327 33.7553 33.4472C34.109 33.0191 35.5866 32.5922 36.2618 32.5922C36.712 32.5922 37.13 32.6779 37.3536 32.9335C37.643 33.2189 37.5787 33.9039 37.5787 34.4177C37.5787 35.0171 37.4822 35.7008 37.2586 36.3002C37.0657 36.8996 36.7763 37.5276 36.3261 38.0115C35.876 38.4968 35.1043 39.2389 34.5913 39.2389C34.1733 39.2389 33.466 38.5538 33.4981 38.4968C33.5303 38.4397 35.1043 38.9534 35.1043 39.0962C35.1043 39.2103 34.1733 39.4387 33.8196 39.3245C33.4338 39.2103 33.1444 38.6966 32.9193 38.3255C32.7264 37.983 32.5657 37.6405 32.5335 37.2136C32.4692 36.6428 32.6621 35.7008 32.8872 35.1313C33.048 34.6746 33.2409 34.2464 33.5624 33.961C33.8518 33.7041 34.2376 33.5329 34.6235 33.5043C35.0079 33.4758 35.6188 33.5329 35.876 33.7898C36.1332 34.0466 36.1975 34.6175 36.1332 35.0742C36.0689 35.5867 35.6509 36.3859 35.2651 36.7284C34.9757 36.9853 34.5592 37.1565 34.2376 37.128C33.9161 37.0994 33.5303 36.8426 33.3052 36.5857C33.0801 36.3002 32.9515 35.9006 32.9836 35.501C33.048 34.96 33.466 34.1037 33.9161 33.7041C34.3019 33.3616 35.0079 32.962 35.4259 33.0762C35.9082 33.1903 36.5191 34.1323 36.5512 34.646C36.5834 35.1027 36.1332 35.7008 35.7795 35.9577C35.4902 36.1575 35.04 36.2432 34.7506 36.2146C34.4949 36.1861 34.2055 36.0148 34.0769 35.815C33.9161 35.5581 33.7875 35.0742 33.9483 34.7888C34.1412 34.4177 35.0079 33.8754 35.458 33.9039C35.8438 33.9039 36.3583 34.3321 36.4869 34.6175C36.5834 34.8744 36.4869 35.3012 36.294 35.5296C36.1011 35.7865 35.5866 36.129 35.2329 36.0719C34.7506 36.0148 33.7875 35.0456 33.7553 34.589C33.7553 34.2464 34.2055 33.8183 34.5913 33.6185C34.9757 33.4187 35.7795 33.276 36.0046 33.4758C36.294 33.7327 36.1332 35.0456 35.8117 35.3012C35.5545 35.501 34.8149 35.4725 34.527 35.2727C34.2055 35.0456 34.0126 34.2179 34.1412 33.8468C34.2376 33.5329 34.6235 33.3045 34.9757 33.1333C35.3615 32.9335 36.0689 32.6493 36.4548 32.735C36.7763 32.8193 37.1621 33.1903 37.1943 33.4758C37.2264 33.7612 36.6798 34.3892 36.6798 34.3892Z" fill="white"/>
</mask>
<g mask="url(#mask3_144_2)">
<path d="M2.71118 23.5481H53.2915V55.214H2.71118V23.5481Z" fill="#EEEEEE"/>
</g>
</g>
<mask id="mask4_144_2" style="mask-type:luminance" maskUnits="userSpaceOnUse" x="29" y="50" width="21" height="19">
<path d="M29.5709 50.6431H49.9548V68.1996H29.5709V50.6431Z" fill="white"/>
</mask>
<g mask="url(#mask4_144_2)">
<mask id="mask5_144_2" style="mask-type:luminance" maskUnits="userSpaceOnUse" x="29" y="50" width="21" height="19">
<path d="M31.3452 52.6749C38.0288 57.6959 39.7651 59.0374 41.2105 60.5775C42.6574 62.1175 44.0064 64.8849 44.971 65.5413C45.3569 65.7982 45.6448 65.941 45.9663 65.8553C46.4165 65.7126 47.3489 64.5138 47.2203 64.2569C47.1238 64.0857 46.5772 64.2284 46.2235 64.0857C45.6769 63.8872 45.1961 63.5161 44.3923 62.8881C42.4324 61.3767 36.9692 55.9275 34.9435 54.4148C34.0768 53.7596 33.5302 53.4171 32.9515 53.1887C32.5978 53.046 32.019 53.1031 31.9869 52.9604C31.9225 52.7891 32.5335 52.2183 32.855 52.1612C33.1765 52.1041 33.5302 52.3324 33.9804 52.5893C34.8149 53.0745 35.8438 54.1021 37.0978 55.2425C39.1542 57.1251 43.717 61.3196 45.0675 63.0023C45.6448 63.7159 46.2235 64.4282 46.0628 64.6851C45.9342 64.8849 45.1318 64.7992 44.7138 64.7136C44.328 64.628 43.8456 64.3711 43.6206 64.1142C43.4598 63.9157 43.3633 63.6588 43.3955 63.4019C43.4277 63.0879 43.717 62.6313 44.0064 62.46C44.2315 62.3173 44.5852 62.2887 44.8424 62.3173C45.0996 62.3458 45.4212 62.4315 45.6126 62.6027C45.8055 62.7454 45.9663 63.0023 45.9985 63.2592C46.0306 63.5732 45.8377 64.0857 45.6126 64.314C45.4212 64.5138 45.1318 64.628 44.8424 64.628C44.4887 64.628 43.9421 64.4853 43.717 64.2284C43.492 63.9728 43.3312 63.459 43.4277 63.145C43.5241 62.8311 43.9421 62.46 44.2636 62.3458C44.5209 62.2317 44.7781 62.2602 45.1318 62.3458C45.7412 62.4885 46.9631 63.0879 47.4454 63.6017C47.8312 64.0013 47.992 64.5994 48.0241 65.0276C48.0563 65.3415 47.9277 65.6555 47.7669 65.9124C47.574 66.1978 47.2203 66.5105 46.8666 66.6818C46.4808 66.853 45.9342 66.9101 45.5162 66.853C45.1318 66.7959 44.7459 66.6247 44.4244 66.3406C44.0064 65.998 43.8778 65.3701 43.4277 64.7707C42.6896 63.8301 41.6285 62.7169 40.2459 61.3481C37.9323 59.066 31.088 54.359 30.4771 52.5608C30.252 51.9341 30.4771 51.3918 30.7986 51.0778C31.1523 50.7639 31.8597 50.6497 32.5335 50.7068C33.5302 50.7924 34.8471 51.4489 36.1332 52.2753C38.1574 53.5598 40.6639 56.584 42.9132 58.4095C44.9389 60.0351 47.8955 61.8606 48.923 62.8025C49.341 63.1736 49.566 63.3448 49.6947 63.6874C49.8233 64.0286 49.8876 64.3711 49.759 64.7992C49.566 65.5413 48.6014 67.0243 47.9277 67.5666C47.4775 67.9377 46.8988 68.0518 46.4486 68.1375C46.0949 68.1946 45.8377 68.1946 45.484 68.1089C44.9067 67.9948 44.0386 67.6237 43.4598 67.2526C42.9132 66.9101 42.4645 66.5391 42.0144 65.998C41.4034 65.2559 40.8568 63.8872 40.2781 63.1165C39.8294 62.5456 39.6365 62.3458 38.9612 61.7179C37.3229 60.1493 30.6379 55.0713 29.834 53.8737C29.6411 53.5883 29.609 53.4456 29.6411 53.2458C29.6733 53.046 29.834 52.8177 29.9948 52.6749C30.1556 52.5322 30.4449 52.4466 30.67 52.4466C30.8951 52.4466 31.3452 52.6749 31.3452 52.6749Z" fill="white"/>
</mask>
<g mask="url(#mask5_144_2)">
<path d="M28.3564 49.5664H51.0831V69.2779H28.3564V49.5664Z" fill="#EEEEEE"/>
</g>
</g>
<mask id="mask6_144_2" style="mask-type:luminance" maskUnits="userSpaceOnUse" x="3" y="49" width="23" height="20">
<path d="M3.45062 49.4185H25.8031V68.5124H3.45062V49.4185Z" fill="white"/>
</mask>
<g mask="url(#mask6_144_2)">
<mask id="mask7_144_2" style="mask-type:luminance" maskUnits="userSpaceOnUse" x="3" y="49" width="23" height="20">
<path d="M8.20644 67.7093C7.21115 68.4799 6.92176 68.4799 6.69669 68.3943C6.43946 68.3087 6.11793 67.9947 6.02147 67.7663C5.95716 67.5665 5.95716 67.4238 6.11793 67.1099C6.85746 65.6269 13.7018 58.9232 16.4655 56.0417C18.2661 54.1591 19.6151 52.5322 20.9977 51.3917C21.9608 50.5925 22.9254 49.8504 23.7293 49.6506C24.2423 49.5092 24.8532 49.5377 25.1747 49.7077C25.4319 49.8504 25.6249 50.1358 25.6892 50.3927C25.7535 50.6496 25.7213 50.8494 25.5284 51.1919C24.9496 52.1326 21.4464 55.4708 20.2903 55.6991C19.808 55.7848 19.39 55.5279 19.1649 55.3281C18.9399 55.1283 18.8113 54.8999 18.8434 54.5574C18.9077 53.9022 20.2582 51.6772 20.5797 51.7057C20.7405 51.7057 20.9977 52.418 20.9012 52.5036C20.7726 52.5892 19.7437 52.1611 19.4865 51.8484C19.2936 51.5915 19.2936 51.1919 19.3257 50.878C19.3579 50.564 19.5186 50.2215 19.7437 50.0217C19.9366 49.8504 20.2903 49.7362 20.5797 49.7362C20.8691 49.7362 21.2213 49.8219 21.4142 49.9931C21.6393 50.1644 21.8001 50.4498 21.8322 50.7067C21.8644 50.9636 21.8644 51.1063 21.6393 51.4774C20.6118 53.1601 11.5489 61.4908 8.62444 63.6017C7.37191 64.5137 6.56808 64.9704 5.66778 65.2273C5.02471 65.4271 4.19018 65.5984 3.86864 65.37C3.57926 65.1417 3.54711 64.4281 3.70788 63.9727C3.9008 63.4019 4.57602 62.9166 5.21763 62.2601C6.15008 61.291 7.98137 59.2359 8.94597 58.8376C9.42828 58.6378 9.84627 58.6663 10.1678 58.7805C10.4557 58.8661 10.6808 59.123 10.8094 59.3501C10.938 59.5784 10.9702 59.8353 10.8737 60.1778C10.713 60.8057 9.84627 61.8891 9.13889 62.7168C8.3029 63.6873 6.53592 65.6555 6.08577 65.5413C5.8607 65.4842 5.76424 64.7135 5.8607 64.6565C5.98931 64.5708 6.98607 65.1988 6.95392 65.2844C6.92176 65.37 6.05362 65.37 5.92501 65.1988C5.73208 64.9133 6.343 64.0013 6.92176 63.2591C7.91706 61.9747 10.938 59.6355 12.0634 58.6949C12.5779 58.2667 12.8351 57.9242 13.2516 57.7815C13.6053 57.6673 14.1198 57.6102 14.4091 57.7815C14.7307 57.9527 15.1487 58.6092 15.0844 58.9517C15.0201 59.293 14.3448 59.8067 13.959 59.8638C13.6053 59.9209 13.0909 59.6355 12.8672 59.4357C12.6743 59.2644 12.61 59.0088 12.61 58.7805C12.61 58.5521 12.6743 58.2667 12.8351 58.0955C13.0587 57.8671 13.5732 57.6388 13.8947 57.6388C14.1519 57.6388 14.4413 57.7529 14.6342 57.8957C14.8271 58.0384 14.9879 58.2667 15.0522 58.4951C15.1165 58.6949 15.1487 58.8947 14.9879 59.1801C14.5056 60.0922 11.0345 62.4314 9.87842 63.8015C9.07459 64.7421 8.78521 65.7696 8.2386 66.369C7.88491 66.7673 7.56483 67.1099 7.14684 67.2526C6.761 67.3953 6.27869 67.4238 5.79639 67.3097C5.18548 67.1384 4.15802 66.5961 3.83649 66.1122C3.57926 65.7125 3.51495 65.2559 3.70788 64.7706C4.02941 63.8871 5.95716 62.7168 6.8253 61.6893C7.56483 60.8057 7.98137 59.4357 8.68875 59.0088C9.13889 58.7234 9.78196 58.6663 10.1678 58.7805C10.4557 58.8661 10.6808 59.123 10.8094 59.3501C10.938 59.5784 11.0023 59.8353 10.8737 60.1778C10.4557 61.2053 6.15008 65.4557 5.57132 65.2559C5.31409 65.1702 5.73208 64.1998 5.47486 63.9156C5.24978 63.6587 4.28664 63.7444 4.22233 63.5446C4.15802 63.3448 4.80109 62.9166 5.21763 62.6597C5.69993 62.3458 6.24654 62.3458 7.05038 61.8035C9.46043 60.1778 17.9446 51.0778 19.7437 50.0217C20.1295 49.7933 20.2903 49.7362 20.5797 49.7362C20.8691 49.7362 21.2213 49.8219 21.4142 49.9931C21.6393 50.1644 21.8001 50.4498 21.8322 50.7067C21.8644 50.9636 21.7679 51.4488 21.6393 51.4774C21.4785 51.5059 20.7083 50.6496 20.7726 50.5069C20.8369 50.3927 21.4464 50.4498 21.7679 50.564C22.1216 50.6782 22.6039 50.9921 22.7968 51.2776C22.9576 51.5345 22.9897 51.8199 22.8933 52.2182C22.7325 52.9603 21.7358 54.7858 21.0941 55.2995C20.7405 55.585 20.3546 55.7277 20.0009 55.6991C19.6472 55.6706 19.1649 55.3566 18.972 55.0997C18.8113 54.8714 18.7791 54.6145 18.8756 54.3018C19.0363 53.7595 19.8723 52.9318 20.5797 52.2467C21.4464 51.3917 22.9576 50.0217 23.7293 49.6506C24.0815 49.4807 24.3387 49.4236 24.6281 49.4807C24.9496 49.5377 25.4319 49.8504 25.5927 50.1358C25.7535 50.4213 25.7535 50.8209 25.5284 51.1919C25.1104 51.877 23.5685 52.2753 22.1859 53.4455C19.1971 55.956 12.1599 64.4852 9.52474 66.7673C8.49582 67.6522 7.8206 68.3943 7.17899 68.4514C6.761 68.4799 6.27869 68.223 6.11793 67.9661C5.95716 67.7093 6.08577 67.224 6.24654 66.9386C6.40731 66.6817 6.69669 66.4248 6.98607 66.312C7.27545 66.1978 7.65983 66.1692 7.91706 66.2549C8.17429 66.3405 8.43152 66.6817 8.49582 66.9101C8.56013 67.1669 8.20644 67.7093 8.20644 67.7093Z" fill="white"/>
</mask>
<g mask="url(#mask7_144_2)">
<path d="M2.42169 48.3389H27.0177V69.5917H2.42169V48.3389Z" fill="#EEEEEE"/>
</g>
</g>
<mask id="mask8_144_2" style="mask-type:luminance" maskUnits="userSpaceOnUse" x="15" y="53" width="8" height="6">
<path d="M15.9875 53.2781H22.5776V58.3756H15.9875V53.2781Z" fill="white"/>
</mask>
<g mask="url(#mask8_144_2)">
<mask id="mask9_144_2" style="mask-type:luminance" maskUnits="userSpaceOnUse" x="16" y="53" width="7" height="6">
<path d="M22.1216 54.957C17.2372 58.3523 16.8835 58.2953 16.6262 58.1811C16.4012 58.0954 16.2082 57.8956 16.1439 57.6958C16.0475 57.439 16.0796 56.9537 16.2726 56.7267C16.4655 56.4983 16.8835 56.27 17.205 56.27C17.5265 56.27 18.0088 56.4698 18.1696 56.7267C18.3625 57.0108 18.3304 57.6958 18.1053 57.9527C17.8802 58.2096 17.0764 58.3523 16.7227 58.2382C16.4333 58.1525 16.1439 57.7244 16.0796 57.4675C16.0153 57.2677 16.0475 57.0964 16.2082 56.8396C16.7227 56.0987 19.9687 53.5597 21.1248 53.3884C21.6714 53.3028 22.218 53.5597 22.411 53.788C22.5717 53.9593 22.5396 54.2162 22.5074 54.416C22.4753 54.6145 22.1216 54.957 22.1216 54.957Z" fill="white"/>
</mask>
<g mask="url(#mask9_144_2)">
<path d="M14.7949 52.2468H23.8023V59.3787H14.7949V52.2468Z" fill="#EEEEEE"/>
</g>
</g>
<mask id="mask10_144_2" style="mask-type:luminance" maskUnits="userSpaceOnUse" x="44" y="46" width="11" height="10">
<path d="M44.898 46.167H55.0001V55.1347H44.898V46.167Z" fill="white"/>
</mask>
<g mask="url(#mask10_144_2)">
<mask id="mask11_144_2" style="mask-type:luminance" maskUnits="userSpaceOnUse" x="44" y="45" width="12" height="11">
<path d="M46.228 45.386L55.8332 47.2153L53.7724 55.7419L44.1673 53.9126L46.228 45.386Z" fill="white"/>
</mask>
<g mask="url(#mask11_144_2)">
<mask id="mask12_144_2" style="mask-type:luminance" maskUnits="userSpaceOnUse" x="45" y="46" width="10" height="9">
<path d="M51.8857 47.083C52.2335 48.4323 53.106 49.6298 54.3483 50.4654C54.6976 50.7002 54.8628 51.092 54.7707 51.4722C54.6786 51.8523 54.3469 52.1507 53.9201 52.2376C52.4016 52.5464 51.0526 53.321 50.1114 54.4238C49.8468 54.7338 49.4054 54.8805 48.9772 54.7987C48.549 54.717 48.2128 54.4225 48.1149 54.0436C47.7671 52.6956 46.8946 51.4981 45.6508 50.6626C45.303 50.4277 45.1378 50.0359 45.2299 49.6558C45.322 49.2756 45.6537 48.9772 46.079 48.8903C47.599 48.5815 48.948 47.807 49.8892 46.7029C50.1537 46.3941 50.5951 46.2475 51.0234 46.3292C51.4516 46.411 51.7877 46.7055 51.8857 47.083Z" fill="white"/>
</mask>
<g mask="url(#mask12_144_2)">
<path d="M45.0719 43.8005L57.6191 46.1891L54.927 57.3273L42.3813 54.9375L45.0719 43.8005Z" fill="#EEEEEE"/>
</g>
</g>
</g>
<mask id="mask13_144_2" style="mask-type:luminance" maskUnits="userSpaceOnUse" x="44" y="46" width="11" height="10">
<path d="M44.898 46.167H55.0001V55.1347H44.898V46.167Z" fill="white"/>
</mask>
<g mask="url(#mask13_144_2)">
<mask id="mask14_144_2" style="mask-type:luminance" maskUnits="userSpaceOnUse" x="42" y="43" width="16" height="15">
<path d="M45.0719 43.8005L57.6936 46.2033L54.9869 57.4078L42.3652 55.005L45.0719 43.8005Z" fill="white"/>
</mask>
<g mask="url(#mask14_144_2)">
<mask id="mask15_144_2" style="mask-type:luminance" maskUnits="userSpaceOnUse" x="44" y="45" width="12" height="11">
<path d="M46.1506 45.2795L55.9501 47.1452L53.8484 55.8456L44.0474 53.9787L46.1506 45.2795Z" fill="white"/>
</mask>
<g mask="url(#mask15_144_2)">
<mask id="mask16_144_2" style="mask-type:luminance" maskUnits="userSpaceOnUse" x="45" y="46" width="10" height="9">
<path d="M51.8841 47.0829C52.2319 48.4322 53.1044 49.6284 54.3467 50.4639C54.696 50.6988 54.8597 51.0906 54.7691 51.4707C54.677 51.8509 54.3453 52.1493 53.9185 52.2349C52.4 52.545 51.051 53.3182 50.1098 54.4223C49.8467 54.7324 49.4039 54.8777 48.9756 54.796C48.5489 54.7142 48.2127 54.421 48.1148 54.0422C47.7655 52.6929 46.8944 51.4967 45.6507 50.6611C45.3028 50.4263 45.1377 50.0345 45.2298 49.6543C45.3218 49.2742 45.6521 48.9758 46.0789 48.8902C47.5989 48.5801 48.9464 47.8055 49.8876 46.7027C50.1522 46.3927 50.5935 46.2474 51.0218 46.3291C51.45 46.4095 51.7861 46.704 51.8841 47.0829Z" fill="white"/>
</mask>
<g mask="url(#mask16_144_2)">
<path d="M51.884 47.0828C52.2318 48.4321 53.1043 49.6283 54.3466 50.4638C54.6959 50.6987 54.8596 51.0905 54.7676 51.4706C54.6769 51.8508 54.3452 52.1492 53.9184 52.2348C52.3999 52.5449 51.0509 53.3181 50.1097 54.4222C49.8466 54.7323 49.4038 54.8776 48.9755 54.7959C48.5488 54.7142 48.2126 54.4209 48.1147 54.0421C47.7654 52.6928 46.8943 51.4966 45.6506 50.661C45.3027 50.4262 45.1376 50.0344 45.2297 49.6543C45.3217 49.2741 45.652 48.9757 46.0788 48.8901C47.5988 48.58 48.9463 47.8054 49.8875 46.7026C50.1521 46.3926 50.5934 46.2473 51.0217 46.329C51.4499 46.4094 51.7861 46.7039 51.884 47.0828Z" stroke="white" stroke-width="10"/>
</g>
</g>
</g>
</g>
<mask id="mask17_144_2" style="mask-type:luminance" maskUnits="userSpaceOnUse" x="0" y="43" width="11" height="10">
<path d="M0 43.51H10.102V52.4777H0V43.51Z" fill="white"/>
</mask>
<g mask="url(#mask17_144_2)">
<mask id="mask18_144_2" style="mask-type:luminance" maskUnits="userSpaceOnUse" x="-1" y="43" width="12" height="10">
<path d="M-0.112549 43.8643L9.69719 43.4011L10.2204 52.1093L0.409215 52.5738L-0.112549 43.8643Z" fill="white"/>
</mask>
<g mask="url(#mask18_144_2)">
<mask id="mask19_144_2" style="mask-type:luminance" maskUnits="userSpaceOnUse" x="0" y="43" width="10" height="10">
<path d="M5.84756 44.1899C6.58125 45.412 7.77531 46.3643 9.22222 46.882C9.62706 47.0273 9.90183 47.3685 9.92521 47.7565C9.94859 48.1444 9.71621 48.509 9.33037 48.6919C7.95508 49.3432 6.88086 50.4032 6.29771 51.6876C6.13402 52.047 5.74964 52.2909 5.31265 52.3117C4.87565 52.3324 4.46496 52.1261 4.25889 51.7836C3.5252 50.5628 2.33114 49.6092 0.884232 49.0915C0.479391 48.9462 0.204624 48.605 0.18124 48.217C0.157856 47.8291 0.390238 47.4645 0.776079 47.2816C2.15137 46.6303 3.22559 45.5703 3.80874 44.2872C3.97243 43.9265 4.35681 43.6826 4.7938 43.6618C5.2308 43.6411 5.64149 43.8474 5.84756 44.1899Z" fill="white"/>
</mask>
<g mask="url(#mask19_144_2)">
<path d="M-1.69537 42.6032L11.1193 41.9973L11.8018 53.3717L-1.01138 53.9776L-1.69537 42.6032Z" fill="#EEEEEE"/>
</g>
</g>
</g>
<mask id="mask20_144_2" style="mask-type:luminance" maskUnits="userSpaceOnUse" x="0" y="43" width="11" height="10">
<path d="M0 43.51H10.102V52.4777H0V43.51Z" fill="white"/>
</mask>
<g mask="url(#mask20_144_2)">
<mask id="mask21_144_2" style="mask-type:luminance" maskUnits="userSpaceOnUse" x="-2" y="41" width="14" height="14">
<path d="M-1.69537 42.6032L11.1953 41.9934L11.8822 53.4353L-1.00846 54.045L-1.69537 42.6032Z" fill="white"/>
</mask>
<g mask="url(#mask21_144_2)">
<mask id="mask22_144_2" style="mask-type:luminance" maskUnits="userSpaceOnUse" x="-1" y="43" width="12" height="10">
<path d="M-0.219238 43.78L9.78927 43.3064L10.3227 52.1924L0.314217 52.6646L-0.219238 43.78Z" fill="white"/>
</mask>
<g mask="url(#mask22_144_2)">
<mask id="mask23_144_2" style="mask-type:luminance" maskUnits="userSpaceOnUse" x="0" y="43" width="10" height="10">
<path d="M5.84604 44.1899C6.57972 45.4107 7.77379 46.3643 9.21923 46.882C9.62554 47.0273 9.89884 47.3672 9.92223 47.7552C9.94561 48.1431 9.71469 48.5077 9.32885 48.6906C7.95209 49.3419 6.87934 50.4019 6.29619 51.685C6.1325 52.0457 5.74812 52.2896 5.31112 52.3104C4.87413 52.3311 4.46344 52.1248 4.25737 51.7823C3.52368 50.5615 2.32962 49.6079 0.884171 49.0902C0.47933 48.9449 0.204563 48.6037 0.181179 48.217C0.157794 47.8291 0.390177 47.4632 0.776018 47.2816C2.15131 46.6303 3.22407 45.5703 3.80722 44.2859C3.97091 43.9265 4.35529 43.6826 4.79228 43.6618C5.22928 43.6411 5.63997 43.8474 5.84604 44.1899Z" fill="white"/>
</mask>
<g mask="url(#mask23_144_2)">
<path d="M5.84608 44.1897C6.57977 45.4106 7.77383 46.3642 9.21927 46.8819C9.62558 47.0272 9.89888 47.3671 9.92227 47.755C9.94565 48.143 9.71473 48.5075 9.32889 48.6905C7.95214 49.3418 6.87938 50.4017 6.29623 51.6849C6.13254 52.0456 5.74816 52.2895 5.31117 52.3102C4.87417 52.331 4.46348 52.1247 4.25741 51.7822C3.52372 50.5613 2.32966 49.6077 0.884218 49.0901C0.477915 48.9447 0.20461 48.6048 0.181226 48.2169C0.157842 47.829 0.390223 47.4631 0.776065 47.2815C2.15136 46.6302 3.22411 45.5702 3.80726 44.2858C3.97095 43.9264 4.35533 43.6825 4.79233 43.6617C5.22932 43.6409 5.64001 43.8472 5.84608 44.1897Z" stroke="white" stroke-width="9.99999"/>
</g>
</g>
</g>
</g>
<mask id="mask24_144_2" style="mask-type:luminance" maskUnits="userSpaceOnUse" x="1" y="23" width="53" height="47">
<path d="M1.87073 23.6636H53.5034V69.0846H1.87073V23.6636Z" fill="white"/>
</mask>
<g mask="url(#mask24_144_2)">
<path d="M6.02591 29.1452C6.65728 28.586 7.61458 29.4358 6.98466 29.9963C6.00544 30.8656 7.08697 32.5107 5.89291 32.5885C4.57608 32.6754 5.14168 29.9314 6.02591 29.1452ZM7.67596 63.1529C9.21787 63.1529 9.21787 65.2326 7.67596 65.2326C6.13552 65.2326 6.13552 63.1529 7.67596 63.1529ZM45.7325 63.1529C44.1906 63.1529 44.1906 65.2326 45.7325 65.2326C47.2745 65.2326 47.2745 63.1529 45.7325 63.1529ZM23.2251 48.3871L4.199 63.8626C3.86139 64.1454 3.88916 64.5217 4.25308 64.8369L7.08405 67.3552C7.36174 67.5874 7.79727 67.5732 8.08519 67.3124L25.4218 50.5148L23.2251 48.3871ZM26.61 51.6669L9.18133 68.5358C8.1875 69.3091 6.72013 69.2507 5.76868 68.3879L2.86025 65.8035C1.97895 65.0212 1.96726 63.5642 3.01517 62.7144L22.0413 47.2402L18.1975 43.5153C12.2885 44.9126 4.51615 39.4674 3.05317 33.4928C0.989499 25.0635 11.4043 24.1722 18.0615 30.0806C20.951 32.6443 23.2222 36.5949 22.2137 39.9487L26.6085 43.5257L32.0512 39.0989L32.1009 34.2232C32.1097 33.2632 32.5365 32.4276 33.3403 31.7906L42.8782 24.2449C43.6148 23.661 44.4713 23.8336 45.1786 24.4356C45.8743 25.0181 46.6898 25.7006 45.6872 26.7203L40.6333 31.8581L46.3566 27.3314C46.969 26.8462 47.9175 26.8708 48.4977 27.3872L48.4963 27.3885C49.2943 28.0644 50.3437 28.7858 49.2358 29.8886L44.1395 34.968L49.9257 30.4828C50.6696 29.9068 51.5129 30.0858 52.2115 30.68C52.9101 31.2639 53.7373 31.9567 52.7142 32.9764L44.2126 41.4433C43.4964 42.1569 42.5552 42.5358 41.4737 42.5448L35.9798 42.5876L31.1772 47.2428L50.3992 62.8882C51.2732 63.7743 51.2016 65.0925 50.2253 65.9242L47.3183 68.5021C46.3172 69.3169 44.7606 69.2507 43.8428 68.3633L26.61 51.6669ZM29.8838 46.1906L34.9451 41.2876C35.116 41.1216 35.3499 41.0359 35.5852 41.0346L41.4591 40.9866C42.0334 40.9828 42.5143 40.7881 42.8987 40.4041L51.3097 32.028C51.6166 31.7218 51.2118 31.5246 50.9429 31.7621L43.1383 37.8106C42.1284 38.5929 41.5847 37.8612 40.9694 37.3137C40.5149 36.9115 40.493 36.2524 40.9212 35.8268L47.7772 28.9947C48.0885 28.6846 47.6384 28.4096 47.2935 28.682L39.6672 34.715C38.6573 35.5129 38.1034 34.7708 37.4866 34.2232C37.0336 33.8223 37.0116 33.1736 37.4326 32.7442L44.2593 25.8031C44.594 25.4618 44.1848 25.275 43.9115 25.5189L34.5095 32.957C34.0769 33.3008 33.8591 33.725 33.8548 34.2362L33.8007 39.4505C33.7992 39.6853 33.6808 39.8955 33.4938 40.0356L27.9064 44.5805L29.8838 46.1906ZM17.721 28.7689C16.6848 29.2282 15.9014 27.8309 16.9376 27.3716C23.2573 24.5744 30.6847 24.3902 37.1724 26.8695C38.2335 27.2743 37.5378 28.7093 36.4782 28.3045C30.4669 26.0081 23.5759 26.1741 17.721 28.7689ZM48.1426 38.6552C47.6881 37.7146 49.303 37.0983 49.759 38.0389C53.065 44.8529 52.1472 52.7048 47.3329 58.7741C46.6694 59.611 45.2327 58.7132 45.8948 57.8763C50.3539 52.2572 51.2089 44.9645 48.1426 38.6552ZM38.0128 64.0209C39.0344 63.546 39.8485 64.9251 38.8254 65.4013C31.3146 68.8913 22.278 68.6228 15.064 64.6722C14.0818 64.135 15.0026 62.8091 15.9862 63.3475C22.6507 66.9984 31.0793 67.2514 38.0128 64.0209ZM8.66542 56.8475C9.27341 57.7193 7.77973 58.538 7.1732 57.6661C3.45801 52.3182 2.61033 45.7948 4.81138 39.8164C5.17091 38.8368 6.84144 39.3234 6.48336 40.2977C4.44454 45.8377 5.22645 51.8888 8.66542 56.8475ZM19.1387 42.1232L45.1333 67.3098C45.4856 67.6251 45.9021 67.5719 46.2309 67.2631L49.097 64.7202C49.3513 64.4633 49.2972 64.0961 48.9742 63.8236L20.6192 40.7609C19.6663 39.9876 21.5736 39.3182 20.1734 35.7724C16.8514 27.3496 2.61325 24.337 4.77338 33.1633C6.11506 38.6448 13.5221 43.4284 18.1595 41.8935C18.5175 41.7768 18.9048 41.878 19.1387 42.1232ZM23.7761 37.18C22.6902 37.5368 22.0778 36.0708 23.1637 35.714C25.6951 34.881 28.4778 34.7772 31.0925 35.4104C32.2062 35.6802 31.7443 37.1826 30.6306 36.9128C28.3711 36.364 25.9757 36.4561 23.7761 37.18ZM38.4469 43.8487C38.1443 42.8601 39.8353 42.4488 40.1393 43.4387C41.0191 46.2956 40.6377 49.3251 39.0622 51.9225C38.5155 52.8281 36.9678 52.0899 37.5144 51.1843C38.8722 48.945 39.2083 46.3034 38.4469 43.8487ZM30.1805 56.1586C31.3088 55.9302 31.7005 57.4495 30.5736 57.6804C28.0452 58.1942 25.4042 58.0268 22.9898 57.1978C21.9127 56.8267 22.5455 55.3736 23.6241 55.7434C25.6995 56.457 28.0057 56.6036 30.1805 56.1586ZM17.2329 50.0672C17.6494 51.0247 16.0125 51.5852 15.596 50.6303C14.7702 48.7361 14.532 46.7004 14.8857 44.6869C15.0654 43.6723 16.7973 43.9136 16.6205 44.9243C16.315 46.6563 16.5226 48.4351 17.2329 50.0672ZM5.75991 34.3206C5.45007 33.5823 6.71282 33.1633 7.02413 33.9028C8.17873 36.6455 11.0799 39.1573 14.1827 40.1031C15.026 40.3587 14.5875 41.4952 13.7442 41.2396C10.2599 40.1784 7.06213 37.4045 5.75991 34.3206Z" fill="white"/>
</g>
<mask id="mask25_144_2" style="mask-type:luminance" maskUnits="userSpaceOnUse" x="10" y="0" width="37" height="26">
<path d="M10.1021 0H46.0204V25.9067H10.1021V0Z" fill="white"/>
</mask>
<g mask="url(#mask25_144_2)">
<mask id="mask26_144_2" style="mask-type:luminance" maskUnits="userSpaceOnUse" x="9" y="-2" width="38" height="29">
<path d="M9.11261 1.25989L44.366 -1.14551L46.5159 23.6908L11.2625 26.0975L9.11261 1.25989Z" fill="white"/>
</mask>
<g mask="url(#mask26_144_2)">
<mask id="mask27_144_2" style="mask-type:luminance" maskUnits="userSpaceOnUse" x="9" y="-2" width="38" height="29">
<path d="M9.11261 1.25989L44.366 -1.14551L46.5159 23.6908L11.2625 26.0975L9.11261 1.25989Z" fill="white"/>
</mask>
<g mask="url(#mask27_144_2)">
<path fill-rule="evenodd" clip-rule="evenodd" d="M16.6161 7.91418C15.7435 8.03354 13.6258 8.44093 12.081 9.72796C10.9249 10.6919 10.0611 12.1295 10.2394 14.2832C10.4134 16.3707 11.5753 17.6097 12.952 18.3518C14.51 19.1913 16.3778 19.3496 17.3497 19.369C17.5894 19.9321 17.7838 20.6496 17.9066 21.4345C18.0381 22.2895 18.0834 23.2223 17.9957 24.1331L17.8481 25.6446L19.3462 24.9128C20.9743 24.1072 24.0801 23.3209 27.3948 23.1289C28.2264 23.0809 29.0712 23.0757 29.9145 23.0952C30.4786 23.1068 31.0354 23.125 31.5937 23.1626C32.3113 23.2119 33.0041 23.2794 33.6998 23.3936C34.4349 23.5142 35.1262 23.644 35.8175 23.8697C35.2636 23.4455 34.6936 23.0796 34.0418 22.7656C33.3987 22.4555 32.7206 22.2246 32.0088 22.03C31.449 21.8782 30.8761 21.7679 30.2915 21.6875C29.9071 21.6343 29.5169 21.6044 29.1282 21.585C27.6476 21.5097 26.1642 21.6083 24.7743 21.79C22.8977 22.0339 21.1892 22.4555 19.8665 22.92C19.8548 22.3362 19.8022 21.7601 19.7174 21.2126C19.5274 19.9918 19.1693 18.9136 18.7543 18.1884L18.478 17.707L17.8715 17.7485C17.8715 17.7485 15.6339 17.9107 13.8859 16.9792C12.9301 16.4706 12.1409 15.6065 12.0108 14.1625C11.8705 12.6082 12.4507 11.556 13.2809 10.8541C14.4296 9.88365 15.9935 9.54113 16.7301 9.42956C16.7695 9.64622 16.8192 9.859 16.8791 10.0679C17.3541 11.7428 18.3991 13.1233 19.7861 13.7473C18.6359 12.9585 17.9724 11.5366 17.816 9.92906C17.6888 8.61478 17.9402 7.19542 18.6315 5.89801C19.0056 5.19611 19.523 4.5474 20.1793 3.96616C21.4537 2.84001 23.3025 2.02265 25.8894 1.87344C28.6897 1.69829 30.6262 2.32235 31.9547 3.26556C34.5694 5.11956 34.831 8.12436 34.831 8.12436L34.9172 9.11948L36.0192 8.92486C36.0192 8.92486 38.913 8.39682 41.2164 9.32057C42.5011 9.83565 43.5665 10.8502 43.739 12.7457C43.9129 14.5556 43.2728 15.6519 42.314 16.2967C41.5262 16.8261 40.5631 17.0557 39.7403 17.1816C38.9569 17.3009 38.289 17.3256 37.9806 17.3295C38.0201 17.2711 38.0581 17.2101 38.0946 17.1491C38.2875 16.8183 38.4293 16.4654 38.5097 16.0931C38.5681 15.8219 38.6061 15.552 38.5959 15.2692C38.5769 14.6698 38.4249 14.0886 38.1151 13.4749C38.1209 13.8304 38.0771 14.1469 38.0142 14.4726C37.9207 14.9617 37.7336 15.3873 37.5085 15.8063C37.3609 16.0788 37.1841 16.3279 36.997 16.5744C36.8742 16.7392 36.7427 16.8949 36.6126 17.0531C36.275 17.4618 35.914 17.8459 35.4726 18.1728C34.7652 18.6957 33.9833 19.1095 33.0699 19.308C34.0813 19.3846 35.0649 19.2354 35.971 18.8682C36.2911 18.7398 36.5878 18.5776 36.8669 18.3921C36.7792 18.9422 36.7588 19.5026 36.8201 20.0813C36.9312 21.1322 37.2528 22.1831 37.6298 23.2742C37.6035 22.1688 37.6503 21.1179 37.8227 20.1059C37.9046 19.6246 38.0215 19.1653 38.1925 18.7268C38.6222 18.7605 39.258 18.7813 39.98 18.7151C41.0761 18.6139 42.3462 18.2844 43.4043 17.6045C44.7942 16.7132 45.8538 15.1991 45.6536 12.6147C45.4826 10.5233 44.4961 9.19992 43.2275 8.3553C41.1492 6.97356 38.1925 6.96448 36.6521 7.07606C36.3422 5.80978 35.4858 3.49391 33.1985 1.87863C31.5616 0.722641 29.191 -0.0960246 25.7477 0.132319C23.1154 0.313956 21.1044 1.05997 19.6458 2.13422C19.1723 2.48452 18.7528 2.86596 18.3977 3.27854C17.8437 3.92076 17.4199 4.62136 17.1349 5.35439C16.809 6.19122 16.6394 7.06049 16.6161 7.91418Z" fill="white"/>
</g>
</g>
</g>
<path d="M74.7591 38.624C74.7591 36.992 75.1351 35.528 75.8871 34.232C76.6551 32.936 77.6871 31.928 78.9831 31.208C80.2951 30.472 81.7271 30.104 83.2791 30.104C85.0551 30.104 86.6311 30.544 88.0071 31.424C89.3991 32.288 90.4071 33.52 91.0311 35.12H87.7431C87.3111 34.24 86.7111 33.584 85.9431 33.152C85.1751 32.72 84.2871 32.504 83.2791 32.504C82.1751 32.504 81.1911 32.752 80.3271 33.248C79.4631 33.744 78.7831 34.456 78.2871 35.384C77.8071 36.312 77.5671 37.392 77.5671 38.624C77.5671 39.856 77.8071 40.936 78.2871 41.864C78.7831 42.792 79.4631 43.512 80.3271 44.024C81.1911 44.52 82.1751 44.768 83.2791 44.768C84.2871 44.768 85.1751 44.552 85.9431 44.12C86.7111 43.688 87.3111 43.032 87.7431 42.152H91.0311C90.4071 43.752 89.3991 44.984 88.0071 45.848C86.6311 46.712 85.0551 47.144 83.2791 47.144C81.7111 47.144 80.2791 46.784 78.9831 46.064C77.6871 45.328 76.6551 44.312 75.8871 43.016C75.1351 41.72 74.7591 40.256 74.7591 38.624ZM93.3216 40.328C93.3216 39 93.5936 37.824 94.1376 36.8C94.6976 35.776 95.4496 34.984 96.3936 34.424C97.3536 33.848 98.4096 33.56 99.5616 33.56C100.602 33.56 101.506 33.768 102.274 34.184C103.058 34.584 103.682 35.088 104.146 35.696V33.776H106.906V47H104.146V45.032C103.682 45.656 103.05 46.176 102.25 46.592C101.45 47.008 100.538 47.216 99.5136 47.216C98.3776 47.216 97.3376 46.928 96.3936 46.352C95.4496 45.76 94.6976 44.944 94.1376 43.904C93.5936 42.848 93.3216 41.656 93.3216 40.328ZM104.146 40.376C104.146 39.464 103.954 38.672 103.57 38C103.202 37.328 102.714 36.816 102.106 36.464C101.498 36.112 100.842 35.936 100.138 35.936C99.4336 35.936 98.7776 36.112 98.1696 36.464C97.5616 36.8 97.0656 37.304 96.6816 37.976C96.3136 38.632 96.1296 39.416 96.1296 40.328C96.1296 41.24 96.3136 42.04 96.6816 42.728C97.0656 43.416 97.5616 43.944 98.1696 44.312C98.7936 44.664 99.4496 44.84 100.138 44.84C100.842 44.84 101.498 44.664 102.106 44.312C102.714 43.96 103.202 43.448 103.57 42.776C103.954 42.088 104.146 41.288 104.146 40.376ZM113.691 36.008V43.328C113.691 43.824 113.803 44.184 114.027 44.408C114.267 44.616 114.667 44.72 115.227 44.72H116.907V47H114.747C113.515 47 112.571 46.712 111.915 46.136C111.259 45.56 110.931 44.624 110.931 43.328V36.008H109.371V33.776H110.931V30.488H113.691V33.776H116.907V36.008H113.691ZM131.549 40.064C131.549 40.56 131.517 41.008 131.453 41.408H121.349C121.429 42.464 121.821 43.312 122.525 43.952C123.229 44.592 124.093 44.912 125.117 44.912C126.589 44.912 127.629 44.296 128.237 43.064H131.189C130.789 44.28 130.061 45.28 129.005 46.064C127.965 46.832 126.669 47.216 125.117 47.216C123.853 47.216 122.717 46.936 121.709 46.376C120.717 45.8 119.933 45 119.357 43.976C118.797 42.936 118.517 41.736 118.517 40.376C118.517 39.016 118.789 37.824 119.333 36.8C119.893 35.76 120.669 34.96 121.661 34.4C122.669 33.84 123.821 33.56 125.117 33.56C126.365 33.56 127.477 33.832 128.453 34.376C129.429 34.92 130.189 35.688 130.733 36.68C131.277 37.656 131.549 38.784 131.549 40.064ZM128.693 39.2C128.677 38.192 128.317 37.384 127.613 36.776C126.909 36.168 126.037 35.864 124.997 35.864C124.053 35.864 123.245 36.168 122.573 36.776C121.901 37.368 121.501 38.176 121.373 39.2H128.693ZM136.977 35.696C137.377 35.024 137.905 34.504 138.561 34.136C139.233 33.752 140.025 33.56 140.937 33.56V36.392H140.241C139.169 36.392 138.353 36.664 137.793 37.208C137.249 37.752 136.977 38.696 136.977 40.04V47H134.241V33.776H136.977V35.696ZM144.844 32.024C144.348 32.024 143.932 31.856 143.596 31.52C143.26 31.184 143.092 30.768 143.092 30.272C143.092 29.776 143.26 29.36 143.596 29.024C143.932 28.688 144.348 28.52 144.844 28.52C145.324 28.52 145.732 28.688 146.068 29.024C146.404 29.36 146.572 29.776 146.572 30.272C146.572 30.768 146.404 31.184 146.068 31.52C145.732 31.856 145.324 32.024 144.844 32.024ZM146.188 33.776V47H143.452V33.776H146.188ZM156.452 33.56C157.492 33.56 158.42 33.776 159.236 34.208C160.068 34.64 160.716 35.28 161.18 36.128C161.644 36.976 161.876 38 161.876 39.2V47H159.164V39.608C159.164 38.424 158.868 37.52 158.276 36.896C157.684 36.256 156.876 35.936 155.852 35.936C154.828 35.936 154.012 36.256 153.404 36.896C152.812 37.52 152.516 38.424 152.516 39.608V47H149.78V33.776H152.516V35.288C152.964 34.744 153.532 34.32 154.22 34.016C154.924 33.712 155.668 33.56 156.452 33.56ZM170.694 33.56C171.718 33.56 172.622 33.768 173.406 34.184C174.206 34.584 174.83 35.088 175.278 35.696V33.776H178.038V47.216C178.038 48.432 177.782 49.512 177.27 50.456C176.758 51.416 176.014 52.168 175.038 52.712C174.078 53.256 172.926 53.528 171.582 53.528C169.79 53.528 168.302 53.104 167.118 52.256C165.934 51.424 165.262 50.288 165.102 48.848H167.814C168.022 49.536 168.462 50.088 169.134 50.504C169.822 50.936 170.638 51.152 171.582 51.152C172.686 51.152 173.574 50.816 174.246 50.144C174.934 49.472 175.278 48.496 175.278 47.216V45.008C174.814 45.632 174.182 46.16 173.382 46.592C172.598 47.008 171.702 47.216 170.694 47.216C169.542 47.216 168.486 46.928 167.526 46.352C166.582 45.76 165.83 44.944 165.27 43.904C164.726 42.848 164.454 41.656 164.454 40.328C164.454 39 164.726 37.824 165.27 36.8C165.83 35.776 166.582 34.984 167.526 34.424C168.486 33.848 169.542 33.56 170.694 33.56ZM175.278 40.376C175.278 39.464 175.086 38.672 174.702 38C174.334 37.328 173.846 36.816 173.238 36.464C172.63 36.112 171.974 35.936 171.27 35.936C170.566 35.936 169.91 36.112 169.302 36.464C168.694 36.8 168.198 37.304 167.814 37.976C167.446 38.632 167.262 39.416 167.262 40.328C167.262 41.24 167.446 42.04 167.814 42.728C168.198 43.416 168.694 43.944 169.302 44.312C169.926 44.664 170.582 44.84 171.27 44.84C171.974 44.84 172.63 44.664 173.238 44.312C173.846 43.96 174.334 43.448 174.702 42.776C175.086 42.088 175.278 41.288 175.278 40.376ZM184.056 44.768H190.056V47H180.888V44.768L186.912 36.008H180.888V33.776H190.056V36.008L184.056 44.768Z" fill="white"/>
</svg>
