<svg width="44" height="44" viewBox="0 0 44 44" fill="none" xmlns="http://www.w3.org/2000/svg">
<path d="M12.2222 0C5.48289 0 0 5.48289 0 12.2222V31.7778C0 38.5171 5.48289 44 12.2222 44H31.7778C38.5171 44 44 38.5171 44 31.7778V12.2222C44 5.48289 38.5171 0 31.7778 0H12.2222ZM12.2222 4.88889H31.7778C35.8209 4.88889 39.1111 8.17911 39.1111 12.2222V31.7778C39.1111 35.8209 35.8209 39.1111 31.7778 39.1111H12.2222C8.17911 39.1111 4.88889 35.8209 4.88889 31.7778V12.2222C4.88889 8.17911 8.17911 4.88889 12.2222 4.88889ZM34.2222 7.33333C33.5739 7.33333 32.9522 7.59087 32.4937 8.04929C32.0353 8.50772 31.7778 9.12947 31.7778 9.77778C31.7778 10.4261 32.0353 11.0478 32.4937 11.5063C32.9522 11.9647 33.5739 12.2222 34.2222 12.2222C34.8705 12.2222 35.4923 11.9647 35.9507 11.5063C36.4091 11.0478 36.6667 10.4261 36.6667 9.77778C36.6667 9.12947 36.4091 8.50772 35.9507 8.04929C35.4923 7.59087 34.8705 7.33333 34.2222 7.33333ZM22 9.77778C15.2607 9.77778 9.77778 15.2607 9.77778 22C9.77778 28.7393 15.2607 34.2222 22 34.2222C28.7393 34.2222 34.2222 28.7393 34.2222 22C34.2222 15.2607 28.7393 9.77778 22 9.77778ZM22 14.6667C26.0431 14.6667 29.3333 17.9569 29.3333 22C29.3333 26.0431 26.0431 29.3333 22 29.3333C17.9569 29.3333 14.6667 26.0431 14.6667 22C14.6667 17.9569 17.9569 14.6667 22 14.6667Z" fill="black"/>
</svg>
