<svg width="34" height="34" viewBox="0 0 34 34" fill="none" xmlns="http://www.w3.org/2000/svg">
<path d="M9.44444 0C4.23678 0 0 4.23678 0 9.44444V24.5556C0 29.7632 4.23678 34 9.44444 34H24.5556C29.7632 34 34 29.7632 34 24.5556V9.44444C34 4.23678 29.7632 0 24.5556 0H9.44444ZM9.44444 3.77778H24.5556C27.6798 3.77778 30.2222 6.32022 30.2222 9.44444V24.5556C30.2222 27.6798 27.6798 30.2222 24.5556 30.2222H9.44444C6.32022 30.2222 3.77778 27.6798 3.77778 24.5556V9.44444C3.77778 6.32022 6.32022 3.77778 9.44444 3.77778ZM26.4444 5.66667C25.9435 5.66667 25.463 5.86567 25.1088 6.21991C24.7546 6.57414 24.5556 7.05459 24.5556 7.55556C24.5556 8.05652 24.7546 8.53697 25.1088 8.8912C25.463 9.24544 25.9435 9.44444 26.4444 9.44444C26.9454 9.44444 27.4259 9.24544 27.7801 8.8912C28.1343 8.53697 28.3333 8.05652 28.3333 7.55556C28.3333 7.05459 28.1343 6.57414 27.7801 6.21991C27.4259 5.86567 26.9454 5.66667 26.4444 5.66667ZM17 7.55556C11.7923 7.55556 7.55556 11.7923 7.55556 17C7.55556 22.2077 11.7923 26.4444 17 26.4444C22.2077 26.4444 26.4444 22.2077 26.4444 17C26.4444 11.7923 22.2077 7.55556 17 7.55556ZM17 11.3333C20.1242 11.3333 22.6667 13.8758 22.6667 17C22.6667 20.1242 20.1242 22.6667 17 22.6667C13.8758 22.6667 11.3333 20.1242 11.3333 17C11.3333 13.8758 13.8758 11.3333 17 11.3333Z" fill="#EEEEEE"/>
</svg>
