<svg width="55" height="64" viewBox="0 0 55 64" fill="none" xmlns="http://www.w3.org/2000/svg">
<mask id="mask0_62_2" style="mask-type:luminance" maskUnits="userSpaceOnUse" x="18" y="35" width="20" height="16">
<path d="M18.3655 35.021H37.3828V50.5595H18.3655V35.021Z" fill="white"/>
</mask>
<g mask="url(#mask0_62_2)">
<mask id="mask1_62_2" style="mask-type:luminance" maskUnits="userSpaceOnUse" x="18" y="35" width="20" height="16">
<path d="M27.8741 35.021C22.6229 35.021 18.3655 38.4994 18.3655 42.7909C18.3655 47.0812 22.6229 50.5595 27.8741 50.5595C33.1254 50.5595 37.3828 47.0812 37.3828 42.7909C37.3828 38.4994 33.1254 35.021 27.8741 35.021Z" fill="white"/>
</mask>
<g mask="url(#mask1_62_2)">
<path d="M18.3655 35.021H37.3828V50.5595H18.3655V35.021Z" fill="#EEEEEE"/>
</g>
</g>
<mask id="mask2_62_2" style="mask-type:luminance" maskUnits="userSpaceOnUse" x="3" y="22" width="50" height="28">
<path d="M3.82629 22.6205H52.1778V49.8264H3.82629V22.6205Z" fill="white"/>
</mask>
<g mask="url(#mask2_62_2)">
<mask id="mask3_62_2" style="mask-type:luminance" maskUnits="userSpaceOnUse" x="3" y="22" width="50" height="28">
<path d="M36.6798 31.6502C35.6831 31.8866 35.5223 30.9934 35.3937 31.0197C35.2651 31.046 35.3937 32.123 35.2008 32.1756C35.04 32.2019 34.4306 31.7027 34.4949 31.5451C34.5592 31.3875 35.3937 31.1773 35.7152 31.2561C36.0689 31.335 36.4869 31.7815 36.5191 32.0705C36.5512 32.3857 36.1011 32.8837 35.7795 33.0938C35.4902 33.2777 35.0722 33.4091 34.7506 33.3303C34.3984 33.2514 33.9483 32.8574 33.8518 32.5422C33.7553 32.2019 34.0126 31.4138 34.2698 31.335C34.527 31.2824 35.2008 31.7553 35.3937 32.0968C35.6188 32.4371 35.6188 33.0413 35.4902 33.3828C35.3615 33.6718 35.1043 34.0133 34.7828 34.0921C34.4306 34.1972 33.7232 34.0395 33.466 33.8557C33.2409 33.698 33.1444 33.4616 33.1444 33.2252C33.1444 32.9099 33.4338 32.2544 33.7553 32.123C34.0769 31.9917 34.8471 32.1756 35.0722 32.4371C35.3615 32.8049 34.6863 33.9082 34.7828 34.381C34.8471 34.6951 35.2972 35.0629 35.2329 35.0891C35.1686 35.1417 34.3341 34.5912 34.3662 34.5387C34.3984 34.4861 35.3937 34.8527 35.3937 34.8264C35.3937 34.8002 34.5913 34.7214 34.4306 34.4599C34.109 33.9607 34.7828 31.4926 35.2329 31.3612C35.4902 31.2824 36.1654 31.7553 36.1332 31.9129C36.1011 32.0968 35.2651 32.3595 34.8471 32.3332C34.4306 32.3069 33.8196 32.018 33.6589 31.729C33.4981 31.4663 33.5624 31.0197 33.7553 30.7833C33.9483 30.5469 34.6542 30.2316 34.7506 30.3104C34.8471 30.3892 33.8839 31.8078 33.7232 31.7815C33.5946 31.7553 33.5946 30.8884 33.7232 30.4943C33.8518 30.1277 34.0769 29.8913 34.4627 29.5235C35.1686 28.8405 37.0978 27.7909 37.9324 26.9503C38.5754 26.3198 38.704 25.6117 39.2828 25.1126C39.8294 24.6398 40.5996 24.1669 41.1784 24.0356C41.6286 23.9568 42.1109 23.983 42.4324 24.1669C42.7218 24.3508 43.0097 24.6923 43.0097 25.0601C43.0097 25.7168 41.7572 27.2393 41.1784 27.6859C40.889 27.896 40.6318 27.9999 40.3424 28.0262C40.053 28.0524 39.6687 27.9486 39.4114 27.8172C39.1863 27.6859 38.9613 27.4232 38.897 27.1867C38.8327 26.9503 38.897 26.6876 39.0256 26.3986C39.2507 25.9258 39.7651 25.244 40.3424 24.7186C40.9855 24.1144 42.1109 23.4326 42.7846 23.0911C43.2026 22.8809 43.5241 22.697 43.91 22.7233C44.328 22.7495 45.0354 23.0648 45.2283 23.38C45.389 23.6415 45.2604 24.1669 45.1318 24.4033C45.0354 24.5872 44.9067 24.6923 44.6817 24.7711C44.3601 24.8762 43.2669 24.7974 43.2669 24.7711C43.2669 24.7448 44.2315 24.561 44.328 24.666C44.4244 24.7711 44.1994 25.0864 43.91 25.4541C43.1062 26.5037 37.6751 30.2842 37.8681 30.9934C37.9324 31.2299 38.4468 31.335 38.7362 31.3087C39.0577 31.2824 39.315 31.0197 39.733 30.7308C40.6318 30.1015 42.5932 28.1575 43.7492 27.3969C44.4888 26.924 45.0675 26.6613 45.7091 26.3986C46.2879 26.1622 47.0596 25.7431 47.4776 25.8995C47.8956 26.0571 48.3442 26.819 48.2478 27.3444C48.0885 28.1312 46.513 29.1032 45.4519 29.9964C44.2315 31.0197 41.9179 32.3595 41.2427 33.0676C40.9533 33.3565 40.8247 33.5141 40.7604 33.7768C40.6961 34.0395 40.6961 34.5912 40.7926 34.6163C40.889 34.6425 41.4035 33.7768 41.4035 33.7768C41.4035 33.7768 40.8569 34.3548 40.9533 34.5387C41.0498 34.7476 41.7893 34.9578 42.2716 34.8264C43.2991 34.5649 44.746 32.2544 46.0307 31.2561C47.1882 30.363 48.6336 29.3922 49.5661 29.0244C50.0805 28.8143 50.4664 28.7355 50.8508 28.7617C51.1723 28.788 51.526 28.9456 51.7189 29.1295C51.9118 29.3134 52.0404 29.6286 52.0404 29.865C52.0404 30.1015 51.944 30.3104 51.6867 30.5994C51.108 31.2561 49.2124 32.2544 47.8956 33.2777C46.3522 34.5124 44.7138 36.6653 43.074 37.531C41.8858 38.1615 40.5032 38.3454 39.4436 38.503C38.6397 38.6343 38.1574 38.3454 37.3229 38.6081C35.6188 39.1323 31.7633 42.7038 30.4128 42.9139C29.9305 42.9927 29.6733 42.8876 29.3518 42.6775C28.7745 42.3097 27.7777 40.9712 27.7777 40.3669C27.7777 39.9729 28.0992 39.789 28.4851 39.4212C29.1603 38.7657 30.8951 37.1895 31.8597 37.0056C32.437 36.8743 33.1444 37.0582 33.466 37.3209C33.7553 37.5573 33.8839 38.0564 33.8518 38.3979C33.8196 38.7132 33.6267 38.9758 33.3373 39.3162C32.8872 39.8941 31.8597 40.8923 31.0881 41.4165C30.445 41.8369 29.7055 42.1784 29.1282 42.336C28.7102 42.4411 28.3243 42.4936 27.9706 42.4411C27.6491 42.3885 27.3276 42.2309 27.1668 42.0207C26.9739 41.7843 26.8774 41.3115 26.9739 41.0237C27.0703 40.7873 27.3597 40.5508 27.5848 40.4195C27.7777 40.3144 28.1957 40.2356 28.2279 40.2881C28.2922 40.3669 27.0703 41.3115 26.9739 41.2589C26.9096 41.2076 27.1989 40.6822 27.4883 40.3407C27.9706 39.7627 28.9674 38.897 29.8984 38.2403C30.9273 37.4785 32.8229 35.9823 33.466 36.1136C33.8518 36.1925 33.8518 37.2158 34.0769 37.2421C34.3019 37.2683 34.8792 36.5077 34.8471 36.245C34.8149 36.0086 34.1733 35.9298 34.109 35.6933C34.0447 35.4569 34.2376 35.0629 34.4949 34.8527C34.7506 34.6163 35.3615 34.3285 35.7474 34.381C36.1975 34.4336 36.8406 34.9315 36.9692 35.3256C37.0978 35.7984 36.6155 37.0319 36.1975 37.137C35.8117 37.2421 34.7506 36.5865 34.6863 36.2187C34.6235 35.7984 35.5866 34.879 36.1332 34.7476C36.5512 34.6425 37.4179 34.8264 37.5465 35.0629C37.6751 35.2993 37.2586 35.8247 37.0335 36.1136C36.8406 36.3763 36.5512 36.639 36.2618 36.7179C35.9403 36.7967 35.4259 36.7441 35.2008 36.5602C34.9435 36.3763 34.6542 35.7721 34.8149 35.5094C34.9757 35.1942 36.1011 34.8002 36.4226 34.9052C36.6798 34.9841 36.8085 35.6145 36.8406 35.6145C36.8728 35.6145 36.4869 35.1417 36.5834 34.9841C36.6798 34.8002 37.2908 34.5912 37.643 34.6163C37.9645 34.6425 38.4468 34.8527 38.6076 35.1154C38.7684 35.4044 38.4468 36.2713 38.479 36.2713C38.5111 36.2713 38.8327 35.6671 38.7362 35.4306C38.6397 35.1942 37.8681 35.0103 37.9002 34.9052C37.9324 34.7739 39.0256 34.7476 39.4436 34.8527C39.7651 34.9315 40.053 35.0891 40.2138 35.273C40.3746 35.4569 40.471 35.7459 40.4389 35.9823C40.4067 36.2187 40.3103 36.4814 40.053 36.639C39.5722 36.9268 38.1253 36.7441 37.2586 36.9794C36.4548 37.1895 35.876 37.3997 35.04 37.8988C33.5946 38.7394 31.4096 40.9712 29.8341 41.9945C28.7102 42.73 27.5526 43.0453 26.7166 43.6483C26.0107 44.1474 25.4963 44.6465 25.014 45.2244C24.4995 45.8275 24.3387 46.9833 23.7614 47.2197C23.3434 47.4036 22.6039 47.2986 22.2824 47.0884C21.9608 46.8782 21.8322 46.1952 21.8965 45.9063C21.9287 45.7224 22.0573 45.5922 22.2502 45.4871C22.5396 45.3295 23.5042 45.5397 23.7293 45.3295C23.9207 45.1456 23.6007 44.8041 23.7614 44.4626C24.1137 43.7796 26.0107 42.2834 26.7166 41.7843C27.0382 41.5479 27.1989 41.4165 27.5205 41.3377C27.9706 41.2338 28.8066 41.1813 29.1603 41.3377C29.4482 41.4691 29.6411 41.758 29.6733 42.047C29.7055 42.4411 29.3196 43.0453 28.9674 43.5695C28.4851 44.2525 27.6169 45.1456 26.9417 45.7486C26.3966 46.2215 25.9464 46.5893 25.3355 46.9308C24.6924 47.2986 23.8243 47.6926 23.1827 47.824C22.7004 47.9278 22.1859 47.9804 21.8001 47.824C21.3821 47.6663 20.8369 47.2197 20.7726 46.8782C20.7405 46.5367 21.0942 46.0639 21.4785 45.8012C21.9608 45.4871 22.9898 45.1456 23.5685 45.2507C24.0494 45.3295 24.5638 45.7749 24.6924 46.0639C24.821 46.3003 24.7246 46.6155 24.596 46.8257C24.4674 47.0359 24.1137 47.4036 23.8886 47.3511C23.5364 47.2723 22.7004 45.566 22.9255 45.3295C23.0862 45.1719 24.1137 45.3821 24.4031 45.5922C24.6281 45.7486 24.7246 46.0902 24.7246 46.3266C24.7246 46.563 24.5638 46.852 24.4031 47.0359C24.2744 47.1935 23.9207 47.3774 23.8886 47.3511C23.8564 47.3248 24.596 46.6681 24.596 46.6681C24.596 46.6681 24.3387 47.1409 24.0494 47.3248C23.6328 47.5875 22.7325 47.824 22.1216 47.7977C21.6072 47.7714 20.9012 47.6138 20.644 47.3248C20.3868 47.0359 20.3868 46.4317 20.644 46.0639C20.9334 45.6185 22.3467 45.4871 22.7004 45.0143C23.0219 44.5677 23.1184 43.8847 22.829 43.3342C22.4431 42.5724 20.6119 41.9945 19.808 41.2076C19.0685 40.472 18.3304 39.395 18.1054 38.7394C17.9767 38.3454 17.9446 38.0564 18.1054 37.7674C18.2983 37.4522 18.9077 37.1107 19.3257 37.0056C19.6473 36.9268 19.9045 36.9531 20.3225 37.0582C21.1249 37.2683 22.6361 38.0827 23.6328 38.7657C24.6603 39.4475 25.9464 40.5508 26.3966 41.155C26.6202 41.4428 26.6845 41.653 26.6845 41.8894C26.6845 42.1258 26.5559 42.4411 26.3001 42.5987C25.9786 42.8088 25.432 42.9665 24.821 42.8351C23.3434 42.5461 19.3579 38.6081 18.1054 38.4767C17.6874 38.4242 17.3658 38.897 17.1729 38.792C16.9478 38.6869 16.8835 37.9251 17.0443 37.6098C17.2051 37.3471 17.6874 36.9794 17.9767 37.0056C18.3304 37.0319 18.9077 37.7149 18.972 38.0564C19.0363 38.3716 18.7791 38.7657 18.5219 38.9758C18.2983 39.1848 17.9446 39.2636 17.5266 39.3424C16.9157 39.4738 16.0475 39.5526 15.2452 39.4475C14.3127 39.3162 13.3481 39.0535 12.2563 38.4767C10.4557 37.531 7.43624 35.0891 6.05364 33.698C5.18549 32.8049 4.60819 32.123 4.2545 31.2561C3.90082 30.3892 3.90082 29.2871 3.99728 28.4728C4.09374 27.8172 4.28666 27.1605 4.64035 26.6876C4.92827 26.2936 5.28195 26.0571 5.7321 25.7944C6.27871 25.4804 6.98609 25.1914 7.75631 25.0338C8.65661 24.8499 9.94275 24.8499 10.9059 24.9287C11.774 25.0075 12.4493 25.0864 13.3481 25.4541C14.7307 26.0046 16.9157 27.2655 18.1054 28.3939C19.165 29.3922 19.808 30.6257 20.3225 31.7027C20.8048 32.6735 21.062 33.593 21.2213 34.5649C21.3821 35.5357 21.6072 36.8743 21.2535 37.5047C21.0299 37.8988 20.7083 38.109 20.1296 38.2928C18.9077 38.6869 15.2773 38.6869 13.7661 38.5818C12.8994 38.5293 12.4171 38.4505 11.7419 38.2403C11.0024 38.0039 10.295 37.7149 9.58906 37.2158C8.65661 36.534 7.56485 35.4044 6.95394 34.3285C6.34302 33.2514 6.08579 31.9129 5.89287 30.7833C5.69995 29.76 5.57134 28.5253 5.7321 27.8697C5.82856 27.5282 5.92502 27.3181 6.1501 27.1079C6.40733 26.8452 6.82532 26.53 7.24332 26.4775C7.72416 26.4249 8.56015 26.7402 8.91384 27.0028C9.20322 27.1867 9.26753 27.3969 9.42829 27.7121C9.65337 28.2101 9.65337 28.9981 9.94275 29.7074C10.3271 30.5994 11.549 31.9654 11.6454 32.621C11.7097 32.9362 11.6454 33.1726 11.4847 33.3565C11.2917 33.5667 10.8094 33.8031 10.4879 33.8294C10.2 33.8557 9.87844 33.7243 9.68552 33.593C9.46045 33.4616 9.39614 33.2777 9.23537 32.9888C8.91384 32.3595 8.36723 30.7045 8.20646 29.7862C8.07785 29.077 8.04569 28.499 8.17431 27.9223C8.30292 27.3444 8.528 26.53 8.94599 26.3198C9.29968 26.1359 9.81414 26.2673 10.3914 26.4775C11.5168 26.8715 14.2162 28.6566 14.7307 29.3922C14.9558 29.7074 14.9558 29.9964 14.8593 30.2316C14.7628 30.4681 14.377 30.7308 14.0876 30.7833C13.7339 30.8358 13.1873 30.7045 12.8994 30.4155C12.4171 29.865 12.4493 27.7909 12.5779 27.0817C12.6422 26.7402 12.7065 26.4775 12.9316 26.3461C13.1873 26.1885 13.6696 26.0834 14.0876 26.241C14.9558 26.5825 16.0475 28.9719 16.9157 29.9701C17.5587 30.6782 18.6183 31.2299 18.7148 31.729C18.7791 32.0442 18.5862 32.4634 18.3304 32.5684C18.0732 32.6735 17.4623 32.5684 17.2372 32.3332C16.8835 31.9917 16.8192 30.7308 17.0121 30.3104C17.1407 30.0752 17.398 29.9176 17.623 29.865C17.8803 29.8125 18.1697 29.8388 18.4576 30.0227C19.2293 30.5206 20.8691 33.5141 21.1249 34.4336C21.2213 34.8264 21.2213 35.1154 21.0942 35.3256C20.9977 35.4832 20.8048 35.5883 20.6119 35.6408C20.3868 35.6933 20.1617 35.6671 19.8402 35.5357C19.0363 35.2205 16.6263 33.6192 16.144 32.9888C15.9511 32.7261 15.8868 32.5159 15.9511 32.3332C16.0475 32.123 16.4334 31.8603 16.6906 31.8078C16.8835 31.7553 17.1407 31.8078 17.3015 31.9129C17.5266 32.0442 17.623 32.3069 17.816 32.621C18.1697 33.2252 19.0685 34.6163 19.1006 35.2993C19.1328 35.6933 19.0042 36.1136 18.747 36.2713C18.5219 36.4026 18.041 36.4289 17.6874 36.245C16.9157 35.8772 15.2773 33.6718 15.213 32.8837C15.1808 32.4896 15.4059 32.0705 15.6953 31.9654C15.9511 31.8603 16.562 31.9654 16.8514 32.2281C17.4301 32.7523 17.6552 35.0366 17.5909 35.7721C17.5587 36.1136 17.5266 36.3238 17.3337 36.4814C17.1086 36.639 16.6263 36.7704 16.2404 36.639C15.3416 36.2975 13.3159 33.4091 13.1873 32.5159C13.123 32.123 13.2838 31.729 13.541 31.6239C13.7982 31.5188 14.377 31.5714 14.6664 31.8078C15.1487 32.2019 14.9558 33.5404 15.2452 34.4073C15.5667 35.3256 16.4977 36.6128 16.562 37.2158C16.5941 37.5047 16.5941 37.7149 16.4334 37.8463C16.2726 38.0039 15.8546 38.1615 15.5345 38.0564C14.5699 37.7412 12.6422 33.6455 11.7097 32.5422C11.2596 32.0442 10.713 31.8341 10.6165 31.4926C10.5522 31.2299 10.6808 30.8621 10.8737 30.757C11.0667 30.6519 11.4203 30.6257 11.6776 30.7833C12.3206 31.2036 13.3481 34.276 13.3159 35.0891C13.3159 35.4044 13.1873 35.6408 12.9944 35.7721C12.8351 35.8772 12.4493 35.8772 12.2563 35.8247C12.0956 35.7721 11.967 35.6671 11.8383 35.5094C11.549 35.1679 11.3882 34.3285 11.0345 33.7506C10.6487 33.1464 9.62121 32.4371 9.4926 31.9654C9.42829 31.7027 9.4926 31.3875 9.65337 31.2561C9.81414 31.1248 10.2321 31.046 10.5201 31.1511C11.0667 31.3875 11.8705 33.015 12.0634 33.5667C12.1599 33.8557 12.192 34.0395 12.0956 34.2234C11.9991 34.4073 11.6776 34.5649 11.4525 34.6163C11.2596 34.6425 11.0667 34.6163 10.8416 34.5124C10.4557 34.3022 9.68552 33.593 9.65337 33.1726C9.62121 32.8574 9.94275 32.3857 10.2321 32.2807C10.4879 32.1756 10.9702 32.2807 11.2596 32.5159C11.7419 32.9362 12.1277 34.5912 12.1277 35.1942C12.1277 35.5094 12.0313 35.7721 11.8705 35.9298C11.7097 36.0611 11.4525 36.1662 11.2274 36.1662C11.0024 36.1662 10.7773 36.1399 10.5522 36.0086C10.1035 35.7459 9.65337 34.7739 9.13891 34.3285C8.72092 33.9607 7.94923 33.7506 7.82062 33.4091C7.72416 33.0938 7.94923 32.5422 8.20646 32.3857C8.46369 32.2544 8.91384 32.3069 9.33183 32.4634C10.0392 32.7261 11.4203 33.7506 11.7097 34.3285C11.8705 34.6688 11.8383 35.0891 11.6776 35.2993C11.5168 35.4832 11.0988 35.6408 10.8416 35.6408C10.6165 35.6408 10.3914 35.6145 10.1678 35.4306C9.65337 35.0366 8.84953 33.2252 8.75307 32.5422C8.72092 32.1756 8.72092 31.8603 8.94599 31.6765C9.17107 31.4926 9.58906 31.3612 10.0392 31.4926C11.2596 31.8341 14.6342 36.7704 15.5345 36.848C15.7903 36.8743 16.0154 36.5077 16.0475 36.534C16.0797 36.5602 15.6953 37.137 15.4381 37.2158C15.1808 37.2946 14.795 37.1632 14.4735 37.0056C14.0233 36.7704 13.1873 36.0348 13.1552 35.6408C13.123 35.3781 13.3481 35.0891 13.6375 34.9578C14.0876 34.7739 15.1808 35.0103 15.9832 35.1942C16.9157 35.4044 18.4576 35.8247 18.9077 36.245C19.165 36.4814 19.2293 36.8229 19.165 37.0582C19.1328 37.2683 18.972 37.4522 18.7148 37.5836C18.1697 37.8463 16.6263 37.8988 15.6953 37.9251C14.9236 37.9251 14.1519 37.9513 13.5089 37.7412C12.8673 37.531 12.2563 37.0844 11.774 36.6916C11.356 36.3501 11.0345 36.1662 10.8094 35.6145C10.3271 34.4861 11.1953 30.5206 10.5201 29.8913C10.2643 29.6549 9.81414 29.865 9.52475 29.7337C9.26753 29.6024 8.97814 29.3922 8.88168 29.1558C8.78522 28.8931 8.78522 28.499 8.94599 28.2626C9.0746 28.0524 9.36399 27.896 9.62121 27.8435C9.9106 27.7909 10.295 27.7909 10.6808 27.9999C11.5168 28.4465 12.6743 30.8621 13.4446 31.5714C13.8626 31.9392 14.377 31.9917 14.5699 32.2807C14.7307 32.5684 14.795 33.0676 14.6021 33.304C14.4092 33.5404 13.7339 33.8031 13.4124 33.6718C12.7708 33.4091 12.5779 30.9409 12.192 30.1277C11.967 29.6549 11.8705 29.3922 11.5811 29.077C11.2596 28.7092 10.4557 28.4465 10.2321 28.105C10.1035 27.8697 10.0714 27.6333 10.1357 27.4232C10.2 27.213 10.3593 26.9766 10.5844 26.8715C10.8416 26.7402 11.2274 26.6351 11.6776 26.7402C12.5457 26.924 14.1198 28.1838 15.1165 28.9981C16.0475 29.76 16.9478 30.6782 17.5909 31.4663C18.1054 32.0968 18.7148 32.7786 18.747 33.3303C18.7791 33.7506 18.5219 34.276 18.1697 34.4861C17.8481 34.6688 17.2051 34.5912 16.7228 34.5387C16.2404 34.4861 15.6953 34.3285 15.3095 34.0921C14.9236 33.8557 14.6985 33.5141 14.4735 33.0938C14.1519 32.5422 13.6375 31.4926 13.7018 30.9672C13.7339 30.6519 13.959 30.363 14.2162 30.2054C14.4413 30.0752 14.7628 30.0227 15.0201 30.0752C15.3416 30.154 15.8225 30.4418 15.9832 30.7833C16.2083 31.2299 16.144 32.2019 15.8868 32.5947C15.6953 32.8837 15.3095 33.0938 14.9879 33.1201C14.6342 33.1464 14.0876 32.8574 13.7982 32.5947C13.4767 32.3069 13.2195 31.729 13.1873 31.3875C13.1552 31.1248 13.1873 30.8884 13.3481 30.7045C13.541 30.4943 13.9912 30.2316 14.3127 30.2316C14.6342 30.2316 15.0201 30.3367 15.3095 30.6257C15.8546 31.1773 15.631 32.8574 16.4012 33.9082C17.3658 35.273 19.5186 36.2187 21.2856 37.82C23.7614 40.0517 27.9063 44.2787 29.4804 46.3266C30.2842 47.3774 30.9916 48.2956 31.0237 48.8735C31.0237 49.1625 30.8951 49.3464 30.7022 49.504C30.4771 49.6616 29.9627 49.793 29.6411 49.7667C29.3839 49.7404 29.1925 49.6354 28.9352 49.4252C28.2279 48.8473 26.7166 46.4579 26.1072 45.4083C25.7535 44.7779 25.432 44.2525 25.3677 43.8584C25.3355 43.622 25.3677 43.4393 25.4641 43.2554C25.5606 43.0715 25.8178 42.8614 26.0429 42.7826C26.268 42.7038 26.6202 42.6512 26.8774 42.7563C27.1989 42.8876 27.2954 43.4644 27.6491 43.622C27.9706 43.7796 28.4208 43.5695 28.8709 43.7008C29.6411 43.9372 31.7311 44.988 31.699 45.3295C31.6668 45.5397 31.0237 45.7486 30.5093 45.7224C29.5125 45.6448 26.9096 44.1999 26.3323 43.5432C26.075 43.2291 26.0107 42.9139 26.075 42.6775C26.1393 42.4673 26.3001 42.2309 26.5559 42.1258C26.8774 41.9945 27.3597 41.9419 27.8742 42.1258C28.9995 42.4936 31.9226 44.9092 32.3406 45.6698C32.5013 45.9588 32.4692 46.1427 32.3727 46.3529C32.2441 46.5893 31.8597 46.8782 31.5704 46.9571C31.3131 47.0359 31.0237 46.9833 30.7344 46.8782C30.3164 46.7469 29.4804 46.4054 29.4161 46.0902C29.3196 45.7486 29.9948 44.8567 30.3485 44.8567C30.8308 44.8567 32.2763 46.8257 32.0512 47.1147C31.8919 47.3248 30.4128 47.1935 30.3807 47.0621C30.3485 46.9571 30.9273 46.563 31.2488 46.5893C31.7311 46.6418 32.63 47.6138 32.8229 48.0329C32.9515 48.2693 32.9193 48.5058 32.8229 48.6897C32.7264 48.8735 32.5335 49.11 32.2763 49.1888C31.9547 49.2939 31.4096 49.2676 30.9916 49.0574C30.1878 48.6634 28.8388 46.7469 28.5815 46.0902C28.4851 45.8275 28.4851 45.6448 28.5494 45.4609C28.6137 45.277 28.8388 45.0668 29.0638 44.988C29.3196 44.8829 29.6733 44.8567 30.0591 44.9618C30.7987 45.1719 32.5978 46.3003 32.9193 46.9045C33.1123 47.246 33.048 47.7189 32.8229 47.9278C32.5978 48.138 31.8919 48.2431 31.6025 48.1905C31.4096 48.1643 31.281 48.0855 31.1845 47.9541C31.0237 47.7451 31.2167 47.1409 31.0881 46.852C30.9916 46.6418 30.6701 46.563 30.6701 46.3791C30.6379 46.1164 30.9916 45.5922 31.3131 45.4609C31.6347 45.3295 32.1477 45.4346 32.5657 45.6185C33.1444 45.88 33.9804 46.7994 34.2055 47.246C34.3341 47.4824 34.3341 47.6926 34.2698 47.8765C34.2055 48.0855 34.0126 48.3219 33.7875 48.427C33.5946 48.532 33.273 48.6108 33.0158 48.5583C32.7264 48.5058 32.1798 48.2431 32.1798 48.0329C32.1798 47.7977 33.0801 47.1672 33.4016 47.1672C33.6267 47.1672 33.9161 47.3774 33.9804 47.5613C34.0769 47.7714 33.8839 48.2168 33.691 48.4007C33.5303 48.5583 33.1766 48.6634 32.9193 48.6897C32.6621 48.7159 32.437 48.6634 32.1477 48.5058C31.4096 48.1117 29.5125 46.1164 29.2232 45.4609C29.096 45.1982 29.1282 45.0143 29.2232 44.8304C29.3518 44.6202 29.6733 44.3575 29.9627 44.305C30.2521 44.2525 30.7344 44.305 30.9594 44.4889C31.2167 44.6991 30.9916 45.2244 31.1845 45.6448C31.4417 46.274 32.6943 47.2723 32.6621 47.7977C32.6621 48.1117 32.3727 48.3744 32.1155 48.5058C31.8597 48.6371 31.4739 48.6371 31.1202 48.5583C30.6058 48.427 29.4482 47.7714 29.4161 47.4299C29.3839 47.1935 29.8019 46.852 30.1234 46.7994C30.4771 46.7206 31.281 46.9571 31.506 47.1935C31.699 47.4036 31.7311 47.824 31.6347 48.0592C31.5382 48.2956 31.1845 48.5583 30.863 48.6371C30.5093 48.7159 29.8662 48.6371 29.5768 48.4532C29.3196 48.2956 29.1282 47.9278 29.1603 47.6663C29.2232 47.3774 29.609 47.0096 29.9948 46.852C30.4771 46.6681 31.4417 46.6681 31.8919 46.8782C32.2763 47.0359 32.6621 47.5087 32.6621 47.7977C32.6621 48.0855 32.1477 48.5846 31.7954 48.6634C31.506 48.7422 30.9916 48.6108 30.7665 48.427C30.5414 48.2431 30.3485 47.8502 30.4128 47.5875C30.4771 47.3248 30.7665 46.9833 31.0559 46.9045C31.4096 46.7994 32.1477 46.9308 32.4049 47.1409C32.63 47.3248 32.7264 47.7451 32.63 48.0066C32.5335 48.2431 32.2441 48.5058 31.8919 48.6371C31.4417 48.7947 30.5414 48.821 30.0591 48.6634C29.6733 48.532 29.2232 48.1643 29.1603 47.8765C29.096 47.6138 29.2553 47.246 29.5125 47.0621C29.8019 46.8782 30.4771 46.7994 30.8308 46.852C31.1202 46.9045 31.3774 47.0096 31.506 47.1935C31.6668 47.4036 31.7633 47.824 31.6347 48.0592C31.506 48.3219 30.9916 48.6371 30.6058 48.6634C30.1556 48.6897 29.4482 48.2956 29.0638 48.0329C28.7745 47.824 28.5172 47.5875 28.4208 47.2986C28.2922 46.9571 28.26 46.274 28.5494 46.0376C28.8709 45.7749 29.8019 45.7224 30.4128 45.8537C31.1202 46.0113 32.1155 46.7206 32.4049 47.1935C32.63 47.535 32.63 47.9804 32.5013 48.2168C32.4049 48.4007 32.1155 48.5583 31.8919 48.6108C31.6668 48.6634 31.3774 48.6634 31.1202 48.5583C30.6701 48.3744 30.0591 47.6926 29.7376 47.1409C29.3839 46.5367 28.9995 45.5397 29.1603 45.0406C29.2553 44.6991 29.6411 44.3838 29.9627 44.305C30.2842 44.2262 30.7344 44.3575 31.1524 44.594C31.9547 45.0406 33.5946 46.6944 33.9161 47.3248C34.0447 47.6138 34.0447 47.7977 33.9804 48.0066C33.9161 48.2168 33.691 48.4532 33.466 48.5583C33.2409 48.6634 32.9193 48.7159 32.6621 48.6897C32.4049 48.6634 32.1155 48.532 31.9226 48.3482C31.6668 48.0855 31.3774 47.4299 31.4739 47.0621C31.5704 46.7206 32.0834 46.3266 32.437 46.2478C32.7586 46.169 33.2409 46.3529 33.5303 46.5367C33.8518 46.7469 34.2698 47.1409 34.3019 47.4562C34.3341 47.7714 34.0447 48.2431 33.7875 48.427C33.5946 48.5583 33.273 48.5846 33.0158 48.5583C32.7586 48.532 32.5657 48.4007 32.3084 48.2168C31.8276 47.8765 30.7665 46.852 30.6701 46.3791C30.6058 46.1164 30.7344 45.9063 30.8951 45.7486C31.0559 45.5922 31.3131 45.4083 31.5704 45.3821C31.8919 45.3558 32.4692 45.5134 32.7264 45.7749C33.048 46.0902 33.1766 46.9045 33.0801 47.3248C32.9836 47.6663 32.6943 48.0329 32.4049 48.1643C32.1155 48.2693 31.7633 48.2168 31.3774 48.0855C30.6701 47.8502 29.096 46.8257 28.7102 46.274C28.5172 45.9851 28.4851 45.6698 28.5494 45.4609C28.6137 45.277 28.8388 45.0668 29.0638 44.988C29.3518 44.8829 29.8662 44.8829 30.2842 45.0931C31.0881 45.4871 32.5657 47.3774 32.8229 48.0329C32.9193 48.3219 32.9193 48.5058 32.8229 48.6897C32.7264 48.8735 32.5013 49.0837 32.2763 49.1888C32.0512 49.2939 31.7311 49.3201 31.4739 49.2676C31.2488 49.2151 31.0559 49.11 30.8308 48.9524C30.445 48.6634 29.7376 48.0329 29.5447 47.5087C29.3518 46.9833 29.3518 46.0113 29.7055 45.7749C30.027 45.566 31.0881 45.8012 31.506 46.0376C31.8597 46.2478 32.0512 46.6155 32.1477 46.9833C32.2441 47.3774 32.3084 48.138 32.019 48.3219C31.699 48.532 30.6379 48.2956 30.0591 47.9541C29.2553 47.4562 28.0028 45.8275 28.1314 45.1456C28.2279 44.6728 28.9352 44.0949 29.5125 44.0686C30.2842 44.016 32.0834 45.1194 32.3406 45.6698C32.5013 46.0113 32.2763 46.5105 32.0512 46.7206C31.8597 46.9045 31.5382 46.9833 31.281 46.9833C31.0237 46.9833 30.8308 46.9308 30.5093 46.7732C29.609 46.3266 26.6202 44.1211 26.1715 43.3605C26.0107 43.0715 25.9786 42.8876 26.075 42.6775C26.1715 42.4411 26.493 42.0996 26.8131 42.0207C27.1989 41.9157 27.7134 42.0733 28.26 42.3097C29.2875 42.7563 31.506 44.2262 32.019 45.1456C32.3406 45.7224 32.4049 46.6418 32.0512 46.8782C31.699 47.1147 30.7344 46.852 29.9627 46.6155C28.8388 46.274 26.8453 45.1719 26.1072 44.5677C25.7213 44.2525 25.432 43.9635 25.3677 43.7008C25.3355 43.5432 25.3677 43.3868 25.4641 43.2554C25.6249 43.0715 26.0107 42.7826 26.3323 42.73C26.6523 42.6775 27.0703 42.7826 27.3276 42.9927C27.6812 43.2817 27.6812 43.8847 28.0349 44.4889C28.6459 45.5134 30.6058 47.6138 30.9273 48.4007C31.0559 48.7159 31.0559 48.8735 30.9916 49.0837C30.9273 49.2939 30.7022 49.5303 30.4771 49.6354C30.2521 49.7404 29.8984 49.793 29.6411 49.7667C29.3518 49.7142 29.1282 49.6091 28.8388 49.3727C28.2922 48.9261 27.9385 47.9278 27.1025 46.9045C25.5927 45.0668 22.411 41.6004 20.1617 39.4212C18.2661 37.6098 15.726 36.245 14.6021 34.6425C13.7339 33.4091 12.9637 31.6239 13.2516 30.9146C13.4124 30.5469 13.959 30.2579 14.3127 30.2316C14.6342 30.2054 15.0522 30.3892 15.3095 30.6257C15.6631 30.9409 16.0154 31.7815 16.0154 32.1756C16.0154 32.4371 15.8868 32.6472 15.726 32.8049C15.5667 32.9625 15.2773 33.1201 14.9879 33.1201C14.6342 33.1201 14.0233 32.9099 13.7982 32.5947C13.5089 32.2019 13.541 31.2036 13.7661 30.757C13.959 30.4155 14.377 30.0752 14.7307 30.0489C15.0844 30.0227 15.5667 30.2579 15.8868 30.5731C16.4012 31.046 17.0443 32.2807 17.0443 32.8837C17.0443 33.2777 16.8514 33.8031 16.5941 33.8294C16.0797 33.8819 14.795 31.335 13.8304 30.5206C13.0587 29.8913 12.0956 29.5761 11.4525 29.1032C10.9059 28.7092 10.2643 28.2889 10.1357 27.896C10.0392 27.607 10.1678 27.2393 10.3914 27.0291C10.6165 26.819 11.0024 26.6613 11.3882 26.6876C11.9348 26.7402 12.7386 27.213 13.2516 27.7647C14.0233 28.5778 14.6985 30.6257 14.8915 31.5188C14.9879 31.9917 15.0522 32.5947 14.8915 32.6472C14.7307 32.6998 13.8947 31.9392 13.9269 31.9129C13.9269 31.8866 14.4413 32.123 14.5699 32.2807C14.7307 32.4371 14.8593 32.6998 14.795 32.9099C14.7307 33.1726 14.3449 33.6192 13.959 33.6718C13.4767 33.7506 12.7386 33.4091 12.0956 32.9888C11.0345 32.2807 9.17107 30.0227 8.88168 29.1558C8.75307 28.788 8.78522 28.499 8.94599 28.2626C9.10676 28.0524 9.4926 27.8172 9.87844 27.8172C10.4879 27.8172 11.774 28.4465 12.2242 28.8668C12.5136 29.1295 12.5779 29.3659 12.6743 29.76C12.8673 30.5206 12.6743 32.123 12.8029 33.0938C12.8994 33.8294 12.8994 34.5649 13.2838 35.0629C13.6375 35.5094 14.2484 35.8247 14.9558 36.0086C15.8868 36.245 17.7517 35.7459 18.4576 35.9823C18.8434 36.1136 19.1006 36.3763 19.165 36.6128C19.2293 36.848 19.1006 37.2683 18.9077 37.4522C18.747 37.6098 18.4897 37.6886 18.234 37.7412C17.9446 37.7937 17.7195 37.7674 17.3015 37.6624C16.3048 37.4522 13.3481 36.4552 12.5136 35.9035C12.1277 35.6671 11.9348 35.4832 11.8705 35.1942C11.774 34.8527 11.9348 34.1972 12.2242 34.0133C12.5136 33.8294 13.0909 33.8819 13.5089 34.0395C14.0876 34.2234 14.7628 34.9315 15.213 35.3781C15.5667 35.7459 16.0797 36.1925 16.0475 36.534C16.0475 36.7967 15.6953 37.137 15.4381 37.2158C15.1808 37.2946 14.6664 37.1632 14.4735 37.0056C14.3127 36.848 14.2484 36.5602 14.2805 36.3501C14.3127 36.0874 14.5699 35.6145 14.8272 35.5883C15.1487 35.562 15.9832 36.1925 16.0475 36.5077C16.0797 36.7704 15.726 37.2683 15.4059 37.3471C14.9879 37.4522 14.2162 37.0056 13.5089 36.5865C12.2242 35.7984 9.0746 33.4353 8.75307 32.5422C8.62446 32.1756 8.72092 31.8603 8.94599 31.6765C9.17107 31.4926 9.68552 31.3612 10.0392 31.4926C10.713 31.7553 11.6776 33.8294 11.8062 34.5124C11.8705 34.8527 11.8383 35.1154 11.6776 35.2993C11.5168 35.4832 11.0988 35.6408 10.8416 35.6408C10.6165 35.6408 10.4236 35.5883 10.1678 35.4306C9.58906 35.1154 7.98139 34.0133 7.82062 33.4091C7.72416 33.0413 7.91708 32.5422 8.20646 32.3857C8.49584 32.2281 9.13891 32.3332 9.58906 32.5422C10.2643 32.8311 11.1953 33.8819 11.6133 34.381C11.8705 34.6951 12.0956 34.9315 12.1277 35.1942C12.1599 35.4306 12.0313 35.7721 11.8705 35.9298C11.7097 36.0611 11.4525 36.1662 11.2274 36.1662C11.0024 36.1662 10.7451 36.1399 10.5522 36.0086C10.2643 35.7721 10.1035 35.1154 9.94275 34.6425C9.78198 34.1183 9.4926 33.4091 9.62121 32.9888C9.71767 32.6735 9.9749 32.3595 10.2321 32.2807C10.5201 32.2019 10.9702 32.3069 11.2596 32.5159C11.6776 32.8049 12.2563 33.698 12.1599 34.0658C12.0956 34.3285 11.7097 34.5912 11.4525 34.6163C11.1953 34.6425 10.8094 34.5124 10.5522 34.276C10.0714 33.8557 9.42829 32.3332 9.42829 31.8078C9.42829 31.5714 9.4926 31.3612 9.65337 31.2561C9.84629 31.1248 10.2321 31.0723 10.5201 31.1511C10.9059 31.2824 11.2274 31.7553 11.5811 32.2281C12.1277 32.9099 13.1552 34.276 13.2516 34.9315C13.2838 35.273 13.1873 35.6408 12.9944 35.7721C12.8351 35.8772 12.4493 35.8772 12.2563 35.8247C12.0956 35.7721 11.967 35.6933 11.8383 35.5094C11.4847 35.0366 11.0024 33.4353 10.8094 32.621C10.6487 32.0442 10.4557 31.4138 10.5844 31.0985C10.6487 30.9146 10.8416 30.757 11.0345 30.7045C11.2274 30.6519 11.4203 30.6519 11.6776 30.7833C12.6743 31.3087 16.4655 36.0874 16.562 37.2158C16.5941 37.6098 16.3369 37.9251 16.1118 38.0301C15.9189 38.1352 15.5667 38.0827 15.3738 38.0039C15.213 37.9251 15.1165 37.82 14.9879 37.6361C14.6342 37.137 14.0555 35.7196 13.7339 34.7476C13.4446 33.8294 12.9637 32.5159 13.1552 32.018C13.2516 31.7815 13.5089 31.6239 13.7339 31.5714C13.9912 31.5188 14.3127 31.5977 14.6664 31.8078C15.4702 32.3332 17.4623 34.9841 17.5909 35.7721C17.6552 36.0874 17.5266 36.3238 17.3337 36.4814C17.1086 36.639 16.5298 36.7179 16.2404 36.639C16.0154 36.5865 15.8868 36.4552 15.7581 36.245C15.5024 35.851 15.3738 34.8264 15.2773 34.1709C15.1808 33.593 14.9879 32.9099 15.1808 32.5159C15.3095 32.2281 15.631 31.9654 15.9189 31.9129C16.2083 31.8603 16.5298 31.9917 16.8514 32.2281C17.5587 32.7261 19.0685 34.7214 19.1328 35.4569C19.165 35.7984 19.0042 36.1399 18.747 36.2713C18.5219 36.4026 18.0089 36.4289 17.6874 36.245C17.0121 35.851 16.0154 33.3828 15.9511 32.6735C15.9189 32.3857 16.0154 32.2019 16.144 32.0442C16.2726 31.9129 16.4655 31.8078 16.6906 31.8078C17.0443 31.8078 17.4944 32.0968 18.0089 32.3857C18.8756 32.8837 21.0299 34.1972 21.157 34.8264C21.2213 35.1417 20.8691 35.562 20.6119 35.6408C20.3546 35.7196 19.8402 35.5357 19.583 35.2993C19.2614 35.0103 19.4222 34.381 19.1328 33.8031C18.7148 32.9362 16.98 31.3612 16.9478 30.6782C16.9478 30.3367 17.1729 30.0227 17.4301 29.9176C17.6874 29.8125 18.234 29.8388 18.4576 30.0227C18.8113 30.3104 18.9077 31.5977 18.7791 32.0442C18.7148 32.2807 18.5219 32.4896 18.3304 32.5684C18.1054 32.6472 17.8481 32.6998 17.5266 32.5684C16.4655 32.1493 12.6743 28.1312 12.5779 27.0817C12.5457 26.6876 12.8351 26.3724 13.123 26.241C13.4124 26.1097 14.0233 26.241 14.2805 26.3724C14.4735 26.4775 14.5378 26.6351 14.6342 26.8978C14.8593 27.502 15.213 29.3659 14.9236 30.0227C14.7628 30.3892 14.4092 30.7045 14.0876 30.7833C13.7982 30.8621 13.4767 30.757 13.0909 30.5731C12.2563 30.2054 9.84629 28.8405 9.68552 28.1575C9.58906 27.7647 10.2643 27.0291 10.4236 27.0554C10.6487 27.1079 10.295 28.788 10.4879 29.5761C10.6487 30.2842 11.2596 30.9672 11.4525 31.5714C11.6133 32.0442 11.774 32.5422 11.6776 32.9099C11.5811 33.2252 11.3239 33.5667 11.0667 33.698C10.8416 33.8294 10.4557 33.8557 10.2 33.8031C9.94275 33.7506 9.71767 33.6718 9.46045 33.4353C8.84953 32.8837 7.65985 30.9934 7.30762 29.9701C7.0504 29.2608 6.79317 28.2363 7.08255 28.0262C7.30762 27.8697 8.11 27.9999 8.33507 28.2363C8.65661 28.5516 8.23861 29.4185 8.33507 30.1277C8.46369 31.0197 8.88168 32.4896 9.23537 33.1726C9.42829 33.5667 9.58906 33.698 9.84629 34.0133C10.2 34.4336 10.6808 35.0891 11.2596 35.4832C11.8383 35.8772 12.4493 36.1399 13.3159 36.3238C14.6664 36.6128 17.9767 37.2683 18.7148 36.639C19.3579 36.0611 18.4254 34.1446 18.041 33.0676C17.7195 32.0968 17.4623 31.2824 16.6906 30.4418C15.6631 29.3397 13.5732 27.8172 11.9348 27.3181C10.5844 26.924 8.68876 26.924 7.82062 27.213C7.30762 27.3969 7.01824 27.7384 6.79317 28.1312C6.53594 28.5778 6.40733 29.2346 6.53594 29.8388C6.72886 30.6257 7.40408 31.6239 8.20646 32.4371C9.13891 33.4091 11.131 34.4073 11.9991 35.1942C12.5136 35.6671 12.61 36.1399 13.123 36.4814C13.6696 36.8743 14.6664 37.2421 15.2452 37.3471C15.631 37.4259 15.9189 37.2158 16.2404 37.3471C16.7228 37.5836 17.7195 38.8445 17.5587 39.106C17.4301 39.3162 16.4334 39.2636 16.0475 39.1323C15.6953 39.0284 15.3738 38.7657 15.2452 38.503C15.0844 38.1878 15.0201 37.6098 15.3095 37.2946C15.6631 36.9005 17.0443 36.6916 17.6874 36.6128C18.1054 36.5602 18.234 36.534 18.7148 36.6653C20.1296 37.0844 25.5606 40.2093 26.3966 41.155C26.6523 41.4428 26.6845 41.653 26.6845 41.8894C26.6845 42.1258 26.493 42.4411 26.3001 42.5987C26.1072 42.7826 25.7213 42.9139 25.432 42.9139C25.1426 42.9139 24.8532 42.8614 24.5317 42.6775C23.9529 42.3622 23.4078 41.3903 22.6682 40.8135C21.8644 40.1831 20.0653 39.6051 19.9045 39.0284C19.808 38.6606 20.2903 37.9251 20.5797 37.9251C20.9977 37.9251 21.4785 39.5 22.1859 40.1831C22.9576 40.9449 24.5638 41.5216 25.0783 42.2046C25.432 42.6775 25.432 43.0978 25.4963 43.5957C25.5606 44.1211 25.4963 44.7779 25.3677 45.2507C25.2712 45.6448 25.1426 45.9325 24.8532 46.2478C24.4352 46.6944 23.4721 47.3248 22.8611 47.5613C22.4431 47.7189 22.0895 47.824 21.7358 47.7977C21.4142 47.7714 21.062 47.6663 20.8369 47.5087C20.6119 47.3511 20.4511 47.0621 20.4189 46.8257C20.3868 46.5893 20.4511 46.274 20.644 46.0639C20.8691 45.8275 21.4464 45.5397 21.7358 45.5922C21.9608 45.6185 22.0573 46.0639 22.2181 46.0639C22.4431 46.0639 22.6361 45.4609 22.9255 45.3295C23.1827 45.2244 23.6007 45.2507 23.8564 45.3033C24.0815 45.3558 24.2744 45.4609 24.4031 45.5922C24.5638 45.7749 24.7567 46.0639 24.7246 46.3266C24.6603 46.6418 24.1458 47.3774 23.8886 47.3511C23.5364 47.3248 22.7004 45.5922 22.9255 45.3295C23.0541 45.1719 23.6007 45.2244 23.8886 45.3033C24.178 45.3821 24.4674 45.6185 24.596 45.8275C24.7246 46.0376 24.7889 46.3529 24.7246 46.5893C24.6603 46.8257 24.4674 47.0359 24.178 47.2197C23.6971 47.5087 22.3788 47.9278 21.8001 47.824C21.3821 47.7451 20.9977 47.4299 20.8691 47.1409C20.7405 46.852 20.7405 46.4317 20.9977 46.1427C21.4464 45.6698 23.1505 45.6698 24.1137 45.0931C25.2712 44.3838 26.5559 41.8369 27.1989 41.8631C27.5205 41.8894 27.5848 42.5724 27.8742 42.7826C28.1314 42.9665 28.7102 42.9402 28.7423 43.1503C28.8066 43.5432 26.8453 44.5414 26.2358 45.1982C25.7535 45.6961 25.5606 46.274 25.1747 46.6418C24.8532 46.9308 24.5638 47.1672 24.178 47.2723C23.7614 47.4036 22.6682 47.2986 22.6682 47.2723C22.6682 47.246 24.0172 47.0359 24.0172 47.0621C24.0172 47.0621 23.1827 47.4036 22.829 47.3248C22.4753 47.246 22.0252 46.9308 21.8965 46.6681C21.7679 46.4317 21.8322 46.1952 21.8965 45.9063C21.993 45.5134 22.1859 45.0143 22.5075 44.5414C22.9255 43.8847 23.5685 43.1241 24.4031 42.4673C25.4963 41.6004 27.3597 40.9449 28.7745 39.9729C30.3485 38.9233 32.0834 37.137 33.3695 36.3501C34.1733 35.851 34.6542 35.562 35.5223 35.3256C36.6155 35.0103 38.6076 34.6163 39.4436 34.8527C39.958 34.9841 40.3424 35.4044 40.4389 35.7196C40.5032 36.0086 40.2781 36.4289 40.053 36.639C39.8294 36.8229 39.4757 36.9005 39.0899 36.9531C38.5111 37.0056 37.3536 36.9531 36.9049 36.7179C36.5834 36.534 36.4226 36.245 36.3583 35.956C36.294 35.6671 36.3583 35.2205 36.5834 34.9841C36.8085 34.7739 37.2908 34.5912 37.643 34.6163C37.9645 34.6425 38.4468 34.8527 38.6076 35.1154C38.7684 35.4044 38.704 35.9823 38.479 36.2713C38.2539 36.5602 37.643 36.848 37.1621 36.8743C36.6798 36.9268 35.9403 36.7441 35.5866 36.4552C35.2651 36.1925 35.1043 35.6145 35.1043 35.2467C35.1043 34.9578 35.2651 34.6688 35.458 34.4336C35.6188 34.1972 35.876 33.987 36.1654 33.8557C36.4869 33.7243 36.9692 33.6455 37.3229 33.698C37.6751 33.7506 38.1253 34.0133 38.3182 34.2497C38.5111 34.4599 38.6076 34.8002 38.5754 35.0629C38.5433 35.3518 38.3182 35.6671 38.1253 35.9298C37.9324 36.1662 37.7394 36.4026 37.4501 36.534C37.13 36.6916 36.2618 36.8743 36.1975 36.7967C36.1332 36.7179 37.0335 36.1136 37.0335 36.1136C37.0335 36.1136 36.5512 36.639 36.2618 36.7179C35.9403 36.7967 35.4259 36.7441 35.2008 36.5602C34.9114 36.3501 34.7506 35.7721 34.8471 35.3518C34.9757 34.8264 35.7795 34.0921 36.2618 33.7768C36.5834 33.5667 36.9049 33.4091 37.2586 33.3828C37.6108 33.3565 38.1253 33.4091 38.3504 33.6192C38.6397 33.8557 38.7362 34.4073 38.6397 34.8527C38.5111 35.4306 37.6751 36.245 37.2264 36.7441C36.9049 37.1107 36.6155 37.4259 36.2618 37.6098C35.9725 37.7674 35.6831 37.9251 35.3294 37.8988C34.8792 37.8725 34.109 37.5573 33.8839 37.2421C33.691 36.9794 33.7553 36.5865 33.8839 36.2713C34.0126 35.9298 34.4306 35.2993 34.7828 35.273C35.2008 35.2467 36.2297 36.0611 36.2297 36.3763C36.2297 36.639 35.7152 36.8743 35.3294 37.0582C34.8471 37.2683 34.0126 37.5836 33.5624 37.5047C33.2087 37.4522 32.855 37.1632 32.7586 36.9005C32.63 36.5865 32.8229 35.8772 33.0801 35.6145C33.3052 35.4044 33.7232 35.2993 34.0447 35.2993C34.3984 35.2993 34.8792 35.3518 35.1365 35.5883C35.4902 35.9298 35.7474 36.8743 35.4259 37.4522C35.0079 38.2666 32.6621 38.9233 31.7311 39.6577C31.0559 40.1831 30.7022 40.8135 30.1878 41.2589C29.7698 41.6004 28.9995 42.1521 28.9674 42.1258C28.9352 42.0996 29.5768 41.4428 29.5447 41.4165C29.5125 41.3903 28.7423 42.4148 28.2922 42.4673C27.9385 42.5199 27.3919 42.2572 27.1668 42.0207C26.9417 41.7843 26.8131 41.364 26.9739 41.0237C27.3276 40.3669 29.7698 39.1848 30.6379 38.8445C31.0559 38.6869 31.281 38.6081 31.6347 38.6081C32.0834 38.6081 33.048 38.6343 33.1123 38.8708C33.2409 39.2374 30.7344 41.1813 30.2842 41.0762C30.027 40.9974 29.9305 39.9729 30.027 39.9466C30.1234 39.9204 30.9916 40.7085 30.8951 40.8661C30.7987 40.9974 29.7376 41.05 29.6733 40.8923C29.5125 40.5508 33.466 38.0039 34.8149 37.2946C35.5866 36.8743 36.0689 36.6916 36.7763 36.534C37.5465 36.3763 38.479 36.5077 39.2828 36.4026C40.0223 36.2975 40.5996 36.2975 41.3713 35.9035C42.7525 35.2205 44.5852 32.9099 46.1914 31.6765C47.6383 30.5731 49.5661 28.9456 50.5307 28.7617C50.9151 28.6829 51.2366 28.8405 51.4617 28.9456C51.6546 29.0507 51.8475 29.182 51.9118 29.3659C52.0083 29.6549 51.9761 30.2579 51.6867 30.5994C51.3009 31.046 50.177 31.046 49.4375 31.5451C48.4086 32.2019 47.4133 33.698 46.3522 34.5124C45.4519 35.2205 44.5531 36.0086 43.6206 36.245C42.8489 36.4552 41.8536 36.3238 41.307 36.1662C40.9533 36.0611 40.6961 35.9298 40.5032 35.6933C40.246 35.3781 40.0852 34.7476 40.0852 34.3548C40.0852 34.0658 40.1495 33.8031 40.2781 33.5667C40.4389 33.304 40.6961 33.015 40.9855 32.8837C41.2749 32.7523 41.725 32.6998 42.0787 32.7523C42.4645 32.8311 42.9775 33.0676 43.2026 33.3303C43.4277 33.5404 43.492 33.8294 43.5241 34.1183C43.5563 34.4073 43.4598 34.8002 43.2991 35.0629C43.1383 35.3256 42.8811 35.562 42.4967 35.7459C41.9822 36.0086 40.9533 36.2713 40.2781 36.2187C39.6365 36.1662 38.8005 35.851 38.4468 35.4306C38.061 35.0103 38.061 34.2234 38.1253 33.6455C38.1896 33.0676 38.3825 32.5947 38.9291 31.9129C40.0852 30.4943 45.0032 26.1097 46.095 26.2936C46.5773 26.3724 46.4165 27.502 46.8023 27.6859C47.0917 27.8435 47.8956 27.502 47.9277 27.607C47.992 27.7647 45.6448 28.6566 45.0675 29.182C44.7138 29.4973 44.8103 29.76 44.4566 30.1277C43.8135 30.8096 41.7893 32.2281 40.9855 32.7523C40.5996 33.015 40.471 33.1464 40.0852 33.2777C39.54 33.4353 38.704 33.5404 37.9967 33.4616C37.1621 33.3565 35.876 33.015 35.3937 32.621C35.0722 32.3595 35.0079 31.9654 34.9435 31.6502C34.9114 31.335 34.9435 31.046 35.0722 30.7308C35.2008 30.3892 35.3937 30.154 35.7795 29.6812C36.7763 28.5253 40.4067 25.1914 41.7893 24.0618C42.4324 23.5114 42.7846 23.1173 43.3312 22.9334C43.7492 22.7758 44.6174 22.8546 44.6174 22.8546C44.6174 22.8546 43.2669 22.9334 43.2669 22.8809C43.2669 22.8546 43.6528 22.697 43.91 22.7233C44.2958 22.7495 45.0354 23.0648 45.2283 23.38C45.389 23.6415 45.3569 24.0618 45.1318 24.4033C44.7138 25.0075 42.7846 25.638 42.1109 26.2673C41.6286 26.7402 41.6286 27.4232 41.1784 27.6859C40.7926 27.9223 40.0852 28.0787 39.7008 27.9486C39.315 27.8172 38.897 27.3181 38.8648 26.924C38.8327 26.3724 39.7651 25.4541 40.1816 24.9813C40.4389 24.6923 40.8569 24.272 40.9212 24.2983C40.9855 24.3245 40.5353 25.2965 40.5032 25.2965C40.471 25.2965 40.5032 24.561 40.6639 24.3508C40.7926 24.1932 40.9533 24.0618 41.1784 24.0356C41.5321 23.983 42.3681 24.0881 42.6575 24.3245C42.9132 24.5347 43.0097 25.0601 42.9775 25.3228C42.9454 25.5067 42.8489 25.638 42.6896 25.7694C42.4324 25.9783 41.725 26.0046 41.3713 26.2936C40.9533 26.6351 40.9533 27.3181 40.4389 27.8697C39.7008 28.6566 37.9002 29.9176 37.0335 30.3892C36.5512 30.6257 36.1654 30.5469 35.8438 30.8096C35.4259 31.1248 35.2651 32.2544 34.8471 32.3332C34.4949 32.412 33.8196 32.018 33.6589 31.729C33.4981 31.4663 33.5303 31.046 33.7553 30.7833C34.109 30.3892 35.5866 29.9964 36.2618 29.9964C36.712 29.9964 37.13 30.0752 37.3536 30.3104C37.643 30.5731 37.5787 31.2036 37.5787 31.6765C37.5787 32.2281 37.4822 32.8574 37.2586 33.4091C37.0657 33.9607 36.7763 34.5387 36.3261 34.9841C35.876 35.4306 35.1043 36.1136 34.5913 36.1136C34.1733 36.1136 33.466 35.4832 33.4981 35.4306C33.5303 35.3781 35.1043 35.851 35.1043 35.9823C35.1043 36.0874 34.1733 36.2975 33.8196 36.1925C33.4338 36.0874 33.1444 35.6145 32.9193 35.273C32.7264 34.9578 32.5657 34.6425 32.5335 34.2497C32.4692 33.7243 32.6621 32.8574 32.8872 32.3332C33.048 31.9129 33.2409 31.5188 33.5624 31.2561C33.8518 31.0197 34.2376 30.8621 34.6235 30.8358C35.0079 30.8096 35.6188 30.8621 35.876 31.0985C36.1332 31.335 36.1975 31.8603 36.1332 32.2807C36.0689 32.7523 35.6509 33.4879 35.2651 33.8031C34.9757 34.0395 34.5592 34.1972 34.2376 34.1709C33.9161 34.1446 33.5303 33.9082 33.3052 33.6718C33.0801 33.4091 32.9515 33.0413 32.9836 32.6735C33.048 32.1756 33.466 31.3875 33.9161 31.0197C34.3019 30.7045 35.0079 30.3367 35.4259 30.4418C35.9082 30.5469 36.5191 31.4138 36.5512 31.8866C36.5834 32.3069 36.1332 32.8574 35.7795 33.0938C35.4902 33.2777 35.04 33.3565 34.7506 33.3303C34.4949 33.304 34.2055 33.1464 34.0769 32.9625C33.9161 32.7261 33.7875 32.2807 33.9483 32.018C34.1412 31.6765 35.0079 31.1773 35.458 31.2036C35.8438 31.2036 36.3583 31.5977 36.4869 31.8603C36.5834 32.0968 36.4869 32.4896 36.294 32.6998C36.1011 32.9362 35.5866 33.2514 35.2329 33.1989C34.7506 33.1464 33.7875 32.2544 33.7553 31.8341C33.7553 31.5188 34.2055 31.1248 34.5913 30.9409C34.9757 30.757 35.7795 30.6257 36.0046 30.8096C36.294 31.046 36.1332 32.2544 35.8117 32.4896C35.5545 32.6735 34.8149 32.6472 34.527 32.4634C34.2055 32.2544 34.0126 31.4926 34.1412 31.1511C34.2376 30.8621 34.6235 30.6519 34.9757 30.4943C35.3615 30.3104 36.0689 30.0489 36.4548 30.1277C36.7763 30.2054 37.1621 30.5469 37.1943 30.8096C37.2264 31.0723 36.6798 31.6502 36.6798 31.6502Z" fill="white"/>
</mask>
<g mask="url(#mask3_62_2)">
<path d="M2.71118 21.6725H53.2915V50.8163H2.71118V21.6725Z" fill="#EEEEEE"/>
</g>
</g>
<mask id="mask4_62_2" style="mask-type:luminance" maskUnits="userSpaceOnUse" x="29" y="46" width="21" height="17">
<path d="M29.5709 46.6096H49.9548V62.7678H29.5709V46.6096Z" fill="white"/>
</mask>
<g mask="url(#mask4_62_2)">
<mask id="mask5_62_2" style="mask-type:luminance" maskUnits="userSpaceOnUse" x="29" y="46" width="21" height="17">
<path d="M31.3452 48.4795C38.0288 53.1006 39.7651 54.3353 41.2105 55.7526C42.6574 57.17 44.0064 59.717 44.971 60.3212C45.3569 60.5576 45.6448 60.6889 45.9663 60.6101C46.4165 60.4788 47.3489 59.3755 47.2203 59.139C47.1238 58.9814 46.5772 59.1128 46.2235 58.9814C45.6769 58.7987 45.1961 58.4572 44.3923 57.8793C42.4324 56.4882 36.9692 51.4731 34.9435 50.0808C34.0768 49.4778 33.5302 49.1625 32.9515 48.9524C32.5978 48.821 32.019 48.8736 31.9869 48.7422C31.9225 48.5846 32.5335 48.0592 32.855 48.0067C33.1765 47.9541 33.5302 48.1643 33.9804 48.4007C34.8149 48.8473 35.8438 49.793 37.0978 50.8426C39.1542 52.5752 43.717 56.4356 45.0675 57.9844C45.6448 58.6411 46.2235 59.2967 46.0628 59.5331C45.9342 59.717 45.1318 59.6382 44.7138 59.5594C44.328 59.4805 43.8456 59.2441 43.6206 59.0077C43.4598 58.825 43.3633 58.5886 43.3955 58.3521C43.4277 58.0632 43.717 57.6429 44.0064 57.4852C44.2315 57.3539 44.5852 57.3276 44.8424 57.3539C45.0996 57.3802 45.4212 57.459 45.6126 57.6166C45.8055 57.7479 45.9663 57.9844 45.9985 58.2208C46.0306 58.5098 45.8377 58.9814 45.6126 59.1916C45.4212 59.3755 45.1318 59.4805 44.8424 59.4805C44.4887 59.4805 43.9421 59.3492 43.717 59.1128C43.492 58.8775 43.3312 58.4047 43.4277 58.1157C43.5241 57.8267 43.9421 57.4852 44.2636 57.3802C44.5209 57.2751 44.7781 57.3014 45.1318 57.3802C45.7412 57.5115 46.9631 58.0632 47.4454 58.536C47.8312 58.9038 47.992 59.4543 48.0241 59.8483C48.0563 60.1373 47.9277 60.4263 47.7669 60.6627C47.574 60.9254 47.2203 61.2131 46.8666 61.3708C46.4808 61.5284 45.9342 61.5809 45.5162 61.5284C45.1318 61.4758 44.7459 61.3182 44.4244 61.0567C44.0064 60.7415 43.8778 60.1636 43.4277 59.6119C42.6896 58.7462 41.6285 57.7217 40.2459 56.4619C37.9323 54.3615 31.088 50.0294 30.4771 48.3744C30.252 47.7977 30.4771 47.2986 30.7986 47.0096C31.1523 46.7206 31.8597 46.6156 32.5335 46.6681C33.5302 46.7469 34.8471 47.3511 36.1332 48.1117C38.1574 49.2939 40.6639 52.0773 42.9132 53.7573C44.9389 55.2535 47.8955 56.9336 48.923 57.8005C49.341 58.142 49.566 58.2996 49.6947 58.6148C49.8233 58.9289 49.8876 59.2441 49.759 59.6382C49.566 60.3212 48.6014 61.686 47.9277 62.1851C47.4775 62.5266 46.8988 62.6317 46.4486 62.7105C46.0949 62.7631 45.8377 62.7631 45.484 62.6842C44.9067 62.5792 44.0386 62.2377 43.4598 61.8962C42.9132 61.5809 42.4645 61.2394 42.0144 60.7415C41.4034 60.0585 40.8568 58.7987 40.2781 58.0894C39.8294 57.5641 39.6365 57.3802 38.9612 56.8022C37.3229 55.3586 30.6379 50.685 29.834 49.5828C29.6411 49.3201 29.609 49.1888 29.6411 49.0049C29.6733 48.821 29.834 48.6109 29.9948 48.4795C30.1556 48.3482 30.4449 48.2694 30.67 48.2694C30.8951 48.2694 31.3452 48.4795 31.3452 48.4795Z" fill="white"/>
</mask>
<g mask="url(#mask5_62_2)">
<path d="M28.3564 45.6185H51.0831V63.7601H28.3564V45.6185Z" fill="#EEEEEE"/>
</g>
</g>
<mask id="mask6_62_2" style="mask-type:luminance" maskUnits="userSpaceOnUse" x="3" y="45" width="23" height="19">
<path d="M3.45062 45.4824H25.8031V63.0556H3.45062V45.4824Z" fill="white"/>
</mask>
<g mask="url(#mask6_62_2)">
<mask id="mask7_62_2" style="mask-type:luminance" maskUnits="userSpaceOnUse" x="3" y="45" width="23" height="19">
<path d="M8.20644 62.3164C7.21115 63.0257 6.92176 63.0257 6.69669 62.9469C6.43946 62.8681 6.11793 62.5791 6.02147 62.369C5.95716 62.1851 5.95716 62.0538 6.11793 61.7648C6.85746 60.4 13.7018 54.2302 16.4655 51.5781C18.2661 49.8455 19.6151 48.3481 20.9977 47.2986C21.9608 46.563 22.9254 45.88 23.7293 45.6961C24.2423 45.5659 24.8532 45.5922 25.1747 45.7486C25.4319 45.88 25.6249 46.1427 25.6892 46.3791C25.7535 46.6155 25.7213 46.7994 25.5284 47.1147C24.9496 47.9804 21.4464 51.0527 20.2903 51.2629C19.808 51.3417 19.39 51.1053 19.1649 50.9214C18.9399 50.7375 18.8113 50.5273 18.8434 50.2121C18.9077 49.6091 20.2582 47.5613 20.5797 47.5875C20.7405 47.5875 20.9977 48.2431 20.9012 48.3219C20.7726 48.4007 19.7437 48.0066 19.4865 47.7189C19.2936 47.4824 19.2936 47.1147 19.3257 46.8257C19.3579 46.5367 19.5186 46.2215 19.7437 46.0376C19.9366 45.88 20.2903 45.7749 20.5797 45.7749C20.8691 45.7749 21.2213 45.8537 21.4142 46.0113C21.6393 46.169 21.8001 46.4317 21.8322 46.6681C21.8644 46.9045 21.8644 47.0359 21.6393 47.3774C20.6118 48.9261 11.5489 56.5932 8.62444 58.536C7.37191 59.3754 6.56808 59.7958 5.66778 60.0322C5.02471 60.2161 4.19018 60.3737 3.86864 60.1635C3.57926 59.9534 3.54711 59.2966 3.70788 58.8775C3.9008 58.3521 4.57602 57.9055 5.21763 57.3013C6.15008 56.4094 7.98137 54.5179 8.94597 54.1514C9.42828 53.9675 9.84627 53.9937 10.1678 54.0988C10.4557 54.1776 10.6808 54.4141 10.8094 54.623C10.938 54.8332 10.9702 55.0696 10.8737 55.3848C10.713 55.9628 9.84627 56.9598 9.13889 57.7216C8.3029 58.6148 6.53592 60.4262 6.08577 60.3211C5.8607 60.2686 5.76424 59.5593 5.8607 59.5068C5.98931 59.428 6.98607 60.0059 6.95392 60.0847C6.92176 60.1635 6.05362 60.1635 5.92501 60.0059C5.73208 59.7432 6.343 58.9038 6.92176 58.2208C7.91706 57.0386 10.938 54.8857 12.0634 54.02C12.5779 53.626 12.8351 53.3107 13.2516 53.1794C13.6053 53.0743 14.1198 53.0218 14.4091 53.1794C14.7307 53.337 15.1487 53.9412 15.0844 54.2564C15.0201 54.5705 14.3448 55.0433 13.959 55.0959C13.6053 55.1484 13.0909 54.8857 12.8672 54.7018C12.6743 54.5442 12.61 54.309 12.61 54.0988C12.61 53.8887 12.6743 53.626 12.8351 53.4683C13.0587 53.2582 13.5732 53.048 13.8947 53.048C14.1519 53.048 14.4413 53.1531 14.6342 53.2845C14.8271 53.4158 14.9879 53.626 15.0522 53.8361C15.1165 54.02 15.1487 54.2039 14.9879 54.4666C14.5056 55.306 11.0345 57.4589 9.87842 58.7199C9.07459 59.5856 8.78521 60.5313 8.2386 61.083C7.88491 61.4496 7.56483 61.7648 7.14684 61.8961C6.761 62.0275 6.27869 62.0538 5.79639 61.9487C5.18548 61.7911 4.15802 61.2919 3.83649 60.8465C3.57926 60.4788 3.51495 60.0585 3.70788 59.6119C4.02941 58.7987 5.95716 57.7216 6.8253 56.7759C7.56483 55.9628 7.98137 54.7018 8.68875 54.309C9.13889 54.0463 9.78196 53.9937 10.1678 54.0988C10.4557 54.1776 10.6808 54.4141 10.8094 54.623C10.938 54.8332 11.0023 55.0696 10.8737 55.3848C10.4557 56.3305 6.15008 60.2423 5.57132 60.0585C5.31409 59.9796 5.73208 59.0865 5.47486 58.825C5.24978 58.5885 4.28664 58.6674 4.22233 58.4835C4.15802 58.2996 4.80109 57.9055 5.21763 57.6691C5.69993 57.3801 6.24654 57.3801 7.05038 56.881C9.46043 55.3848 17.9446 47.0096 19.7437 46.0376C20.1295 45.8275 20.2903 45.7749 20.5797 45.7749C20.8691 45.7749 21.2213 45.8537 21.4142 46.0113C21.6393 46.169 21.8001 46.4317 21.8322 46.6681C21.8644 46.9045 21.7679 47.3511 21.6393 47.3774C21.4785 47.4036 20.7083 46.6155 20.7726 46.4842C20.8369 46.3791 21.4464 46.4317 21.7679 46.5367C22.1216 46.6418 22.6039 46.9308 22.7968 47.1935C22.9576 47.4299 22.9897 47.6926 22.8933 48.0592C22.7325 48.7422 21.7358 50.4223 21.0941 50.8951C20.7405 51.1578 20.3546 51.2892 20.0009 51.2629C19.6472 51.2366 19.1649 50.9477 18.972 50.7112C18.8113 50.5011 18.7791 50.2646 18.8756 49.9769C19.0363 49.4777 19.8723 48.7159 20.5797 48.0854C21.4464 47.2986 22.9576 46.0376 23.7293 45.6961C24.0815 45.5397 24.3387 45.4871 24.6281 45.5397C24.9496 45.5922 25.4319 45.88 25.5927 46.1427C25.7535 46.4054 25.7535 46.7732 25.5284 47.1147C25.1104 47.7451 23.5685 48.1117 22.1859 49.1888C19.1971 51.4993 12.1599 59.3492 9.52474 61.4495C8.49582 62.2639 7.8206 62.9469 7.17899 62.9995C6.761 63.0257 6.27869 62.7893 6.11793 62.5529C5.95716 62.3164 6.08577 61.8699 6.24654 61.6072C6.40731 61.3707 6.69669 61.1343 6.98607 61.0304C7.27545 60.9254 7.65983 60.8991 7.91706 60.9779C8.17429 61.0567 8.43152 61.3707 8.49582 61.5809C8.56013 61.8173 8.20644 62.3164 8.20644 62.3164Z" fill="white"/>
</mask>
<g mask="url(#mask7_62_2)">
<path d="M2.42169 44.4889H27.0177V64.0491H2.42169V44.4889Z" fill="#EEEEEE"/>
</g>
</g>
<mask id="mask8_62_2" style="mask-type:luminance" maskUnits="userSpaceOnUse" x="15" y="49" width="8" height="5">
<path d="M15.9875 49.0347H22.5776V53.7263H15.9875V49.0347Z" fill="white"/>
</mask>
<g mask="url(#mask8_62_2)">
<mask id="mask9_62_2" style="mask-type:luminance" maskUnits="userSpaceOnUse" x="16" y="49" width="7" height="5">
<path d="M22.1216 50.5799C17.2372 53.7048 16.8835 53.6522 16.6262 53.5471C16.4012 53.4683 16.2082 53.2844 16.1439 53.1006C16.0475 52.8641 16.0796 52.4175 16.2726 52.2086C16.4655 51.9984 16.8835 51.7883 17.205 51.7883C17.5265 51.7883 18.0088 51.9722 18.1696 52.2086C18.3625 52.4701 18.3304 53.1006 18.1053 53.337C17.8802 53.5734 17.0764 53.7048 16.7227 53.5997C16.4333 53.5209 16.1439 53.1268 16.0796 52.8904C16.0153 52.7065 16.0475 52.5489 16.2082 52.3125C16.7227 51.6306 19.9687 49.2938 21.1248 49.1362C21.6714 49.0574 22.218 49.2938 22.411 49.504C22.5717 49.6616 22.5396 49.898 22.5074 50.0819C22.4753 50.2646 22.1216 50.5799 22.1216 50.5799Z" fill="white"/>
</mask>
<g mask="url(#mask9_62_2)">
<path d="M14.7949 48.0854H23.8023V54.6493H14.7949V48.0854Z" fill="#EEEEEE"/>
</g>
</g>
<mask id="mask10_62_2" style="mask-type:luminance" maskUnits="userSpaceOnUse" x="44" y="42" width="11" height="9">
<path d="M44.898 42.49H55.0001V50.7434H44.898V42.49Z" fill="white"/>
</mask>
<g mask="url(#mask10_62_2)">
<mask id="mask11_62_2" style="mask-type:luminance" maskUnits="userSpaceOnUse" x="44" y="41" width="12" height="11">
<path d="M46.228 41.7711L55.8332 43.4548L53.7724 51.3022L44.1673 49.6186L46.228 41.7711Z" fill="white"/>
</mask>
<g mask="url(#mask11_62_2)">
<mask id="mask12_62_2" style="mask-type:luminance" maskUnits="userSpaceOnUse" x="45" y="42" width="10" height="9">
<path d="M51.8857 43.333C52.2335 44.5748 53.106 45.6769 54.3483 46.4459C54.6976 46.6621 54.8628 47.0227 54.7707 47.3725C54.6786 47.7224 54.3469 47.997 53.9201 48.077C52.4016 48.3612 51.0526 49.0741 50.1114 50.0891C49.8468 50.3744 49.4054 50.5094 48.9772 50.4341C48.549 50.3589 48.2128 50.0879 48.1149 49.7392C47.7671 48.4985 46.8946 47.3964 45.6508 46.6274C45.303 46.4113 45.1378 46.0507 45.2299 45.7008C45.322 45.351 45.6537 45.0763 46.079 44.9963C47.599 44.7121 48.948 43.9993 49.8892 42.9831C50.1537 42.6989 50.5951 42.564 51.0234 42.6392C51.4516 42.7144 51.7877 42.9855 51.8857 43.333Z" fill="white"/>
</mask>
<g mask="url(#mask12_62_2)">
<path d="M45.0719 40.3119L57.6191 42.5102L54.927 52.7614L42.3813 50.5619L45.0719 40.3119Z" fill="#EEEEEE"/>
</g>
</g>
</g>
<mask id="mask13_62_2" style="mask-type:luminance" maskUnits="userSpaceOnUse" x="44" y="42" width="11" height="9">
<path d="M44.898 42.49H55.0001V50.7434H44.898V42.49Z" fill="white"/>
</mask>
<g mask="url(#mask13_62_2)">
<mask id="mask14_62_2" style="mask-type:luminance" maskUnits="userSpaceOnUse" x="42" y="40" width="16" height="13">
<path d="M45.0719 40.312L57.6936 42.5234L54.9869 52.8354L42.3652 50.624L45.0719 40.312Z" fill="white"/>
</mask>
<g mask="url(#mask14_62_2)">
<mask id="mask15_62_2" style="mask-type:luminance" maskUnits="userSpaceOnUse" x="44" y="41" width="12" height="11">
<path d="M46.1506 41.6732L55.9501 43.3903L53.8484 51.3977L44.0474 49.6795L46.1506 41.6732Z" fill="white"/>
</mask>
<g mask="url(#mask15_62_2)">
<mask id="mask16_62_2" style="mask-type:luminance" maskUnits="userSpaceOnUse" x="45" y="42" width="10" height="9">
<path d="M51.8841 43.3329C52.2319 44.5748 53.1044 45.6757 54.3467 46.4447C54.696 46.6608 54.8597 47.0214 54.7691 47.3713C54.677 47.7212 54.3453 47.9958 53.9185 48.0746C52.4 48.36 51.051 49.0717 50.1098 50.0878C49.8467 50.3732 49.4039 50.507 48.9756 50.4317C48.5489 50.3565 48.2127 50.0866 48.1148 49.738C47.7655 48.4961 46.8944 47.3952 45.6507 46.6262C45.3028 46.4101 45.1377 46.0495 45.2298 45.6996C45.3218 45.3497 45.6521 45.0751 46.0789 44.9963C47.5989 44.7109 48.9464 43.998 49.8876 42.9831C50.1522 42.6977 50.5935 42.564 51.0218 42.6392C51.45 42.7132 51.7861 42.9843 51.8841 43.3329Z" fill="white"/>
</mask>
<g mask="url(#mask16_62_2)">
<path d="M51.884 43.333C52.2318 44.5748 53.1043 45.6757 54.3466 46.4447C54.6959 46.6609 54.8596 47.0215 54.7676 47.3713C54.6769 47.7212 54.3452 47.9958 53.9184 48.0746C52.3999 48.36 51.0509 49.0717 50.1097 50.0879C49.8466 50.3732 49.4038 50.507 48.9755 50.4317C48.5488 50.3565 48.2126 50.0867 48.1147 49.738C47.7654 48.4962 46.8943 47.3952 45.6506 46.6262C45.3027 46.4101 45.1376 46.0495 45.2297 45.6996C45.3217 45.3498 45.652 45.0751 46.0788 44.9963C47.5988 44.7109 48.9463 43.9981 49.8875 42.9831C50.1521 42.6977 50.5934 42.564 51.0217 42.6392C51.4499 42.7132 51.7861 42.9843 51.884 43.333Z" stroke="white" stroke-width="10"/>
</g>
</g>
</g>
</g>
<mask id="mask17_62_2" style="mask-type:luminance" maskUnits="userSpaceOnUse" x="0" y="40" width="11" height="9">
<path d="M0 40.0446H10.102V48.298H0V40.0446Z" fill="white"/>
</mask>
<g mask="url(#mask17_62_2)">
<mask id="mask18_62_2" style="mask-type:luminance" maskUnits="userSpaceOnUse" x="-1" y="39" width="12" height="10">
<path d="M-0.112549 40.3705L9.69719 39.9442L10.2204 47.9589L0.409215 48.3864L-0.112549 40.3705Z" fill="white"/>
</mask>
<g mask="url(#mask18_62_2)">
<mask id="mask19_62_2" style="mask-type:luminance" maskUnits="userSpaceOnUse" x="0" y="40" width="10" height="9">
<path d="M5.84756 40.6703C6.58125 41.7951 7.77531 42.6715 9.22222 43.148C9.62706 43.2817 9.90183 43.5957 9.92521 43.9528C9.94859 44.3098 9.71621 44.6453 9.33037 44.8137C7.95508 45.4131 6.88086 46.3887 6.29771 47.5708C6.13402 47.9016 5.74964 48.1261 5.31265 48.1452C4.87565 48.1643 4.46496 47.9744 4.25889 47.6592C3.5252 46.5356 2.33114 45.6579 0.884232 45.1815C0.479391 45.0477 0.204624 44.7337 0.18124 44.3767C0.157856 44.0196 0.390238 43.6841 0.776079 43.5157C2.15137 42.9163 3.22559 41.9408 3.80874 40.7598C3.97243 40.4279 4.35681 40.2034 4.7938 40.1843C5.2308 40.1652 5.64149 40.355 5.84756 40.6703Z" fill="white"/>
</mask>
<g mask="url(#mask19_62_2)">
<path d="M-1.69537 39.2099L11.1193 38.6523L11.8018 49.1207L-1.01138 49.6784L-1.69537 39.2099Z" fill="#EEEEEE"/>
</g>
</g>
</g>
<mask id="mask20_62_2" style="mask-type:luminance" maskUnits="userSpaceOnUse" x="0" y="40" width="11" height="9">
<path d="M0 40.0446H10.102V48.298H0V40.0446Z" fill="white"/>
</mask>
<g mask="url(#mask20_62_2)">
<mask id="mask21_62_2" style="mask-type:luminance" maskUnits="userSpaceOnUse" x="-2" y="38" width="14" height="12">
<path d="M-1.69537 39.2099L11.1953 38.6487L11.8822 49.1792L-1.00846 49.7404L-1.69537 39.2099Z" fill="white"/>
</mask>
<g mask="url(#mask21_62_2)">
<mask id="mask22_62_2" style="mask-type:luminance" maskUnits="userSpaceOnUse" x="-1" y="39" width="12" height="10">
<path d="M-0.219238 40.2929L9.78927 39.857L10.3227 48.0353L0.314217 48.4699L-0.219238 40.2929Z" fill="white"/>
</mask>
<g mask="url(#mask22_62_2)">
<mask id="mask23_62_2" style="mask-type:luminance" maskUnits="userSpaceOnUse" x="0" y="40" width="10" height="9">
<path d="M5.84604 40.6702C6.57972 41.7938 7.77379 42.6715 9.21923 43.1479C9.62554 43.2816 9.89884 43.5945 9.92223 43.9515C9.94561 44.3085 9.71469 44.6441 9.32885 44.8124C7.95209 45.4119 6.87934 46.3874 6.29619 47.5684C6.1325 47.9003 5.74812 48.1248 5.31112 48.1439C4.87413 48.163 4.46344 47.9732 4.25737 47.6579C3.52368 46.5343 2.32962 45.6567 0.884171 45.1802C0.47933 45.0465 0.204563 44.7324 0.181179 44.3766C0.157794 44.0196 0.390177 43.6829 0.776018 43.5157C2.15131 42.9163 3.22407 41.9407 3.80722 40.7586C3.97091 40.4278 4.35529 40.2033 4.79228 40.1842C5.22928 40.1651 5.63997 40.355 5.84604 40.6702Z" fill="white"/>
</mask>
<g mask="url(#mask23_62_2)">
<path d="M5.84608 40.6702C6.57977 41.7938 7.77383 42.6714 9.21927 43.1479C9.62558 43.2816 9.89888 43.5944 9.92227 43.9515C9.94565 44.3085 9.71473 44.644 9.32889 44.8124C7.95214 45.4118 6.87938 46.3874 6.29623 47.5683C6.13254 47.9003 5.74816 48.1248 5.31117 48.1439C4.87417 48.163 4.46348 47.9731 4.25741 47.6579C3.52373 46.5343 2.32966 45.6566 0.884218 45.1802C0.477915 45.0464 0.20461 44.7336 0.181226 44.3766C0.157842 44.0195 0.390223 43.6828 0.776065 43.5156C2.15136 42.9162 3.22411 41.9407 3.80726 40.7585C3.97095 40.4278 4.35533 40.2033 4.79233 40.1842C5.22932 40.1651 5.64001 40.3549 5.84608 40.6702Z" stroke="white" stroke-width="9.99999"/>
</g>
</g>
</g>
</g>
<mask id="mask24_62_2" style="mask-type:luminance" maskUnits="userSpaceOnUse" x="1" y="21" width="53" height="43">
<path d="M1.87073 21.7787H53.5034V63.5822H1.87073V21.7787Z" fill="white"/>
</mask>
<g mask="url(#mask24_62_2)">
<path d="M6.02591 26.8237C6.65728 26.3091 7.61458 27.0912 6.98466 27.607C6.00544 28.4071 7.08697 29.9212 5.89291 29.9928C4.57608 30.0728 5.14168 27.5473 6.02591 26.8237ZM7.67596 58.1228C9.21787 58.1228 9.21787 60.037 7.67596 60.037C6.13552 60.037 6.13552 58.1228 7.67596 58.1228ZM45.7325 58.1228C44.1906 58.1228 44.1906 60.037 45.7325 60.037C47.2745 60.037 47.2745 58.1228 45.7325 58.1228ZM23.2251 44.5331L4.199 58.776C3.86139 59.0363 3.88916 59.3826 4.25308 59.6728L7.08405 61.9905C7.36174 62.2042 7.79727 62.1911 8.08519 61.9511L25.4218 46.4914L23.2251 44.5331ZM26.61 47.5517L9.18133 63.0771C8.1875 63.7887 6.72013 63.735 5.76868 62.9409L2.86025 60.5623C1.97895 59.8423 1.96726 58.5014 3.01517 57.7193L22.0413 43.4775L18.1975 40.0493C12.2885 41.3353 4.51615 36.3238 3.05317 30.8251C0.989499 23.0672 11.4043 22.2468 18.0615 27.6847C20.951 30.0442 23.2222 33.6801 22.2137 36.7668L26.6085 40.0589L32.0512 35.9847L32.1009 31.4973C32.1097 30.6137 32.5365 29.8447 33.3403 29.2584L42.8782 22.3137C43.6148 21.7764 44.4713 21.9352 45.1786 22.4892C45.8743 23.0254 46.6898 23.6535 45.6872 24.592L40.6333 29.3205L46.3566 25.1544C46.969 24.7078 47.9175 24.7305 48.4977 25.2058L48.4963 25.2069C49.2943 25.8291 50.3437 26.493 49.2358 27.5079L44.1395 32.1827L49.9257 28.0548C50.6696 27.5247 51.5129 27.6894 52.2115 28.2363C52.9101 28.7737 53.7373 29.4113 52.7142 30.3498L44.2126 38.1424C43.4964 38.7991 42.5552 39.1478 41.4737 39.1561L35.9798 39.1955L31.1772 43.4799L50.3992 57.8793C51.2732 58.6948 51.2016 59.908 50.2253 60.6734L47.3183 63.046C46.3172 63.7959 44.7606 63.735 43.8428 62.9183L26.61 47.5517ZM29.8838 42.5115L34.9451 37.9991C35.116 37.8462 35.3499 37.7674 35.5852 37.7662L41.4591 37.7221C42.0334 37.7185 42.5143 37.5394 42.8987 37.1859L51.3097 29.477C51.6166 29.1952 51.2118 29.0137 50.9429 29.2322L43.1383 34.799C42.1284 35.519 41.5847 34.8455 40.9694 34.3416C40.5149 33.9715 40.493 33.3649 40.9212 32.9732L47.7772 26.6852C48.0885 26.3998 47.6384 26.1467 47.2935 26.3974L39.6672 31.9499C38.6573 32.6843 38.1034 32.0012 37.4866 31.4973C37.0336 31.1284 37.0116 30.5313 37.4326 30.1361L44.2593 23.7478C44.594 23.4337 44.1848 23.2618 43.9115 23.4863L34.5095 30.3319C34.0769 30.6484 33.8591 31.0388 33.8548 31.5093L33.8007 36.3083C33.7992 36.5244 33.6808 36.7178 33.4938 36.8468L27.9064 41.0297L29.8838 42.5115ZM17.721 26.4774C16.6848 26.9001 15.9014 25.6141 16.9376 25.1914C23.2573 22.617 30.6847 22.4474 37.1724 24.7293C38.2335 25.1019 37.5378 26.4225 36.4782 26.05C30.4669 23.9365 23.5759 24.0893 17.721 26.4774ZM48.1426 35.5763C47.6881 34.7106 49.303 34.1434 49.759 35.0091C53.065 41.2804 52.1472 48.507 47.3329 54.0928C46.6694 54.863 45.2327 54.0367 45.8948 53.2665C50.3539 48.095 51.2089 41.3831 48.1426 35.5763ZM38.0128 58.9217C39.0344 58.4847 39.8485 59.754 38.8254 60.1922C31.3146 63.4042 22.278 63.1571 15.064 59.5211C14.0818 59.0268 15.0026 57.8064 15.9862 58.302C22.6507 61.6621 31.0793 61.8949 38.0128 58.9217ZM8.66542 52.3196C9.27341 53.1221 7.77973 53.8755 7.1732 53.0731C3.45801 48.1511 2.61033 42.1473 4.81138 36.645C5.17091 35.7435 6.84144 36.1913 6.48336 37.088C4.44454 42.1867 5.22645 47.7559 8.66542 52.3196ZM19.1387 38.7681L45.1333 61.9487C45.4856 62.2388 45.9021 62.1899 46.2309 61.9057L49.097 59.5653C49.3513 59.3289 49.2972 58.9909 48.9742 58.7402L20.6192 37.5143C19.6663 36.8026 21.5736 36.1865 20.1734 32.9231C16.8514 25.1711 2.61325 22.3985 4.77338 30.5218C6.11506 35.5668 13.5221 39.9693 18.1595 38.5567C18.5175 38.4493 18.9048 38.5424 19.1387 38.7681ZM23.7761 34.2186C22.6902 34.547 22.0778 33.1977 23.1637 32.8693C25.6951 32.1027 28.4778 32.0072 31.0925 32.5899C32.2062 32.8383 31.7443 34.221 30.6306 33.9727C28.3711 33.4676 25.9757 33.5523 23.7761 34.2186ZM38.4469 40.3562C38.1443 39.4463 39.8353 39.0678 40.1393 39.9789C41.0191 42.6082 40.6377 45.3964 39.0622 47.7869C38.5155 48.6204 36.9678 47.941 37.5144 47.1075C38.8722 45.0465 39.2083 42.6154 38.4469 40.3562ZM30.1805 51.6856C31.3088 51.4754 31.7005 52.8737 30.5736 53.0862C28.0452 53.5591 25.4042 53.4051 22.9898 52.642C21.9127 52.3005 22.5455 50.9632 23.6241 51.3035C25.6995 51.9602 28.0057 52.0952 30.1805 51.6856ZM17.2329 46.0794C17.6494 46.9606 16.0125 47.4765 15.596 46.5976C14.7702 44.8543 14.532 42.9808 14.8857 41.1276C15.0654 40.1938 16.7973 40.4159 16.6205 41.3461C16.315 42.9402 16.5226 44.5773 17.2329 46.0794ZM5.75991 31.5869C5.45007 30.9075 6.71282 30.5218 7.02413 31.2024C8.17873 33.7267 11.0799 36.0384 14.1827 36.9089C15.026 37.1441 14.5875 38.1901 13.7442 37.9549C10.2599 36.9782 7.06213 34.4252 5.75991 31.5869Z" fill="white"/>
</g>
<mask id="mask25_62_2" style="mask-type:luminance" maskUnits="userSpaceOnUse" x="10" y="0" width="37" height="24">
<path d="M10.1021 0H46.0204V23.8433H10.1021V0Z" fill="white"/>
</mask>
<g mask="url(#mask25_62_2)">
<mask id="mask26_62_2" style="mask-type:luminance" maskUnits="userSpaceOnUse" x="9" y="-2" width="38" height="27">
<path d="M9.11261 1.15947L44.366 -1.05435L46.5159 21.8038L11.2625 24.0189L9.11261 1.15947Z" fill="white"/>
</mask>
<g mask="url(#mask26_62_2)">
<mask id="mask27_62_2" style="mask-type:luminance" maskUnits="userSpaceOnUse" x="9" y="-2" width="38" height="27">
<path d="M9.11261 1.15947L44.366 -1.05435L46.5159 21.8038L11.2625 24.0189L9.11261 1.15947Z" fill="white"/>
</mask>
<g mask="url(#mask27_62_2)">
<path fill-rule="evenodd" clip-rule="evenodd" d="M16.6161 7.28386C15.7435 7.39371 13.6258 7.76865 12.081 8.95318C10.9249 9.84038 10.0611 11.1634 10.2394 13.1456C10.4134 15.0668 11.5753 16.2072 12.952 16.8902C14.51 17.6628 16.3778 17.8084 17.3497 17.8264C17.5894 18.3446 17.7838 19.0049 17.9066 19.7273C18.0381 20.5142 18.0834 21.3728 17.9957 22.211L17.8481 23.6021L19.3462 22.9286C20.9743 22.1871 24.0801 21.4635 27.3948 21.2868C28.2264 21.2426 29.0712 21.2378 29.9145 21.2557C30.4786 21.2665 31.0354 21.2832 31.5937 21.3178C32.3113 21.3632 33.0041 21.4253 33.6998 21.5304C34.4349 21.6414 35.1262 21.7608 35.8175 21.9686C35.2636 21.5781 34.6936 21.2414 34.0418 20.9524C33.3987 20.6671 32.7206 20.4545 32.0088 20.2754C31.449 20.1357 30.8761 20.0342 30.2915 19.9602C29.9071 19.9112 29.5169 19.8838 29.1282 19.8658C27.6476 19.7966 26.1642 19.8873 24.7743 20.0545C22.8977 20.279 21.1892 20.6671 19.8665 21.0945C19.8548 20.5572 19.8022 20.027 19.7174 19.5231C19.5274 18.3995 19.1693 17.4072 18.7543 16.7397L18.478 16.2967L17.8715 16.335C17.8715 16.335 15.6339 16.4842 13.8859 15.6269C12.9301 15.1588 12.1409 14.3635 12.0108 13.0345C11.8705 11.604 12.4507 10.6356 13.2809 9.98964C14.4296 9.09647 15.9935 8.78123 16.7301 8.67854C16.7695 8.87795 16.8192 9.07378 16.8791 9.26603C17.3541 10.8076 18.3991 12.0781 19.7861 12.6524C18.6359 11.9264 17.9724 10.6177 17.816 9.13826C17.6888 7.92866 17.9402 6.62234 18.6315 5.42827C19.0056 4.78227 19.523 4.18523 20.1793 3.65029C21.4537 2.61383 23.3025 1.86156 25.8894 1.72424C28.6897 1.56304 30.6262 2.13739 31.9547 3.00548C34.5694 4.71182 34.831 7.4773 34.831 7.4773L34.9172 8.39316L36.0192 8.21405C36.0192 8.21405 38.913 7.72806 41.2164 8.57824C42.5011 9.05229 43.5665 9.98605 43.739 11.7306C43.9129 13.3963 43.2728 14.4053 42.314 14.9988C41.5262 15.486 40.5631 15.6973 39.7403 15.8131C38.9569 15.923 38.289 15.9457 37.9806 15.9493C38.0201 15.8955 38.0581 15.8394 38.0946 15.7833C38.2875 15.4788 38.4293 15.154 38.5097 14.8113C38.5681 14.5618 38.6061 14.3134 38.5959 14.0531C38.5769 13.5014 38.4249 12.9665 38.1151 12.4017C38.1209 12.7288 38.0771 13.0202 38.0142 13.3199C37.9207 13.7701 37.7336 14.1617 37.5085 14.5474C37.3609 14.7982 37.1841 15.0274 36.997 15.2543C36.8742 15.406 36.7427 15.5493 36.6126 15.6949C36.275 16.0711 35.914 16.4245 35.4726 16.7254C34.7652 17.2066 33.9833 17.5875 33.0699 17.7702C34.0813 17.8407 35.0649 17.7034 35.971 17.3654C36.2911 17.2472 36.5878 17.098 36.8669 16.9272C36.7792 17.4335 36.7588 17.9493 36.8201 18.4819C36.9312 19.4491 37.2528 20.4163 37.6298 21.4205C37.6035 20.4032 37.6503 19.436 37.8227 18.5046C37.9046 18.0616 38.0215 17.6389 38.1925 17.2353C38.6222 17.2663 39.258 17.2854 39.98 17.2245C41.0761 17.1314 42.3462 16.8281 43.4043 16.2024C44.7942 15.3821 45.8538 13.9886 45.6536 11.61C45.4826 9.68515 44.4961 8.46719 43.2275 7.68985C41.1492 6.41815 38.1925 6.4098 36.6521 6.51249C36.3422 5.34707 35.4858 3.21564 33.1985 1.72902C31.5616 0.665095 29.191 -0.0883672 25.7477 0.12179C23.1154 0.288961 21.1044 0.975555 19.6458 1.96425C19.1723 2.28665 18.7528 2.63771 18.3977 3.01743C17.8437 3.60849 17.4199 4.25329 17.1349 4.92795C16.809 5.69813 16.6394 6.49816 16.6161 7.28386Z" fill="white"/>
</g>
</g>
</g>
</svg>
