<svg width="44" height="44" viewBox="0 0 44 44" fill="none" xmlns="http://www.w3.org/2000/svg">
<path d="M22 0C9.8505 0 0 9.8505 0 22C0 26.1272 1.15929 29.9751 3.13672 33.2757L0.19694 44L11.1504 41.1247C14.3538 42.9459 18.0519 44 22 44C34.1495 44 44 34.1495 44 22C44 9.8505 34.1495 0 22 0ZM14.4697 11.7376C14.8272 11.7376 15.1946 11.7355 15.5117 11.752C15.9041 11.7611 16.3311 11.7899 16.7399 12.6937C17.2257 13.768 18.2836 16.4632 18.4193 16.7363C18.5549 17.0095 18.6511 17.3313 18.4622 17.6888C18.2826 18.0555 18.1891 18.2774 17.9251 18.6019C17.652 18.9172 17.3526 19.3089 17.1051 19.5472C16.832 19.8204 16.5499 20.1199 16.8652 20.6644C17.1806 21.2089 18.2757 22.9939 19.8945 24.4349C21.9754 26.2939 23.731 26.8652 24.2773 27.1383C24.8237 27.4115 25.1401 27.3689 25.4554 27.0023C25.7799 26.6448 26.8182 25.4181 27.1849 24.8717C27.5424 24.3254 27.9073 24.4199 28.4023 24.5996C28.9047 24.7793 31.5835 26.0989 32.1299 26.3721C32.6762 26.6452 33.0344 26.7804 33.1719 27.0023C33.313 27.2314 33.3132 28.3224 32.8604 29.5947C32.4075 30.8652 30.1839 32.0938 29.1865 32.18C28.18 32.2735 27.2407 32.6324 22.6445 30.8229C17.1005 28.6394 13.6042 22.9611 13.3311 22.5944C13.0579 22.2369 11.111 19.6422 11.111 16.9655C11.111 14.2797 12.5192 12.9643 13.0124 12.418C13.5147 11.8716 14.1031 11.7376 14.4697 11.7376Z" fill="black"/>
</svg>
