<svg width="34" height="34" viewBox="0 0 34 34" fill="none" xmlns="http://www.w3.org/2000/svg">
<path d="M17 0C7.61175 0 0 7.61175 0 17C0 20.1892 0.895817 23.1626 2.42383 25.7131L0.152181 34L8.61621 31.7782C11.0916 33.1855 13.9492 34 17 34C26.3882 34 34 26.3882 34 17C34 7.61175 26.3882 0 17 0ZM11.1812 9.06999C11.4574 9.06999 11.7412 9.0683 11.9863 9.08105C12.2895 9.08814 12.6195 9.11034 12.9354 9.80876C13.3108 10.6389 14.1282 12.7215 14.2331 12.9326C14.3379 13.1437 14.4122 13.3924 14.2663 13.6686C14.1274 13.952 14.0552 14.1234 13.8512 14.3742C13.6402 14.6179 13.4089 14.9205 13.2176 15.1047C13.0065 15.3157 12.7886 15.5472 13.0322 15.9679C13.2759 16.3887 14.1221 17.768 15.373 18.8815C16.981 20.318 18.3376 20.7595 18.7598 20.9705C19.1819 21.1816 19.4264 21.1487 19.6701 20.8654C19.9208 20.5891 20.7232 19.6412 21.0065 19.2191C21.2828 18.7969 21.5648 18.87 21.9473 19.0088C22.3354 19.1476 24.4055 20.1673 24.8276 20.3784C25.2498 20.5895 25.5266 20.694 25.6328 20.8654C25.7419 21.0425 25.742 21.8855 25.3921 22.8687C25.0422 23.8504 23.3239 24.7998 22.5532 24.8664C21.7755 24.9386 21.0496 25.216 17.498 23.8177C13.214 22.1305 10.5124 17.7426 10.3013 17.4593C10.0902 17.1831 8.58577 15.178 8.58577 13.1097C8.58577 11.0343 9.67393 10.0179 10.055 9.5957C10.4432 9.17354 10.8978 9.06999 11.1812 9.06999Z" fill="#EEEEEE"/>
</svg>
